<svg xmlns="http://www.w3.org/2000/svg" viewBox="0 0 900 156" width="900" height="156" role="img" aria-labelledby="t d"><title id="t">Case Study 6: One Voice Platform, Two Opposite Conversational Goals (VOAG Multi-Provider &amp; Regional Workers)</title><desc id="d">Links to human-in-loop.dev/case-studies/one-platform-two-goals/.</desc><defs><clipPath id="panel"><rect width="900" height="156" rx="18"/></clipPath></defs><g clip-path="url(#panel)"><rect width="900" height="156" fill="#0D0D0C"/><g transform="translate(0 -890.655)"><g fill="none" stroke="#F3F1EC" stroke-linecap="round" stroke-linejoin="round"><path d="M244.4 1034.1l0.6 1.2M251.8 1034.5l1 2.4M745.5 904l1-2.2M319.8 1034.8l-0.4 0.6M205.3 1034.1l0.5 1M200.3 1033.8l0.5 1.2M266.1 904.4l-0.2-2.5M771.3 967.9l2.5 1.1M765.5 910.9l1-1.5M529.3 903.4l-1.3-1.8M170.4 911.4l-1.6 1.2M175.3 1029.2l0.5 1M165.7 924.4l-0.6 2.5-0.1 2.5M233.8 903.1l-2.4-1.6M451.3 903.2l2.5 0.1" stroke-width="0.15"/><path d="M466.3 1034.1l2.5-0.4 2.5 0.3 2.5 0.8M484.9 1035.7l0.1 0.2 0.5 1.3M736.4 901.7l1.2-2.3M556.8 1036.4l1.2-1.4M586.6 1035.1l0.7 1.8M245 1035.3l0.1 0.3 0.3 1.3M225.1 1035.2l-0.7-1.2M742.1 901.9l1.1-2.4M508.7 1036.4l0.9 1.4M547.2 1036.9l1.2-2.1M601.1 1035l0.5 1.9M257.6 1034.4l1.1 2.3M320.2 904.4l-0.1-2.5M164.4 970.8l0.4 0.3M264.1 1036.3l0.6 1.3M319.4 1035.4l-1.3 1.4-2.1 2.2M350.5 1034.4l-0.2 1.7M715.2 1034.4l0.2 2.5M753.1 1034.4l0.6 2.5M205.8 1035.1l0.8 1.8M646.5 1034.4l0.4 2.5M269.6 1036l0.3 0.6 0.6 1.2M310.1 1035.7l-0.1 0-0.9 1.3-1.9 2.4M355.7 1034.4l-0.2 2.2M708.4 1034.4l0.3 2.5M757.8 1031.9l0.4 2.5M200.8 1035l0.8 1.9M654.2 1034.4l0.6 1.5M359.8 1034.4l-0.2 2.5M701.9 1034.4l0.3 2.5M196.1 1034.7l0.7 2.2M276.8 1036.9l-1-1.6-0.5-0.6M300.9 1036.1l-0.6 0.9-1 1.2M660.2 1034.7l0.3 0.6M164.8 955.7l0.1 0M665.4 1033.8l0.9 1.2M162.8 950.1l1.2 0.7 0.7 0.4M260.9 901.9l-0.1-2.5M366.7 1034.4l0.1 2.5M417.2 1034.4l-0.9 2.4M673.8 1034.1l1.5 1.3M686.6 901.9l0-2.5M187.2 1034.4l0.6 2.5M772.5 975.2l1.2 0.8M162.5 944.9l1.3 1M256.1 901.9l-0.4-2.5M558.8 902.3l-2.5 0.7M635.2 901.9l-0.1-2.5M413.7 1034.6l-1 2.3M183.2 901.8l-2.1 2.3M168.8 912.6l-2.5 1.9-1.4 1-0.1 0.1M250.8 901.9l-0.5-1.6M165.8 1018.8l1.6 1.2M175.8 1030.2l0.7 1.7M409.9 1035l-0.2 0.4M245.3 904l-0.8-1.3M200.9 901.3l-0.6 1.4M231.4 901.5l-1.3-0.9M401 1034.4l-0.7 1.5M469.6 902.1l1 1.2M435.7 902.4l1.5-1.2" stroke-width="0.30"/><path d="M464.4 1034.6l1.9-0.5M473.8 1034.8l1.3 0.6M485.5 1037.2l1 2.3M718.9 899.4l-0.4 2.5M737.6 899.4l1.5-2.5M493.6 1036.7l0.9 2.2M555.6 1037.9l1.2-1.5M587.3 1036.9l0.5 2.5M333.7 901.9l0.8-1.4M245.4 1036.9l0.5 2.5M225.3 1035.5l-0.2-0.3M713.1 899.4l-0.4 2.5M743.2 899.5l1.2-2.3M509.6 1037.8l0.7 1.3M601.6 1036.9l0.4 2.5M325.8 901.9l1.2-2.5M252.8 1036.9l1 2.5M619.3 1034.4l-0.1 2.5M747.3 1034.4l0.8 2.5M163.1 970.1l1.3 0.7M264.7 1037.6l0.6 1.3M314.3 901.7l0.5 2.2M350.3 1036.1l-0.2 1M704.9 899.2l-0.2 1-0.2 1.7M750.8 901.2l-0.5 1M270.5 1037.8l0.9 1.9M400.2 901.4l-1 1.2M701.2 899.4l-0.3 2.5M774.6 950.2l0 0.8 0.3 0.6M654.8 1035.9l0.1 0.6M272.3 901.9l0.3-2.5M405.2 901.3l-1.1 1.3M697.3 899.4l-0.2 2.5M773.9 938.1l1.8-1.2M299.3 1038.2l-1.3 1.6M660.5 1035.3l0.7 1.6M774 962.4l2.2 1.2M363.3 1034.4l-0.1 2.5M420.7 1034.4l-0.6 1.3M695.1 1034.3l-0.1 1.2M191.6 1034.4l0.7 2.5M139.1 914.8l-1.9 0.6-1.2 0.4-0.7 0.4-1.5 1.3-2.4 2.1-1 2.3 0.3 2.5M642.7 899.4l0.1 2.5M675.3 898l-0.4 1.3-0.2 0.9-0.7 1.7M675.3 1035.4l0.6 0.2 1.3 0.7M684.7 1035.6l0.2-0.1 0.9-1.2M686.6 899.4l0.4-2.5M163.8 1009.1l1.5 0.9M766.5 909.4l1.8-2.5M773.7 976l0.9 0.6M171.3 904.6l-1.3 1-0.1 0-1.2 0.8M160.8 943.5l1.7 1.4M528 901.6l-1.2-2.1M564.6 900.6l-1.2 0.4-2.3 0.6-2.3 0.7M635.1 899.4l0.3-2.5M163.8 1012.9l1.9 1.3M182.5 1034.4l0.6 2.5M184.8 898.8l-0.3 1.2-1.3 1.8M164.8 915.6l-1.2 1.3-2.1 2.5-1.2 1.5M160.4 935.3l1.1 1.6 1.9 2.5M250.3 900.3l-0.2-0.8M424.7 900.5l-1.3 1.4M499.4 902l0.6-1.2M176.5 1031.9l0.9 2.5M409.7 1035.4l-0.6 1.5M191.6 901.4l-1.1 1.6M244.5 902.7l-1-1.4M406.1 1034.4l-0.7 1.6M201.2 899.4l-0.3 1.9M230.1 900.6l-0.1 0-1.2-1-2.5-2M400.3 1035.9l-0.2 0.4M438.5 900.4l1-0.6M468.7 901.1l0.9 1M437.2 901.2l1.3-0.8" stroke-width="0.45"/><path d="M899.4 886.9l-0.8 2.5-0.9 2.5-1.1 2.5-0.8 2.5M463.3 1035.3l1.1-0.7M475.1 1035.4l0.3 0.2 1 1.3M731.3 886.8l2.5 0.8 1.8-0.2M453 1036.9l0.8-1.8M721.6 886.9l-0.4 2.5-0.5 2.1-0.5 1.7-0.3 1.2-0.2 0.9-0.3 1.6-0.5 2.5M739.1 896.9l0.8-1.3M743 889.6l1.3-2.2M446.4 1036.9l1.1-2.5M494.5 1038.9l0.6 1.3M554.1 1040.2l0.6-1 0.9-1.3M334.5 900.5l0.3-0.2M360 900.6l0.1 0 1.2 0.8 2.5 1.5M226.3 1036.9l-1-1.4M716.4 886.9l-0.7 2.5-0.4 1.5-0.2 0.6-0.4 1.2-0.5 2-0.5 2.2-0.6 2.5M440.8 1036.3l1-1.9M510.3 1039.1l0.5 1 0.7 1.8M542.3 1046.9l1-2.4M545.1 1041.1l0.1-0.3 0.7-1.4 1.3-2.5M218.2 1036.8l-1.2-2.2M746.5 901.8l1.2-2.4M211.1 1035l-0.7-1.3M83.9 886.9l-1.5 2.5-1.2 1.8-0.8 1-1.3 1.2-1.7 1.5-1.2 1-0.8 0.6-1.6 0.9-2.5 1.4-1.8 1M99.8 935.7l0.1 0 1.4 0.5 2.5 0.9 2.5 1.1 2.5 1.3 1.4 0.8 0.3 0.2 1.3 0.9 2.1 1.4 1.7 1.3 1.3 1 1.2 1.1 1.3 1.1 1.3 1.3 1.5 1.4 1.2 1.2M161 968.9l2.1 1.2M265.3 1038.9l0.5 1.2 0.5 1.8M267 1046.9l-0.2 2.5M316 1039l-1.1 1.3-0.2 0.2-1.1 1.4-2 2.5-1.2 1.5-0.3 0.4-0.7 1.3-1.1 2M395.2 900.7l-0.1 0.2-1.1 1.2M350.1 1037.1l-0.4 1.2M708.6 886.9l-0.9 2.5-0.8 2.5-0.8 2.5-0.6 2-0.3 1.5-0.3 1.3M715.4 1036.9l0.5 2.5M751.7 899.4l-0.9 1.8M206.6 1036.9l1.1 2.5M431.1 1036.5l1-2.1M646.9 1036.9l0.2 2.5M97.2 886.9l-0.6 2.5-0.6 2.5-0.6 2.5-0.4 1.4 0 0.2-0.2 1.3-0.4 2.2-0.3 2.4-0.3 2.5-0.4 2.5-0.5 2.5-0.7 2.5-0.9 2.5-0.6 2.5-0.4 2.5 1.1 2.4 2.4 2.4 1.2 1.3 0.1 0.1 1.3 0.7 2.4 1.4 2 1.2 1.5 1.2 1.3 0.8 0.9 0.4 1.8 1 2.5 1.6 1.5 1 0.7 0.5 1.3 0.9 1.8 1.2 1.7 1.2 1.7 1.3 1.2 1 0.9 0.7 1.4 1.3 2 1.8 1.2 1.1 0.5 0.5 1.4 1.2 2.2 2 1.3 1.2 0.3 0.2 1.4 1.1M161.3 963.2l2.5 1.3M271.4 1039.7l0.8 2.2M272.8 1044.4l0.4 2.5 0 2.5M307.2 1039.4l-1.2 1.7-0.7 0.9-0.8 1.3-1.1 1.6-1.1 2-1.1 2.5M400.6 900.9l-0.4 0.5M355.5 1036.6l-0.3 2M705.1 886.8l-0.5 1.2-0.7 1.8-0.7 2.1-0.9 2.5-0.6 2.5-0.5 2.5M708.7 1036.9l0.7 2.5M755.1 900.7l-0.1 0.1-0.6 1.2M758.2 1034.4l0.5 2.5M775.7 946.4l-0.5 1.6-0.3 1.3-0.3 0.9M774.9 951.6l0.6 1.2 1 1.9M201.6 1036.9l0.9 2.5M426.9 1036.9l1.1-2.5M654.9 1036.5l0.4 1.2M113 886.9l-0.3 2.5-0.8 2-1.3 1.6-0.8 1.2-0.4 1-0.6 1.7-0.8 2.5-0.8 2.5-0.5 2.5-0.5 2.5-0.5 2.5-0.3 2.5-0.3 2.4-0.1 1.3 0 0.1 0.2 1.3 0.3 2.4 0.8 2.5 1.4 2.5 1.1 1.6 0.8 0.8 1.3 1.2 1.7 1.8 1.3 1.1 0.7 0.6 1.5 1.2 2.3 2 1.3 1 0.2 0.2 1.4 1.2 2.5 2.1 1.3 1.2 0.2 0.2 1.2 1.1 2.3 2.1 1.5 1.2 0.5 0.4 1.2 1 2 1.5 1.9 1.3 1.8 1 1.2 0.6M161.3 958.3l2.5 1.3M405.5 900.9l-0.3 0.4M359.6 1036.9l-0.3 2.5M701.5 886.9l-1 2.4-0.5 1.2-0.1 0.1-0.5 1.3-0.9 2.5-0.7 2.5-0.5 2.5M702.2 1036.9l0.7 2.5M758.8 901.9l-1.3 2.5M775.7 936.9l1.5-0.8M162 1001.2l2 1M196.8 1036.9l0.8 2.5M282.8 1049.4l-0.8-2.5-0.8-1.8-0.8-1.2-0.6-1.3-0.5-1.3-1-1.9-1.5-2.5M298 1039.8l-1.2 1.7-1.2 1.8-1 1.3-0.7 0.7-1.1 1.6-1.5 2.5M423.2 1036.9l0.8-2M661.2 1036.9l1 2.5M763.2 1031.9l-0.2-2.5M163.6 955l1.2 0.7M409 902.2l-1.9 2.3M665.1 900.7l-0.1 0.1-1 1.2M666.3 1035l1.1 1.9M761.4 906.4l-0.9 1.4M164.1 1005.8l0.6 0.3M166.9 886.9l1.5 2.5 0.7 2.5-0.1 2.5-1.1 2.5-1.9 2.5-1 1.2 0 0.1-1.3 0.8-2.5 1.6-1.8 1.3-1.3 0.8-1.2 0.8-1.3 0.8-1.8 1.1-2.5 1.5-1.6 0.9-0.5 0.2-1.2 0.7-2 1-2.2 0.9-2.5 0.9-2.2 0.8M130.7 924.4l1 2.5 1.7 2.5 1 1.4 0.4 0.4 1.3 1.3 2.2 2.1 1.2 1.2 0.3 0.2 1.5 1 2.5 1.7 1.5 1.2 0.7 0.5 1.3 0.7 1.8 1 2.2 1.2M160.9 948.9l1.9 1.2M260.8 899.4l0.2-2.5M415 900.5l-0.1 0.1-1.1 1.3M366.8 1036.9l0 2.5M644.7 887.5l-0.7 2.1-0.6 2.3-0.4 2.5-0.3 2.5 0 2.5M416.3 1036.8l-0.9 2.2M674.9 887.3l0.3 1.2 0.4 1.4 0.3 2 0.1 2.5-0.2 2-0.5 1.6M677.2 1036.3l1.9 1.3M683.4 1036.3l1.3-0.7M687 896.9l0.9-2.4 1.4-2.2 0.7-1.3 0.1-0.2 0.9-1.4 1.5-2.5M187.8 1036.9l0.5 2.5M774.6 976.6l1.4 1.2M176.2 886.9l1.2 2.5 0.7 2.5 0.2 2.5-0.5 2.5-1.2 2.5-0.8 1.5-0.5 0.5-1.5 1.2-2.5 2M168.7 906.4l-2.5 1.5-2 1.3-1.5 1-1.2 0.8-1 0.8-1.6 1.2-2.2 1.8-1.2 1-0.3 0.4-1.2 1.3-2.1 2.1-1.2 1.6-0.5 1.1-0.6 1.3-0.7 1.4-0.1 1.9 0.5 2.5 0.3 1.4 0.3 0.3 0.7 1.3 1.2 2.2 1.3 1.7 1.3 1.2M159.3 942.3l1.5 1.2M255.7 899.4l-0.2-2.5M419.9 900.2l-0.2 0.3-1.2 1.4M603 886.9l-0.9 2.5-0.9 1.5-0.8 0.5-1.6 0.6-2.5 0.6-2.5 0.4M568.8 899.4l-2.5 0.7-1.4 0.4-0.3 0.1M635.4 896.9l0.5-2.5 0.8-2.5 1-2.5 1.1-2.5M370.4 1036.9l-0.2-2M412.7 1036.9l-0.9 2.5M183.1 886.9l1.2 2.5 0.6 1.5 0.1 0.5 0.2 1.2 0.3 2.1 0 1.6-0.3 1.3-0.4 1.2M160.3 920.9l-0.2 0.5-0.5 1.3-0.9 2-0.4 2.2 0.1 2.5 0.5 2.1 0.7 1.8 0.5 1.2 0.3 0.8M250.1 899.5l-0.4-1.2-0.6-1.8M424.9 900.3l-0.2 0.2M500 900.8l0.1-0.1 0-0.1-0.1-0.2-0.9-1.3M623.8 887.8l2.5 0.1M164.1 1017.5l1.7 1.3M374.2 1036.9l-0.4-2.5M409.1 1036.9l-1 2.5M243.5 901.3l-1.3-1.7M428.8 902.1l1.3-1.3M196.7 886.9l1.5 2.5 1 2 0.5 1.6 0.5 1.2 0.5 1 0.3 1.7 0.2 2.5M226.3 897.6l-1.6-1.2-0.5-0.5-1.1-1.5-1.6-2.5-1-1.7-0.3-0.9-0.5-1.3M383.9 1036.7l-0.8-2.3M400.1 1036.3l-0.9 1.2M439.5 899.8l1.8-0.8M467.4 900.1l1.3 1" stroke-width="0.60"/><path d="M895.8 896.9l-0.5 2.5 0 2.5 0.5 2.5 0.8 2.5 1.1 2.5 1 2.1M870.9 887.6l-1.3 1.3-0.8 1.2-0.8 1.8-0.8 2.5-0.5 2.5-0.3 2.5M903.8 1042l-2.5 1-1.9 1-1.2 1.1-1.1 1.8-1 2.5M486.5 1039.5l0.6 2.4M569.1 1040.6l0.6-0.2 0.4 0 0.3 0.2 0.4 1.3 0.5 2.5-0.2 1.7-0.7 1-1.5 1.3-2.1 1.5-1.2 0.8-0.4 0.2-0.4 0-0.5-0.2-0.5-1.3-0.7-2.5 0.2-2.1 1.1-1.6 1.5-1.2 1.9-0.9 1.3-0.5M739.9 895.6l0.1-0.1 0.6-1.3 1.2-2.4 1.2-2.2M851.9 886.9l1.5 2.5 1 2 0.4 1.4 0.4 1.2 0.3 1.1M876.3 1045.4l2.5-0.1 1.3 0 0.3 0.2 1.3 0.8 2.2 1.3 1.4 1.3 0.6 1.2M495.1 1040.2l0.2 0.3 0.4 1.4 0.7 2.5 0.5 2.5 0.1 2.5M549.8 1050.5l0.1-0.4 0.4-1.2 0.7-2.2 1-2.3 1.2-2.5 0.9-1.7M587.8 1039.4l-0.2 2.5-0.8 2.5-0.8 1.7-0.7 0.8-0.9 1.2-1.3 1.7M334.8 900.3l1.5-0.5 2.5-0.9M356.3 899.6l2.5 0.7 1.2 0.3M93.6 955.3l0.9-0.6 1.8-0.4 2.5-0.1 2.2 0.3 1.9 0.8 1.2 0.7 0.6 0.6 0.8 1.3 1.1 1.8 0 1.9-1.1 1.9-1.7 1-2.5 0-2.5-0.7M245.9 1039.4l0 2.1M46.4 886.9l-0.2 2.5-0.3 2.1-0.6 1.7M744.4 897.2l0.7-1.2 0.1-0.2 0.6-1.4 1.1-2.5 1.2-2.5 1.2-2.5M844.6 888.2l0.6 1.2 0.5 0.8 0.7 1.7M440.3 1037.7l0.5-1.4M511.5 1041.9l1 2.5 0.7 2.5 0.6 2.5M541.4 1049.4l0.9-2.5M543.3 1044.5l1.1-2.2 0.7-1.2M602 1039.4l0.1 2.5M376.3 900.2l0.4 1.7M94.2 945.6l0.5 0 0.4 0 0.2 0 1.3 0.2 2.3 0.4 2.4 0.6 2.5 1 2.2 1 2.1 1.2 1.3 0.8 0.4 0.4 1.3 1.2 2.2 2.2 1.2 1.3 0.3 0.5 0.9 1.3 1.3 2 1.2 2.2 1.1 2.5 0.6 2 0.1 1.4 0.1 1.3 0.1 1 0 0.6-0.1 0.2-1.3 0.9-2.5 1.8-2.5 1.1M88.8 946.4l2.2-0.5 2-0.2 1.2-0.1M253.8 1039.4l0.5 2.5 0 2.5-0.7 2.5-1.5 2.5-1.1 1.6M708.7 899.4l-0.4 2.5M258.7 1036.7l0.9 1.9M69.5 899.8l-1.1 0.6-1.2 0.6-1.5 0.5-1.9 1-2.5 1.2-1.7 1-0.9 0.6-1.3 0.9-1.6 1.1-1.6 1.2M76.3 933.9l2.5-0.1 2.5-0.1 2.5-0.1 2.5 0 2.5 0.1 2.5 0.2 2.5 0.3 2.4 0.5 2.3 0.6 1.3 0.4M123.4 951.2l1.1 1.1 1.3 1.3 1.5 1.4 1.3 1.1 0.9 0.9 1.7 1.3 2.5 1.6 1.3 0.8 1.3 0.5 2.5 1.1 2.5 0.8 2.5 0.6 2.5 0.6 2.5 0.4M266.3 1041.9l0.5 2.5 0.2 2.5M314.3 899.6l0 2.1M395.8 899.4l-0.6 1.3M349.7 1038.3l-0.5 1.6M757.2 886.9l-1 2.5-0.7 1.7-0.3 0.8-0.6 1.2-0.7 1.7-1 2.1-1.2 2.5M753.7 1036.9l0.6 2.5M832.9 886.9l0.7 2.5M161.3 992.4l2.5 1.1M430.4 1038.2l0.7-1.7M131.3 952.1l2.5 1.7 1.7 1.1 1 0.5 1.3 0.6 1.5 0.6 2 0.7 2.5 0.7 2.5 0.6 2.5 0.5 2.5 0.6M272.2 1041.9l0.6 2.5M401.5 899.4l-0.9 1.5M355.2 1038.6l-0.3 1.3M761.4 886.8l-0.9 2.2-0.6 1.2-0.1 0.3-0.6 1.4-1 2.5-1.2 2.5-1.3 2.5-0.6 1.3M827.7 886.9l0.6 2.5M776.5 954.7l1.2 1.5M161.3 997l2.5 1.2M655.3 1037.7l0.6 2M64.7 915.6l0.2-0.1 1.4-0.2 2.5-0.3 2.3 0.1 2.2 0.4 1.2 0.3 0.3 0.3 1 1.2 1.7 2.2 0 1.5-1.7 0.7-2 0.7-2.5 0.6-2.5 0.1-2.5-0.4-2-0.6M64 916.9l0.7-1.3M138.9 950.8l0.7 0.4 1.7 0.6 2.5 0.8 2.5 0.7 2.5 0.6 2.4 0.7 2.4 0.7 1.3 0.4M158.8 957.2l2.5 1.1M272.6 899.4l1-2.5M406.5 899.4l-1 1.5M765.4 888.2l-0.5 1.3-0.3 0.8-0.8 1.6-1.1 2.5-1.1 2.2M759.9 899.9l-0.3 0.5-0.8 1.5M776.2 963.6l2.5 1.4M265.9 901.9l0.1-2.5M650.3 900.2l0.9 1.7M665.6 899.4l-0.5 1.3M693 899.4l-0.2 2.5M695 1035.5l0 0.1 0 0.1M773.8 931.3l1.2-0.6M773.8 969l1.7 0.9M151.3 943.3l2.5 1.5 1.2 0.7 0.1 0.1 1.3 0.7 2.4 1.3 2.1 1.3M261 896.9l0.5-2.5M262.2 891.9l0.8-2.5 1-2.5M415.9 899.3l-0.9 1.2M679.1 1037.6l2 0 2.3-1.3M161.3 1007.7l2.5 1.4M776.3 922.9l-2.5 0.8M768.3 906.9l1.1-1.6M776 977.8l2.1 1.9M776.5 1005.9l-1 0.5-1.7 0.1M154.4 937.5l1.1 1.2 1.1 1.3 1.3 1.2 1.4 1.1M255.5 896.9l0-2.5 0-2.5-0.1-2.5-0.2-2.5M420.9 899l-1 1.2M526.8 899.5l-1.2-2.2M593.8 893l-2.5 0.3-2.5 0.4-2.5 0.5-2.1 0.6-1.6 0.6-1.2 0.4-0.9 0.2-1.7 0.5-2.5 0.7-2.5 0.8-2.5 0.7-2.5 0.7M161.4 1011.4l2.4 1.5M183.1 1036.9l0.5 2.5M249.1 896.5l-0.8-2.1-1-2.5-0.9-2-0.9-1.4-1-1.2M426.1 899l-1.2 1.3M499.1 899.1l-1.9-2.3M162.4 1016.3l1.7 1.2M177.4 1034.4l0.7 2.5M192.2 899.4l-0.6 2M399.2 1037.5l-1.6 2.1M441.3 899l2.5-1 2.5-0.8M463.8 898.1l2 1 1.6 1" stroke-width="0.75"/><path d="M16 887.9l-2.2 1.3-2.3 1-1.2 0.5-0.2 0-1.3 0.3-2.5 0.6-2.5 0.5-2.5 0.6-2.5 0.8-2.5 1.1M24.1 887.2l-1.9 2.3-1.2 1.4-0.7 0.5-1.5 0.8-2.5 1.3-2.5 1-2.3 0.8-1.3 0.4-0.1 0-1.3 0.4-2.5 0.6-2.5 0.8-2.5 0.8-2.2 0.9-1.7 1-1.3 0.7M898.7 911.5l0.9 1.7 0.6 1.3 0.3 0.8 0.7 1.6 1.1 2.5 1.1 2.4M903.8 944.5l-2.5-0.7-2.5-0.1-2.5 0.4-2.4 0.5-2.2 0.7-1.2 0.4-0.3 0.2-1.4 1.3-2.5 2.3-0.9 2.4 0.6 2.5 1.2 2.2 1.9 1.8 1.3 1.2 0.7 0.7 1.2 0.9 1.8 1.2 2.1 1.2 2.5 1.4 1.2 0.7 0.1 0 1.3 0.2 2.5 0.3M476.4 1036.9l1.6 2.5M462.1 1036.8l1.2-1.5M34.7 887.5l-0.7 2.1-1.2 2.3-1.8 2.5-1 1.3-1.2 0.8-2.5 1.6-2.3 1.3-2.1 0.8-1.2 0.5-0.5 0.2-1.4 0.5-2.5 0.7-2.5 0.7-2.5 0.7-2.5 0.8-2.5 0.9-1.3 0.5-1.2 0.6-2.5 1.2-2.4 1.2-2.1 1.3M866.4 899.4l-0.2 2.5 0 2.5 0.1 2.5 0.3 2.5 0.2 2.5 0.4 2.5-0.1 2.5-0.4 2.5-0.6 1.6-0.7 0.7-1.6 1.3-2.4 1.8-1.2 0.9-0.1 0-1.3 0.5-2.5 1-2.5 1-2.5 1-1.8 0.8-0.9 0.4-1.3 0.6-1.5 0.8-2 1.1-2.5 1.5-1.4 0.9-0.3 0.2-1.3 1.2-2.2 2.2-1.2 1.2-0.3 0.4-0.9 1.4-1.3 2.5-0.9 2.5-0.3 2.5 0.2 2.5 0.9 2.5 1 2.1 1.1 1.7 0.9 1.2 0.7 0.8 1.2 1.5 1.9 2.1 1.1 1.3 0.4 0.4 1.2 1.3 2.1 2.3 1.2 1.2 0.3 0.2 1.3 1 2.2 1.6 2.3 1.2 2.4 0.9 1.3 0.5 0.1 0 1.3 0.1 2.5 0.2 2.5 0.1 2.5-0.1 2-0.1 1.6-0.2 1.3-0.1 0.9-0.1 1.7 0 2.5-0.1 2 0 1.7 0.2 1.2 0.1 0.9 0.1 1.7 0.4 2.5 0.7 2.5 0.9 2.5 1.3 1.6 0.8 0.8 0.5 1.3 0.9 1.7 1.2 1.7 1.3 1.8 1.2 1.2 1 0.7 0.6 1.7 1.1 2.5 1.5M53.1 1049.4l-0.5-2.5 0-2.5 0.6-2.5 0.7-1.9 0.7-1.2 1-1.3 1.3-1.2 1.3-1 1.2-0.8 1.9-0.2 2.5 0.4 1.4 0.4 0.4 0.4 0.9 1.4 1.4 2.5 0.8 2.5 0.2 2.5-0.4 2.5-0.8 2.5M452.2 1039.4l0.8-2.5M487.1 1041.9l0.3 2.5-0.3 2.5-0.9 2.5-0.6 1.5M40.1 887.2l-0.2 1.2-0.3 1.5-0.7 2-1.1 2.5-1.2 1.8-1.1 1.2-1.3 1.3-1.7 1.3-1.2 0.9-0.9 0.5-1.6 0.7-2.5 1-2.5 0.9-2.5 0.7-1.8 0.5-1.1 0.3-1.2 0.3-1.5 0.4-1.9 0.6-2.5 0.7-2.5 0.9-2.5 1-1.7 0.7-0.8 0.4-1.2 0.6-1.7 1-2.1 1.2-2.5 1.5M855.5 895.1l0.3 1.8 0.3 2.5 0.1 2.5-0.1 2.5-0.2 2.5-0.3 2.5-0.3 1.6-0.2 0.6-0.4 1.2-0.7 1.9-1.3 2-1.8 2.2-1.1 1.2-0.3 0.4-1.2 1-2.2 1.6-1.6 1.3-1.1 0.8-1.2 0.9-1.5 1-1.6 1.3-1.9 1.5-1.3 1-0.6 0.5-1.3 1.3-2.1 2-1.3 1.2-0.4 0.5-1 1.2-1.7 2-1.2 1.8-0.9 1.6-0.7 1.2-0.5 1-0.5 1.7-0.4 2.5 0 2.5 0.6 2.5 0.5 1.6 0.4 0.7 0.8 1.2 1.1 1.9 1.3 1.7 1.3 1.5 1.1 1.3 0.8 0.9 1.2 1.5 1.7 2.1 1.1 1.2 0.3 0.4 1.2 1.5 2 2.5 1.1 1.3 0.1 0.2 1.3 1.3 2.3 2.3 1.2 1.2 0.2 0.2 1.4 0.8 2.5 1.5 2.5 1.1 2.5 0.7 1.9 0.5 1.5 0.1 1.2 0.1 1.1 0.1 1.6 0 2.3-0.1 1.2 0 0.3-0.1 1.4-0.1 2.5-0.2 2.5-0.2 2.5-0.1 2.5 0.1 2.5 0.3 1.3 0.2 0.1 0 1.2 0.6 2.4 1 2.1 1.3 1.9 1.4 1.2 1.1 0.7 0.8 1 1.2 1.3 1.8 1.2 2 1.2 2.2 0.7 1.2 0.2 0.3 0.7 1.4 1.4 2.5 1.1 2.2 1 1.9 0.8 1.2 0.6 0.6 1.3 1.4M903.8 1026.7l-2.5 1.2-2.2 1.1-1.9 1.1-1.3 0.7-0.6 0.2-1.5 0.7-2.5 0.9-2.5 0.7-2.5 0.5-2.5-0.2-2.5-0.6-2.2-0.9-1.7-0.9-1.2-0.7-0.8-0.2-1.6-0.6-2.5-0.8-2.5-0.6-2.5-0.5-2.5-0.3-2.5 0-2.5 0.2-2.5 0.5-2.5 0.8-2.4 1.1-1.2 0.6-0.1 0.1-1.1 1.2-1.9 2.4-1 2.5-0.2 2.5 0.8 2.5 1.7 2.5 1 1.4 0.4 0.3 1.5 0.6 2.5 1.1 2.5 0.7 2.5 0.2 2.5-0.1 2.5-0.5 2.5-0.5 2.5-0.7 2.4-0.5 2.3-0.5 1.3-0.3 0.1-0.1 1.4-0.1M-3.9 1049.4l2.3 0.8 1.3 0.5 0.2 0.1M42.3 1049.4l0.3-2.5 0.5-2.5 0.8-2.5 0.6-1.6 0.3-0.6 0.7-1.3 1-1.8 1.2-2.1 1.5-2.2 0.9-1.3 0.2-0.2 1.3-1.3 2.3-2.2 1.3-1.3 0.5-0.2 1.2-0.6 2.1-1 2.3-0.3 2.5 0.4 1.7 0.4 0.9 0.6 1.2 0.9 1.6 1.2 1.4 1.3 1.1 1.3 1.3 1.6 1.3 2 0.9 1.2 0.3 0.6 0.7 1.5 0.9 2.5 0.7 2.5 0.4 2.5 0.2 2.5 0 2.5M445.5 1039.4l0.9-2.5M338.8 898.9l2.5-0.5 2.5-0.2M351.3 898.6l2.5 0.4 2.5 0.6M98.8 963.8l-2.5-1.4-1.6-1-0.5-0.5-0.5-1.5-0.4-2.5 0.3-1.6M245.9 1041.5l-0.6 1.6-0.8 1.2-0.9 0.9-1.2 0.7-1.6 0.6-2 0.1-2.5-0.5-1.4-0.2-0.2-0.2-1.3-1M228 1039.4l-1.7-2.5M45.3 893.2l-0.4 1.2-0.3 0.9-1 1.6-1.8 2.5-1.1 1.5-0.5 0.4-1.4 1.2-2.5 1.7-1.6 1.1-0.5 0.2-1.3 0.5-1.9 0.8-2.2 0.8-2.5 0.6-2.5 0.6-2.5 0.5-2.5 0.5-2.5 0.5-1.4 0.3-0.1 0-1.2 0.5-2.4 0.8-2.4 0.9-2.5 1.1-1.9 0.8-1.1 0.7-1.2 0.7-1.4 0.8-1.9 1.3-2.5 1.6M846.4 891.9l0.8 2.5 0.6 2.5 0.3 2.5 0.1 2.5-0.2 2.5-0.4 2.5-0.7 2.5-0.7 1.9-0.8 1.4-0.7 1.3-0.6 1.1-1.3 1.6-1.9 2.1-1.1 1.3-0.3 0.4-1.2 1.2-2.2 2-1.3 1.3-0.4 0.4-1.3 1.2-2.1 2-1.3 1.2-0.5 0.6-1.2 1.3-2 2.1-1.2 1.2-0.4 0.4-1.3 1.5-2 2.5-1 1.3-0.1 0.1-0.7 1.2-1.5 2.4-1 2.5-0.7 2.5-0.1 2.5 0.4 2.5 0.9 2.5 1.5 2.5 0.8 1.4 0.3 0.2 1.1 1.3 1.9 2.2 1.3 1.4 0.5 0.6 1.2 1.2 1.7 2 1.3 1.4 0.7 0.9 1 1.2 1.3 1.6 1.3 1.7 1.2 1.5 1 1.3 0.7 0.9 1.3 1.5 1.7 2.2 1.1 1.2 0.3 0.4 1.3 1.1 2.1 1.9 1.6 1.3 1.1 0.6 1.2 0.7 1.5 0.8 2 0.7 2.5 0.7 2.5 0.5 2.5 0.3 2.5 0.2 2.5 0.1 2.5 0.1 2.5 0.1 2.5 0.2 2.5 0.5 1.3 0.2 0.2 0.1 1.3 0.8 2.3 1.4 1.6 1.3 0.9 1 1.1 1.8 1.2 2.5 0.8 2.4 0.3 2.2 0.2 1.2 0.1 0.3 0 0.2-0.1 0.2-0.4 1.3-0.9 2.3-1.2 1.7-1.7 1.2-2 0.9-2.5 0.5-2.5 0.3-2.5 0.1-2.5 0-2.5 0-2.5 0.1-2.5 0.2-2.5 0.2-2.5 0.5-1.5 0.3-0.4 0.1-1.3 0.4-2.1 0.6-2.2 0.9-2.5 1.1-1.9 1-1.1 0.7-1.3 1-1.3 1.1-1.3 1.3-1.1 1.3-1.1 1.9M-3.7 1043.4l2.5 1 1.6 0.7 0.7 0.4 1.2 0.6 1.8 0.8 2.2 1.1 2.5 1.3 1.6 0.8 0.7 0.4M32.6 1049.4l1.1-2.5 0.8-1.5 0.3-0.5 0.7-1.3 1-1.9 1.2-2.3 1.5-2.5 0.8-1.3 0.8-1.2 1.6-2.5 1.2-1.9 0.9-1.3 1-1.3 0.9-1.2 1.2-1.5 1.6-2 1.1-1.2 0.6-0.6 1.2-1.2 1.9-1.9 1.7-1.2 1.4-0.6 1.2-0.7 1.1-0.7 1.9 0 2.5 0.7 1.2 0.3 1.3 1 2.5 1.9 1.5 1.2 0.5 0.6 1.3 1.4 1.9 2.1 1.2 1.2 0.3 0.4 1.2 1.5 2 2.5 1 1.4 0.2 0.3 0.8 1.2 1.5 2.2 1.3 2.3 1 2.3 0.5 1.3 0.1 0.2 0.4 1.3 0.6 2.5 0.4 2.5 0.2 2.5M439.8 1038.9l0.5-1.2M602.1 1041.9l-0.2 2.5-0.6 2.4-0.9 2.4-0.4 1.2-0.1 0.2M375.4 899.3l0.9 0.9M327 899.4l1.8-2.5M28.4 945.4l1.1-0.5 1.8-0.6 2.5-0.5 2.5 0.2 2.5 1 1.2 0.6 0.1 0 0 0.1-0.1 0.1-1.2 1.1-2.5 2.1-1.6 1.2-0.7 0.3-1.3 0.3-1.8 0.2-1.6 0-1.5-0.2-0.5-1.4 0.4-2.5 0.7-1.5M113.8 974.7l-2.5 0.4-2.5 0.2-2.5-0.2-2.5-0.3-2.5-0.5-2.5-0.7-2.5-0.9-2.1-0.8-1.5-0.8-1.3-0.8-0.9-0.6-1.5-1.3-2.1-1.8-1.3-1.2-0.4-0.5-1-1.2-1.7-2-1.2-2-0.9-1.9-0.6-1.2-0.3-0.6 0-1.2 0.3-1.6 0.3-1.3 0.2-0.8 1.3-1.2 2.3-1.4 2.4-1.2 2.5-0.9M219.4 1039l-1.2-2.2M734.7 1039.1l1.6-0.1 2.5 0.8M435.8 1036.2l0.8-1.8M387.2 901.8l-1.5 2.3M320.1 901.9l0.4-2.5M54.2 908.5l-1.6 1.5-1.3 1.1-0.9 1-1.1 1.3-1.3 1.5-1.1 2-0.7 2.5 0.3 2.5 1.3 2.5 1.1 1.5 0.7 0.6 1.7 1.1 2.5 1.9 1.3 0.9 0.3 0.2 1.3 0.5 2.2 1 2.4 0.8 2.5 0.6 2.5 0.3 2.5 0.2 2.5 0.1 2.5-0.1 2.5-0.1M148.8 964.7l2 0.4 1.5 0.4 1.2 0.3 1 0.3 1.8 0.7 2.5 1 2.2 1.1M349.2 1039.9l-0.8 2-1.3 2.5-1 2-0.7 1.4-0.7 1.2-0.7 1.1M833.6 889.4l0.6 2.5 0.5 2.5 0.3 1.4 0 0.1 0.1 1.3 0.1 2.3 0 1.5-0.1 0.8-0.2 1.2-0.3 1.8-0.6 2.1-0.9 2.5-1.1 2.4-1.3 2.3-0.7 1.3-0.1 0.2-1 1.3-1.8 2.5-1.2 1.6-0.6 0.7-1.1 1.3-1.5 1.8-1.3 1.3-0.9 1-1.3 1.3-1.5 1.5-1.3 1.2-0.9 0.9-1.4 1.3-1.8 1.6-1.3 1.1-0.7 0.7-1.5 1.2-2.3 1.8-1.2 1.1M809.2 967.8l1.4 1.3 1.2 1 1.3 1.1 1.3 1 1.4 1.3 1.6 1.4 1.3 1.2 0.9 0.8 1.2 1.2 1.5 1.7 1.2 1.4 1 1.2 1 1.2 1 1.4 1.2 1.8 1.5 2.3 0.9 1.3 0.1 0.2 0.7 1.3 1.3 2.5 1.2 2.5 0.9 2.5 0.4 2.5 0 2.5-0.8 2.5-1.6 2.5-1.1 1.6-0.8 0.7-1.4 1.2-2 1.8-1.3 1.2-0.5 0.4-1.4 1.2-2.5 2.1-1.3 1 0 0.1-1.3 1.2-2.5 2.5M-3 970.1l2-1.1 2.3-0.9 2.5-0.7 2.5-0.6 2.5-0.3 2.5-0.1 2.5 0 2.5 0 2.5 0.1 2.5 0.1 2.5 0 2.5 0 2.5-0.2 2.5-0.1 2.5-0.2 2.2-0.2 2.1-0.2 1.2-0.1 0.5 0 1.5 0 2.5 0 1.4 0 0.5 0 1.3 0.3 2 0.5 2.3 1.1 2.5 1.9 1.3 1 0.1 0.2 0 0.3-0.1 0.4-0.4 1.3-0.6 2-1.2 2.3-1.9 2.3-1 1.3-0.1 0.1-0.9 1.3-1.7 2.5-1.2 1.9-0.7 1.4-0.7 1.3-0.5 1.1-0.5 1.8-0.6 2.5-0.4 2.5-0.1 2.5-0.1 2.5-0.2 2.5-0.3 2.5-0.6 2.5-0.5 1.9-0.6 1.3-0.6 1.3-0.5 1.2-1.1 1.8-1.5 2.5-0.9 1.6-0.5 0.7-0.9 1.2-1.4 1.8-1.2 1.6-1.1 1.4-1.2 1.2-1.2 1.2-1.3 1.2-1.3 1.1-1.7 1.3-2.3 1.3-1.3 0.7-0.2 0.1-1.3 0.2-2.5 0.3-2.1-0.1-1.7-0.3-1.3-0.4-0.8-0.2-1.6-0.8-2.5-1.4-2-1.2-1.3-0.8-1.2-1-1.2-1.2-1.3-1.2-1.5-1.4-1.3-1.4M105 1050.3l0-0.8 0-1.3-0.1-1.7-0.2-2.1-0.4-2.5-0.8-2.5-1-2.5-1-1.9-1-1.4-1-1.3-1-1.1-1.2-1.2-1.5-1.2-1.6-1.2-1.5-1.3-1.3-1-0.9-0.7-1.5-1.2-2-1.8-1.2-1.2-0.5-0.5-1.1-1.3-1.7-1.9-1.3-1.7-0.8-1.3-0.7-1.2-0.7-1.2-0.7-1.9-0.7-2.5-0.4-2.5 0-2.5 0.3-2.5 0.6-2.5 0.7-2 0.8-1.6 0.7-1.3 0.7-0.9 1.2-1.2 1.9-1.6 2.2-1.1 2.5-0.7 2.5-0.4 2.5 0 2.5 0.1 2.5 0.3 2.5 0.4 2.5 0.5 2.5 0.4 2.5 0.4 2.5 0.4 2.5 0.3 2.5 0.1 2.5 0 2.5-0.1 2.5-0.2 2.5-0.3 2.5-0.3 2.5-0.3 2.5-0.2 2.5-0.1 2.5 0 2.5 0.1 2.5 0.2 2.5 0.3M647.1 1039.4l0.1 2.5M151.3 959.7l2.5 0.6 1.2 0.3 0.1 0 1.3 0.5 2.4 1 2.5 1.1M306.1 899.4l0.4 2.5M354.9 1039.9l-0.1 0.5-0.5 1.5M352.4 1046.9l-1.1 2.5M758.7 1036.9l0.4 2.5M828.3 889.4l0.4 2.5 0.4 2.5 0.2 2.5 0 2.5-0.2 2.5-0.4 2.5-0.6 2.5-0.8 2.5-0.9 2.1-0.9 1.7-0.7 1.3-0.4 0.8-1.1 1.6-1.7 2.5-1.1 1.5-0.3 0.3-1.2 1.3-1.9 2.1-1.2 1.3-0.6 0.6-1.4 1.2-2.3 2-1.3 1-0.2 0.2-1.3 1-2.5 1.7-2 1.2-1.3 0.6M777 944.7l-1.3 1.7M777.7 956.2l1.5 1.2M809.5 977l1.5 1.2 2 1.6 1.2 1.1 0.5 0.4 1.3 1.3 2 2 1.2 1.4 0.5 0.6 0.9 1.3 1.3 1.8 1.1 2.2 1.1 2.5 0.7 2.4 0.1 2.2 0.1 1.2 0 0.3 0 0.2 0 0.1-0.5 1.2-0.9 2.4-1.2 2.2-1.6 2-1 1.3-0.5 0.5-1.2 1.2-2.1 2-1.3 1.2-0.5 0.6-1.3 1.3-1.9 2-1.2 1.2-0.4 0.5M-3.7 979.1l2.5-1.8 1.5-1.1 0.7-0.4 1.3-0.5 1.8-0.7 2.2-0.6 2.5-0.5 2.5-0.3 2.5-0.1 2.5 0.1 2.5 0.1 2.5 0.2 2.5 0.3 2.5 0.4 2.5 0.4 1.9 0.4 1.3 0.4 1.3 1.4 1.1 2.2 0.6 1.2 0.1 0.3 0 0.3-0.1 0.2-0.4 1.3-0.7 2.2-0.8 2.4-1 2.5-0.9 2.5-0.7 2.5-0.4 1.6-0.1 0.6-0.1 1.3-0.3 1.8 0 2.2 0.2 2.5 0 2.5-0.3 2.5-0.8 2.5-1.2 2.5-1 1.9-1 1.4-1.4 1.2-1.7 1.2-1.3 0.7-0.7 0.4-1.2 0-1.5-0.4-1.3-0.5-0.9-0.8-0.8-1.2-0.7-1.8-0.7-2.1-0.7-2.5-0.9-1.9-1.1-1.2-1.3-1.2-1.5-1.3-1.2-0.9-1.1-0.4-1.7-0.9-2.5-1.3-2-1-1.3-0.8-1.3-0.7M112.9 1039.4l-1-2.5-0.8-2.1-0.7-1.8-0.6-1.3-0.4-0.7-1-1.6-1.6-2.5-1.1-1.5-0.5-0.6-1.4-1.1-2.5-1.8-1.4-1-0.3-0.2-1.2-0.7-2.3-1.3-2-1.2-1.7-1.2-1.3-1-0.7-0.6-1.2-1.3-1.5-1.8-1.2-2.1-1-2.3-0.5-1.3-0.1-0.2 0-0.4 0.1-0.7 0.1-1.2 0.2-1.8 0.9-2.2 1.7-2.5 1.2-1.5 0.6-0.4 1.6-0.6 2.5-0.7 2.5-0.4 2.5 0.1 2.5 0.2 2.5 0.4 2.5 0.4 2.5 0.4 2.5 0.2 2.5 0.1 2.5 0 2.5-0.3 2.5-0.4 2.5-0.5 2.5-0.6 2.5-0.5 2.5-0.5 2.5-0.3 2.5-0.3 2.5-0.1 2.5 0.1 2.5 0.2M64.3 922.1l-1.5-1 0-1.7 1.2-2.5M154.9 955.7l0.1 0 1.3 0.5 2.5 1M273.6 896.9l0.8-1.5M276.2 893.6l2.5-2 1.3-1 1.3-0.3 2.5-0.6M359.3 1039.4l-0.5 2.5M761.6 896.6l-1.1 2-0.6 1.3M777.2 936.1l1.3-0.7M802.1 930.2l1.9-0.9 2.2-1.2 2.3-1.6 1.3-0.9 0.1-0.1 1.3-1.3 2.5-2.4 1.3-1.1 0-0.1 0.9-1.2 1.8-2.5 1.2-1.9 0.7-1.4 0.7-1.3 0.5-1.1 0.7-1.8 0.7-2.5 0.6-2.5 0.3-2.5 0.1-2.5 0-2.5-0.2-2.5-0.4-2.5-0.4-2.5-0.6-2.5M118.3 1034.4l-0.8-2.5-0.8-2.5-0.7-2.5-0.6-1.9-0.3-1.2-0.3-1.2-0.5-1.3-0.7-1.9-1-2.5-0.8-2.5-0.7-2.5 0.1-2.5 0.8-2.5 1-1.6 1.3-0.6 2-1.1 2.5-1.6 1.4-0.9 0.3-0.3 1.3-0.6 2.1-1 2.4-1 2.5-1 2.3-0.7 2.2-0.6 1.2-0.3 0.3 0 1.5-0.2 2.5-0.2 2.5 0M160.2 1000.3l0.5 0.2 1.3 0.7M662.2 1039.4l1 2.5M763.4 1034.4l-0.2-2.5M810.3 989.7l0.6 0.6 1 1.6 1.4 2.5 0.7 2.5 0 2.5-0.6 2.5-1.2 2.5-1 1.7-0.8 1-1 1.2M138.8 904.5l-2.5 0.4-2.3 0.4-1.9 0.2-1.2 0.2-0.6 0.1-1.5 0.2-2.5 0.5-2.5 0.8-2.5 1-1.8 1-1 0.9-1.2 1.7-1.2 2.5-0.6 2.5 0.1 2.5M410.1 901l-1.1 1.2M649.9 898l0.2 1.3 0.2 0.9M420.1 1035.7l-0.1 0.2-0.4 1.3M695 1035.7l0.2 1.3M162.9 1005.1l1.2 0.7M769.3 1024.4l-0.3-2.5M261.5 894.4l0.7-2.5M421.5 891.3l-1 1.4M417.7 896.9l-1.8 2.4M366.8 1039.4l-0.1 2.5M543.8 897.7l2.5 0.3 2.5-0.1 2.5-0.2 2.5-0.4 2.5-0.5M568.8 892.7l2-0.9 1.5-0.8 1.2-0.8 1-0.9 1.3-1.2M415.4 1039l-0.5 1.3M127.2 1026.9l-0.4-2.5-0.3-2.5-0.2-2.5 0-2.5 0.3-2.5 0.6-2.5 0.9-2.2 1.3-1.8 0.9-1.2 0.6-0.7 1.3-0.9 1.9-1.2 2.2-0.9 2.5-0.7M774 900.3l0.7-0.8 1.6-1 2.5-1.4 2.5-0.6 2.5 0.1 2.5 0.7 2.5 1.3 1.7 1 1.1 0.7 1.3 0.8 1.4 0.8 2 1.1 2.5 1.3 1.4 0.8 0.5 0.4 1 1.4 1.3 2.5 0.1 2.5-1.2 2.5-1 1.5-0.6 0.4-1.5 0.9-2.5 1.1-2.5 0.9-2.5 0.6M769.4 905.3l0.4-0.6 1.1-1.2 1.9-1.9 1.2-1.3M429.6 889.6l-0.7 0.7-1.3 1.2-1.7 1.7-1.2 1.3-0.6 0.8-1.3 1.5-1.9 2.2M131.4 1024.4l-0.3-2.5-0.1-2.5 0.1-2.5 0.6-2.5 0.9-2.5 1-1.8 0.9-1M160.1 1010.6l0.1 0 1.2 0.8M370.5 1039.4l-0.1-2.5M441.3 889l-2 0.7-1.5 0.6-1.3 0.6-1 0.5-1.7 1.1-2.5 1.8-1.4 1-0.3 0.2-1.2 1.3-2.3 2.2M160.4 1014.9l0.8 0.5 1.2 0.9M178.1 1036.9l0.6 2.5M374.5 1039.4l-0.3-2.5M242.2 899.6l-1.5-2.2M405.4 1036l-0.3 0.7M479.6 900.9l0.3 0.4 0.7 1.2M430.1 900.8l0.1-0.1 1.2-1M384.6 1038.7l-0.7-2M446.3 897.2l2.5-0.6 2.5-0.4 2.5-0.1 2.5 0 2.5 0.4 2.5 0.6 2.5 1" stroke-width="0.90"/><path d="M456.8 1050.1l-1.2-1.2-1.2-1.2-1.1-1.4-0.7-1.9-0.5-2.5 0.1-2.5M445.7 1046.9l-0.7-1.2 0-0.4 0-0.6M445 1041.6l0.5-2.2M343.8 898.2l2.5-0.1 2.5 0.2 2.5 0.3M233.4 1044.7l-2.3-1.8-1.4-1.2-0.6-0.7-1.1-1.6M837.2 1031.9l-1 2.5-0.3 2.5 0.2 2.5 0.9 2.5 1.5 2.5 0.9 1.4 0.4 0.3 1.5 1.2 2.5 2.1 1.3 1.1 0.1 0.1M438.5 1046.9l0-2.5M439.3 1040.1l0.5-1.2M371.3 897.2l2.5 1.1 1.6 1M328.8 896.9l1-1.3M228.8 1051l-1.2-1.2-1.7-1.7-1.2-1.2-0.7-0.8-1.2-1.7-1.6-2.5M220.2 1040.5l-0.1-0.2-0.7-1.3M734.2 1040.2l0.5-1.1M738.8 1039.8l1.3 0.5 0.1 0.2 0.3 1.4M712.3 886.9l-0.8 2.5-0.7 2.1-0.5 1.7-0.4 1.2M709.3 896.9l-0.6 2.5M747.7 899.4l1.2-2.5M259.6 1038.6l0.5 1.3M619.2 1036.9l-0.2 2.5M314.8 897.5l-0.5 2.1M397 889.7l0.7 2.2-0.1 2.5-0.6 2.5-1.2 2.5M715.9 1039.4l0.6 2.5M754.3 1039.4l0.4 1.7M755.9 1046.9l0.6 2.5M805.3 940.8l-0.2 0.1-1.3 1-2.5 1.7-2.1 1.2-1.6 0.6-1.2 0.7-0.9 0.9-1.6 1.2-2.2 1.6 0 2.1 2.2 2.4 1.1 1.3 1.3 1 2.5 1.8 1.5 1.3 0.5 0.6 1.3 1.2 1.9 1.6 1.4 1.3 0.8 0.8 1.3 1.2 1.7 1.4M816.2 1024.4l-1.2 1.2-0.8 1.3-1.5 2.5-1.2 2.5-0.9 2.5-0.3 2.5 0.1 2.5 0.9 2.5 1.7 2.5 1.1 1.4 0.6 0.4 1.6 0.7 2.5 1 2.5 1M146.3 988.1l2.5 0.4 2.5 0.5 2.5 0.7 1.6 0.5 0.7 0.3M159.1 991.5l2.2 0.9M207.7 1039.4l1 2.2M211.4 1046.9l1.5 2.5M429.5 1040.3l0.3-0.8 0.6-1.3M647.2 1041.9l-0.2 2.5-0.1 2.5-0.3 2.5M306.4 896.9l-0.3 2.5M403.6 886.9l0.8 2.5 0 2.5-0.6 2.5-0.9 2.5-1.4 2.5M354.3 1041.9l-0.9 2.5-1 2.5M709.4 1039.4l0.4 1.4 0.1 0.4M760.4 1045.1l0.5 1.8 0.7 2.5M803 935.4l-1.3 0.5-1.1 0.6-1.8 0.7-2.5 0.6-2.5 0.5-2.5 0.3-2.5 0.4-2.5 0.4-2 0.5-1.5 0.5-1.2 0.6-1.1 0.5-1.5 1.3-2 1.9M779.2 957.4l1.8 1.3M783.1 960l1.2 0.8 0.5 0.2 1.5 0.7 2.5 1.2 2.2 1.1 2.1 1.1 1.3 0.7 0.4 0.2 1.5 0.9 2.5 1.7 1.6 1.1 0.8 0.6 1.2 1 1.7 1.4 1.6 1.3 1.4 1.1 1.3 1 1.1 0.9M809.4 1020.4l-1 1.5-1.7 2.5-1.1 1.7-0.4 0.9-0.5 1.2-0.7 1.6-0.7 2.1-0.6 2.5-0.5 2.5-0.2 2.5 0.1 2.5 0.4 2.5 0.8 2.2 1.1 1.9M116.1 1049.4l-0.6-2.5-0.4-1.3-0.1-0.2-0.4-1.3-0.8-2.3-0.9-2.4M143.8 991.9l2.5 0.3 2.5 0.4 2.5 0.6 2.5 0.7 2 0.7M158.6 995.8l0.9 0.4 1.8 0.8M202.5 1039.4l1 2.5M425.9 1039.4l1-2.5M655.9 1039.7l0.6 2.2M657.1 1044.4l0.7 2.5 0.8 2.5M274.4 895.4l0.4-0.6 1.4-1.2M283.8 889.7l2.5-0.4 2.5-0.1 2.5 0 2.5 0.1 2.5-0.1 2.5-0.3 2.5-0.5M410.7 886.9l0 2.5-0.2 1.6-0.3 0.8-0.5 1.3-0.6 1.7-1.1 2.1-1.5 2.5M358.8 1041.9l-0.6 2.5-0.7 2.5-0.9 2.5M702.9 1039.4l0.8 2.1M778.5 935.4l1-0.4 1.8-0.5 2.5-0.6 2.5-0.5 2.5-0.3 2.5-0.3 2.5-0.3 2.5-0.4 2.5-0.6 1.5-0.4 0.6-0.3 1.2-0.6M123.9 1049.4l-0.9-2.5-1-2.5-0.9-2.5-0.6-1.7-0.3-0.9-0.5-1.2-0.7-1.6-0.7-2.1M141.3 995.2l2.5 0.1 1.5 0.2 0.7 0.1 1.2 0.2 1.9 0.4 2.2 0.5 2.5 0.8M158.8 999.6l1.4 0.7M197.6 1039.4l0.9 2.5M422.2 1039.4l1-2.5M664.7 1046l0.2 0.7 0.4 1.2 0.6 1.8M766.2 1046.9l-0.6-1.8-0.4-1.2-0.4-1.3M778.7 965l1.2 0.7M783.8 967.7l2.2 1.2 2 1.2 1.3 0.7 0.5 0.4 1.5 1.1 2.5 1.9 1.4 1.1 0.3 0.2 1.3 1.2 2.1 2.1 1.3 1.3 0.5 0.4 1.2 1.1 2.1 2 1.3 1.3 0.6 0.5 1.3 1.2 1.9 1.8 1.2 1.3M809.4 1008.3l-1.1 1.6-1.2 1.6-1.4 1.7-1 1.3-0.5 0.8-1 1.6-1.5 2.5-1 1.8-0.5 0.9-0.5 1.3-0.7 1.5-0.8 2-0.8 2.5-0.8 2.5-0.6 2.5-0.5 2.4-0.3 2.2-0.2 1.2-0.1 0.3 0 1.4-0.1 2.5 0 1.5 0.1 0.6 0.3 1.3M154.3 888.7l0.9 1.2 0.3 0.5 0 0.9-0.3 1.3-0.4 1.3-0.3 1.2-1.2 1.6-2.2 2-1.4 1.3-0.6 0.4-1.2 0.8-1.9 1-2.2 0.9-2.5 0.8-2.5 0.6M115.6 919.4l0.8 2.5 1.3 2.5 1 1.7 0.9 0.9 1.1 1.3 1.4 1.6 1.2 1.3 1.1 1 1.3 1.2 1.5 1.5 1.3 1.2 1 0.9 1.4 1.3 1.8 1.6 1.3 1 0.7 0.6M161.2 953.7l2.4 1.3M410.3 900.8l-0.2 0.2M363.2 1036.9l-0.1 2.5M650.3 889l-0.3 1.2-0.1 0.3-0.1 1.4-0.1 2.5M649.7 896.4l0.2 1.6M667.8 889.4l-0.1 2.5-0.5 2.5M666.5 896.9l-0.9 2.5M696.3 889.4l-0.8 1.8-0.3 1-0.5 1.2-0.7 1.5M693.5 896.9l-0.5 2.5M762.6 904.4l-1.2 2M775 930.7l1.3-0.5M424.3 887.4l-1.5 2.2-1.3 1.7M420.5 892.7l-0.8 1.3-0.7 1.1-1.3 1.8M366.5 1044.4l-0.4 2.5-0.5 2.5-0.4 1.5M532 890l1.2 1.3 1.2 1.2M538.8 895.9l0.8 0.5 1.7 0.6 2.5 0.7M556.3 896.8l2.5-0.6 1.4-0.3 0.5-0.2 1.2-0.4 2.1-0.7 2.3-0.8 2.5-1.1M414.9 1040.3l-0.1 0.2-0.3 1.4M133.5 1046.9l-0.8-2.5-0.9-2.5-0.7-2.3-0.7-2-0.5-1.2-0.2-0.5-0.4-1.5-0.8-2.5-0.7-2.5-0.6-2.5M138.8 1002.3l2.5-0.4 2.5 0 2.5 0.2 2.5 0.5 2.5 0.7 2.5 0.9M159.3 1006.7l2 1M188.3 1039.4l0.6 2.5M686.3 1047.2l2.5 0.7M791.3 919.8l-1.9 0.5-1.3 0.2-1.2 0.2-1.3 0.2-1.8 0.3-2.5 0.4-2.5 0.6-2.5 0.7M778.1 979.7l1.2 1.4 0.5 0.7M777.7 1005.1l-1.2 0.8M433.8 887.1l-2.5 1.4-1.7 1.1M525.6 897.3l-0.7-1.3-0.1-0.2M520.6 890.5l-0.4-0.4-1.4-0.9M138.1 1046.9l-0.7-2.5-0.8-2.5-0.7-2.1-0.6-1.6-0.5-1.3-0.3-0.8-0.5-1.7-0.8-2.5-0.7-2.5-0.6-2.5-0.5-2.5M134.5 1009.1l1.8-1.2 2.5-1.4 1.4-0.8 0.4 0 1.3-0.1 2.1-0.2 1.5 0 0.9 0.2 1.2 0.2 1.6 0.3 2.1 0.6 2.5 1M158.8 1009.9l1.3 0.7M183.6 1039.4l0.5 2.5M369.9 1049l0.2-1.3 0.3-1.4 0.1-1.9M411.8 1039.4l-0.8 2.5M451.3 886.7l-2.5 0.5-2.5 0.5-2.5 0.6-2.5 0.7M497.2 896.8l-1.2-1.2-0.7-0.2-1.5-0.5-2.5-0.8-2.5-1-2.5-1.1-1.7-0.8-0.7-0.4-1.2-0.5-1.8-0.6-2.1-0.8-2.5-0.9-2.5-0.8M142.8 1046.9l-0.6-2.5-0.8-2.5-0.6-2-0.5-1.4-0.5-1.2-0.4-1.1-0.6-1.8-0.8-2.5-0.8-2.5-0.6-2.5-0.5-2.5-0.3-2.5 0-2.5 0.4-2.5 1.1-2.4 1.8-2.4 1-1.3 0.3-0.1 1.2-0.3 2.3-0.5 2.4-0.2 2.5 0.3 1.6 0.3 0.7 0.2 1.3 0.5M158.8 1014l1.6 0.9M180 1045.8l0.3 1.3M374.6 1046.9l0.1-2.5M408.1 1039.4l-0.9 2.5M190.3 888.8l0.7 1.2 0.6 1.9 0.6 2.5M192.4 896.9l-0.2 2.5M405.1 1036.7l-0.5 1.2M154.5 1046.9l-0.2-2.5-0.2-2.5-0.3-2.5-0.3-2.5-0.3-2.5-0.2-2.5 0.5-2 1-1.4 1.8-0.2 2.5 1.2M165.3 1038.1l0.5 1.7 0.6 2.1 0.8 2.5 0.8 2.5 0.9 2.5M385.6 1040.4l-0.4-0.5-0.6-1.2M397.6 1039.6l-1.2 2" stroke-width="1.05"/><path d="M888.7 886.9l-2.1 2.5-1.1 1.5-0.3 0.4M447.1 1049.4l-1.4-2.5M445 1044.7l0-1.3 0-1.8M439.4 1051l-0.4-1.6-0.5-2.5M438.5 1044.4l0.4-2.5 0.4-1.8M329.8 895.6l0.1-0.1 1.4-0.5 2.5-1 2.5-0.7 2.5-0.4 2.5-0.2 2.5 0 2.5 0 2.5 0.2 2.5 0.3 2.5 0.3 2.5 0.3 2.5 0.4 2.5 0.5 2.5 0.4 1.6 0.3 0.8 0.2 1.2 0.3 1.7 0.5 2.2 0.8M221.2 1041.9l-1-1.4M740.5 1041.9l0.5 2.5-0.1 2.2-0.6 1.9-1.5 0.4-2.5-1.1-1.5-0.9-0.5-0.8-0.3-1.7-0.1-2.5 0.3-1.7M709.9 894.4l-0.3 0.8-0.3 1.7M106.3 943.4l2.5 1.3 1.3 0.7 0.2 0.2 1.3 1 2.3 1.7 1.5 1.3 0.8 0.7M212.1 1036.9l-1-1.9M260.1 1039.9l0.2 0.5M317.2 1049.6l1.9-2 1.3-1.2 0.9-0.5 1.2-0.8 1.7-1.1M723.1 1036.9l0.3-2.5M748.1 1036.9l0.7 2.5M323.8 887.3l-2.5 1.6-1.6 1.1-0.6 0.4-1.2 1.5-1.8 2.5-1 1.4-0.1 0.4-0.2 1.3M395.7 887.7l1.3 2M716.5 1041.9l0.8 2.5 1 2.4 1.1 2.4 0.6 1.2 0.1 0.2M754.7 1041.1l0.2 0.9 0.3 1.3 0.3 1.6 0.4 2M821.3 1048.9l2.5 1 1.3 0.5 0.3 0.2M156.1 990.5l1.2 0.5 1.8 0.5M208.7 1041.6l0.9 1.9 0.6 1.2 0.3 0.6 0.9 1.6M428 1049.4l0.1-2.5 0.3-2.5 0.6-2.5 0.5-1.6M315.6 887l-1.6 1.3-2.1 1.6-1.2 1.1-0.5 0.6-1.1 1.2-1.7 1.9-1 2.2M709.9 1041.2l0.6 1.2 0.9 2.2 1.1 2.3 1.3 2.5 0.8 1.5M759.1 1039.4l0.4 2 0.3 1.4 0.3 1.3 0.3 1M781 958.7l2.1 1.3M804.4 1048.5l0.9 1.2 0.7 0.6M155.8 994.6l1.5 0.7 1.3 0.5M203.5 1041.9l1 2.4 0.5 1.2 0.1 0.1 0.7 1.3 1.3 2.5M423.9 1049.4l0.1-2.5 0.3-2.2 0.5-1.8 0.3-1.3 0.2-0.6 0.6-1.6M656.5 1041.9l0.6 2.5M301.3 888.4l2.5-0.8 1.8-0.8M703.7 1041.5l0.9 1.7 0.6 1.3 0.4 0.8 0.9 1.6 1.5 2.5M153.8 997.5l2.5 1 2.5 1.1M198.5 1041.9l0.9 2.5 0.5 1.4 0.1 0.2 0.6 1.2 1.1 2.3M420.2 1049.4l0.1-2.5 0.4-2.5 0.7-2.5 0.8-2.5M663.2 1041.9l0.9 2.5 0.6 1.6M767.2 1049.4l-1-2.5M764.8 1042.6l-0.3-1.3-0.4-1.9-0.4-2.5-0.3-2.5M779.9 965.7l0.1 0 1.3 0.7 2.5 1.3M795.2 1047.8l0.5 1.9M153 886.7l1.3 2M134.7 941.5l1.6 1 2.5 1.6 1.5 1 0.7 0.4 1.3 0.5 1.8 0.8 2.2 0.8M266 899.4l0.6-2.5M650.9 886.8l-0.6 2.2M649.7 894.4l0 2M419.6 1037.2l-0.9 2.3M667.7 886.9l0.1 2.5M667.2 894.4l-0.7 2.5M667.4 1036.9l1.4 2.5M697.5 886.9l-1.2 2.5M694 894.9l-0.5 2M695.2 1037l0.5 2.4M192.3 1036.9l0.6 2.5M775.5 969.9l1 0.5M366.7 1041.9l-0.2 2.5M529.3 887.5l1.4 1.3 1.3 1.2M534.4 892.5l1.4 1.3 1.7 1.2 1.3 0.9M414.5 1041.9l-0.7 2.5-0.4 2.5-0.1 2.5M134.2 1049.4l-0.7-2.5M153.8 1004.2l1.8 0.7 1.1 0.5 1.2 0.6 1.4 0.7M188.9 1041.9l0.6 2.5 0.3 1.4 0.1 0.4 0.5 1.2 0.8 2.2M683 1049.7l1.3-1.9 2-0.6M688.8 1047.9l1.9 1 1.5 1.2 1.2 0.9M779.8 981.8l0.6 1.3 0.9 1.7 0.7 2.1 0.5 2.5 0.1 2.5 0 2.5-0.4 2.5-0.6 2.5-0.7 1.9-0.6 1.3-1.1 1.3-1.5 1.2M524.8 895.8l-1-1.4-2-2.5-1.2-1.4M518.8 889.2l-2.5-1.6M138.7 1049.4l-0.6-2.5M153.8 1007.7l2.5 1 2.5 1.2M184.1 1041.9l0.5 2.5 0.3 1.4 0.1 0.2 0.3 1.3 0.7 2.2M369.7 1050.1l0.2-1.1M370.5 1044.4l0.1-2.5-0.1-2.5M411 1041.9l-0.6 2.5-0.4 1.5 0 0.4-0.1 1.3-0.1 2M143.3 1049.4l-0.5-2.5M152.4 1011l1.7 0.7 2.2 1 2.5 1.3M178.7 1039.4l0.5 2.5 0.5 2.5 0.3 1.3 0 0.1M180.3 1047.1l0.7 2.4M374.3 1049.4l0.3-2.5M374.7 1044.4l0-2.5-0.2-2.5M407.2 1041.9l-0.6 2.5-0.4 2.5-0.2 2.5M189.7 887.6l0.6 1.2M192.2 894.4l0.2 2.5M240.7 897.4l-0.9-1.2M236.1 892.3l-1.2-1.2-0.3-0.3-1.3-1.3-2.2-2.2M378.4 1036.9l-0.5-2.5M478.4 899.5l1.2 1.4M431.4 899.7l2.4-1.9M154.6 1049.4l-0.1-2.5M158.8 1029.5l1.3 0.7 0.3 0.3 1 1.4 1.7 2.5 1.1 1.7 0.5 0.8 0.6 1.2M168.9 1049.4l0.6 1.5M389.3 1049.4l-0.3-2.5-0.9-2.5-1.5-2.5-1-1.5M396.4 1041.6l-0.9 2-1 1.3-1.1 0.5-1 1.5-0.9 2.5" stroke-width="1.20"/><path d="M885.2 891.3l-1.1 1.2-1.8 2.1-1.3 2-0.7 1.8M478 1039.4l0.7 2.5M55.9 889.4l-0.2 1.8-0.5 1M748.9 896.9l0.7-1.5 0.3-0.6 0.5-1.3 0.9-1.9 1-2.2 1-2.5M91.3 940l2.5 0.1 1.9 0.2 1.4 0.2 1.3 0.3 1.1 0.1 1.8 0.6 2.5 0.8 2.5 1.1M116.2 950.3l1.2 1.3 1.7 1.8 1.2 1.3 0.6 0.6 1.3 1.5 1.9 2.2 1 1.2 0.3 0.3 1.3 1.2 2.2 2.2 1.4 1.3 0.5 0.3M161.1 980.4l0 0.5-0.7 0.6M260.3 1040.4l0.3 1.5 0.3 2.5-0.1 2.5-0.5 2.5-0.3 1.2 0 0.1M324.2 1044l2.1-1 2.5-0.9 2 0.5M332.4 1044.7l0.7 2.2-0.2 2.5M435.3 1037.4l0.5-1.2M146.3 947.6l2.5 0.9 2.3 0.9 2.2 0.8 1.2 0.5M158.8 952.5l2.4 1.2M411.2 899.4l-0.9 1.4M772.7 886.9l-1.4 2.5-0.9 1.4M776.3 930.2l2.5-0.9M769.4 1026.9l-0.1-2.5M239.8 896.2l-0.3-0.4-1.3-1.3-2.1-2.2" stroke-width="1.35"/><path d="M880.3 898.4l-0.4 1.2-0.3 0.7 0 1.2 0.3 1.7 0.2 1.3 0.1 0.8 0.9 1.6M460.7 1039.1l1.4-2.3M55.9 886.9l0 2.5M55.2 892.2l-0.4 1.3-0.5 1.4-1.1 2-1.9 2.5-1 1.4-0.2 0.2-1.2 1.2-2.2 2.3M838.2 886.9l0.9 2.5 0.6 1.7 0.2 0.8 0.3 1.3 0.5 1.6M78.8 941.2l1.7-0.3 1.1-0.2 1.3-0.1 1.4-0.2 2-0.2 2.5-0.2 2.5 0M130.8 965.5l1.2 0.9 2 1.4 2.3 1.2 2.5 1 1.4 0.5 0.5 0.1 1.3 0.5M160.4 979.8l0.7 0.6M160.4 981.5l-1.6 0.4M330.8 1042.6l1.6 2.1M619 1039.4l-0.1 2.5M388.4 899.4l-1.2 2.4M320.5 899.4l0.9-2.5M154.5 950.7l0.3 0.1 1.5 0.6 2.5 1.1M770.4 890.8l-0.3 0.4-0.6 1.3-1.1 2.1-1.2 2.2-1.5 2.2M764 901.9l-1.4 2.5M812.7 891.9l-1.1-2.4-1.1-2.2M161 1004.1l1.9 1M776.5 970.4l1.2 0.7M165.3 1024.6l0.7 0.7 1.3 1.6 1.8 2.4 0.9 1.2M404.6 1037.9l-0.9 1.8M433.8 897.8l1.7-1.2" stroke-width="1.50"/><path d="M29.5 887.5l-1.1 2.1-1.2 1.8-1.5 1.4-1.4 1.3-1.5 1-1.3 0.8-1 0.5-1.7 0.7-2.5 0.9-2.5 0.8-2.5 0.8-1.9 0.5-1.1 0.4-1.3 0.4-1.3 0.4-1.9 0.7-2.5 1.1-2.2 1-1.7 1-1.3 0.8M881.1 906.9l1.7 2.5 1.1 1.7 0.7 0.7 1.1 1.3 1.4 1.7 1.2 1.7 1.1 1.6 0.8 1.3 0.5 0.8 0.5 1.7 0.5 2.5M478.7 1041.9l-0.3 2.5-1 1.9-1.6 1.4-2 0.9M46.7 904.5l-1.3 1.3-0.3 0.3-1.3 1.1-2.5 1.9-1.6 1.1-0.6 0.3-1.2 0.7-1.9 1.1-2.2 0.8M840.7 894.8l0.4 2.1 0.2 2.5 0 2.5-0.3 2.5-0.4 1.9-0.4 1.2-0.4 1.2-0.5 1.3-0.9 1.9M61.3 942.3l2.5 0.4 2.5 0.1 2.5-0.1 2.5-0.3 2.5-0.3 2.5-0.4 2.5-0.5M142 971.1l2 0.8 2.3 0.8 2.5 0.7 2.5 0.7M141.3 981.4l-2.5 0-2.5 0.1-2.5 0.2-2.5 0.2-2.5 0.2-2.5 0.3-2.5 0.2-2.5 0.2-2.5 0.1-2.5-0.1-2.5-0.1-2.5-0.2-2.5-0.3-2.5-0.4-2.5-0.4-2.5-0.4-1.4-0.3-0.2 0-1.2-0.3-2.3-0.5-2.4-0.6-2.5-0.6-2.5-0.7-2.5-0.8-2-0.7-1.3-0.6-1.3-0.7-1.1-0.8-1.3-1.3-1.4-1.6-1.3-1.5-1.1-1.3-1-1.3M78.8 1021.1l0.8 1 1.1 1.2 1.4 1.6 1.2 1.4 1.1 1.3 1.2 1.3 1.2 1.2 1.2 1.4 1.3 1.7 1.1 1.3 0.7 0.8 1 1.6 1.3 2.5 0.9 2.3 0.5 2.2 0.2 1.2 0.1 0.4 0.1 1.4 0.1 2.5M434.7 1038.6l0.6-1.2M618.7 1046.9l0.2 2.5M266.6 896.9l1-2.5 1.3-2.5 0.7-1.4 0.3-0.4 1.2-1.2 2.1-2.2M363.1 1039.4l-0.2 2.5M765.7 899l-0.8 1.3-0.1 0.2-0.8 1.4M814.8 910.3l0.1-0.7 0.3-1.3 0.3-1.8 0.2-2.1-0.1-2.5-0.2-2.1-0.3-1.6-0.2-1.3-0.3-0.8-0.8-1.7-1.1-2.5M164 1023.4l1.3 1.2M170 1030.5l0.1 0.1 0.5 1.3M476.1 897.3l2.3 2.2M435.5 896.6l1-0.6 1.3-0.7" stroke-width="1.65"/><path d="M891.7 924.4l-0.2 2.5-0.9 2.5-0.5 1.3-0.1 0-1.2 0.7-2.5 1.4-2.5 1-2.5 0.8-2.3 0.5-2 0.4-1.3 0.2-0.5 0.1-1.4 0.2-2.5 0.4-2.5 0.4-2.5 0.5-2.5 0.4-2.5 0.5-2.5 0.4-2.5 0.5-2.5 0.5-2.5 0.7-1.3 0.3-0.1 0-1.3 1.1-2.4 1.9-1.4 1.3-0.4 0.5-0.2 1.5 0 2.5 0.2 1.6 0.4 0.6 1.1 1.2 1.7 1.9 1.2 1.3 0.8 0.6 1.7 1.1 2.5 1.7 1.4 0.9 0.5 0.2 1.3 0.5 2 0.7 2.3 0.6 2.5 0.5 2.5 0.4 2.5 0.3 2.5 0.3 2.5 0.5 2.1 0.5 1.9 0.6 1.2 0.3 0.7 0.2 1.6 0.6 2.5 1 2.4 1.2 2.4 1.3 1.2 0.7 0.1 0 1.4 0.8 2.5 1.3 2.2 1.3 2 1 1.3 0.7 0.5 0.3 1.5 0.6 2.5 1M473.8 1048.6l-2.5 0.4-2.5-0.2-2.5-0.7-2-0.9-1.4-1M460 1041l-0.1-0.2 0-0.2 0.1-0.2 0.7-1.3M33.8 913.1l-2.5 0.6-2.5 0.4-2.5 0.2-2.5 0.2-2.5 0.3-2.4 0.3-2.2 0.4-1.2 0.2-0.3 0.1-1.4 0.5-2.5 0.9-2.5 1.1-2.5 1.2-1.5 0.7-0.5 0.3-1.3 0.9-2 1.6-1.6 1.3-1.3 0.9-1.3 1M838.4 911.9l-1.5 2.5-1 1.6-0.6 0.7-1 1.2-1.4 1.8-1.2 1.5-1.1 1.2-1.2 1.3-1.1 1.3-1.3 1.3-1.3 1.4-1.2 1.3-1.1 1.1-1.3 1.3-1.4 1.5-1.2 1.2-1 1.1-1.3 1.3-1.5 1.7-1.1 1.2-0.8 0.9-1.3 1.6-1.7 2.4-0.8 1.2-0.1 0.1-0.6 1.3-1 2.5-0.3 2.5 0.3 2.5 0.5 1.9 0.8 1.2 0.7 1.3 0.7 1.2 1.3 1.6 1.8 2 1.1 1.3 0.5 0.5 1.3 1.2 2 1.9 1.3 1.2 0.6 0.6 1.3 1.3 1.9 2 1.1 1.2 0.5 0.6 1.3 1.5 2 2.5 1 1.3 0.9 1.2 1.8 2.5 1.3 1.8 0.7 1 0.9 1.2 1.2 1.5 1.3 1.6 1.3 1.7 1 1.3 0.9 0.8 1.3 1.2 1.6 1.7 1.5 1.2 1.4 0.9 1.3 0.9 1.1 1.1 1.8 1.2 2.5 1.4 1.2 0.7 0 0.1-0.5 1.3-1.1 2.4-1.2 1.5-1.5 0.6-1.9 0.9-2.5 1.2-1.9 1-1.1 0.7-1.3 0.7-1.3 0.6-1.9 1.1-2.5 1.6-1.5 1-0.3 0.2-1.3 1.1-2.1 1.9-1.4 1.2-0.7 0.6-1.3 1.6-1.8 2.5-0.9 1.2-0.4 1.3-0.7 2.5 0 2.4M-3.7 947.1l2.5-0.6 1.6-0.4 0.7-0.3 1.2-0.4 1.8-0.4 2.2-0.6 2.5-0.9 2.3-1.1 2.3-1.2 1.2-0.6 0.3-0.1 1.4-0.7 2.5-1.3 2.2-1.2 2.1-1.1 1.3-0.7 0.4-0.2 1.5-0.7 2.5-1.2 2.5-0.9 2.5-0.6 2.5-0.3 2.5 0.2 2.5 0.5 2.5 0.9 2.1 1 1.8 1 1.2 0.7 0.7 0.4 1.7 1 2.5 1.6 1.8 1 1.3 0.5 1.2 0.6 1.3 0.7 1.9 0.6M151.3 974.1l2.5 0.7 1.4 0.5M159 978.6l1.4 1.2M158.8 981.9l-2.5 0.1M148.8 981.7l-2.5-0.2-2.5-0.1-2.5 0M74.5 967.4l-0.9-1.1-1.3-1.4-1.5-1.4-1.5-1.3-1.3-1-1.3-1-1.1-0.8-1.8-1-2.5-1.2-2.5-0.7-2.5-0.4-2.5-0.1-2.5 0.1-2.5 0.3-2.5 0.5-2.5 0.5-2.5 0.6-2.5 0.6-2.5 0.5-2.5 0.5-2.5 0.4-2.5 0.3-2.5 0.2-2.5 0-2.5-0.1-2.5-0.2-2.5-0.4-2.5-0.5-2.5-0.4-2.5-0.3-2.5-0.2-2.5 0-2.5 0.4-2.1 0.6-1.7 0.8-1.2 0.6M-3.7 1036.5l2.5 1.2 2.3 1.2 2.2 1.2 1.2 0.6 0.3 0.2 1.5 0.6 2.5 1.2 2.5 0.9 2.5 0.9 2.5 0.5 2.5 0.2 2.5-0.4 2.5-0.9 2-1.1 1.5-1.4 1.3-1.2 0.9-0.9 1.1-1.2 1.3-1.6 1.2-1.6 1.3-1.5 0.9-1.3 0.7-1 1.2-1.7 1.8-2.5 0.9-1.3 0.1-0.1 0.8-1.2 1.7-2.4 1.3-1.9 0.8-1.3 0.9-1.2 0.9-1.2 1.1-1.9 1.4-2.5 0.8-1.5 0.2-0.6 0.5-1.3 0.8-1.9 0.7-2.2 0.6-2.5 0.5-2.5 0.6-2.5 0.5-1.9 0.6-1.3 0.8-1.2 1.1-1.2 1.3-1.2 1.4-1 2-0.8 2.5-0.4 1.9 0.6 1.3 1.4 0.9 2 0.4 2.5 0.2 2.5 0 2.5 0.3 2.5 0.4 2.5 0.3 1.6 0.3 0.5 0.5 1.3 0.7 1.9 1.1 2.2 1.6 2.5 0.9 1.4 0.3 0.3 1 1.3 1.7 2.2 1.2 1.5M213.3 1039.4l-1.2-2.5M618.9 1041.9l-0.2 2.5 0 2.5M723.1 1039.4l0-2.5M748.8 1039.4l0.6 2M416.7 889.4l-0.8 1.8-0.6 1.2-0.6 1.2-0.7 1.4M412.9 896.9l-1.7 2.5M418.7 1039.5l-0.8 2.4M668.8 1039.4l0.8 1.6M695.7 1039.4l0.9 2.5M778.8 929.3l2.5-0.7M791.3 927.2l2.5-0.2 2.4-0.5 2.4-0.6 1.2-0.3 0.1 0 1.4-0.7 2.5-1.4 1.9-1.3 1.4-1 1.2-1.1 1.1-1.2 1.1-1.2 1.1-1.4 1.2-1.9 1.2-2.5 0.8-1.6M125.3 1037.7l-0.4-1.2-0.2-0.6-0.5-1.5-0.8-2.5-0.7-2.5-0.5-2.5-0.5-2.5-0.4-2.5-0.3-2.5-0.1-2.5 0.1-2.5 0.3-2.5 0.8-2.5 1.4-2.5 0.9-1.4 0.4-0.3 1.5-1.2 2.5-1.9 1.5-1 0.5-0.3 1.2-0.5 2-0.7 2.3-0.6 2.5-0.4 2.5-0.1 2.5 0.1M192.9 1039.4l0.7 2.5M777.7 971.1l1.5 1M769.5 1029.4l-0.1-2.5M170.6 1031.9l1.1 2.5M379 1039.4l-0.6-2.5M437.8 895.3l1.5-0.8 2-0.8 2.5-0.8 2.5-0.7 2.5-0.6 2.5-0.4 2.5-0.3 2.5-0.1 2.5 0 2.5 0.2 2.5 0.3 2.5 0.7 2.5 0.8 2.3 1.1M474.5 895.8l0.3 0.3 1.3 1.2" stroke-width="1.80"/><path d="M462.9 1046.2l-1.3-1.7-1.1-2.3-0.5-1.2M823.9 1036.8l0.7 2.4 0.4 1.2 0.1 0.2 1.1 1.3 2.4 2.5 1.2 1.3 0.1 0.1 1.4 0.9 2.5 1.8 1.6 1.2 0.7 0.6M155.2 975.3l0.5 0.2 1.3 1.1 2 2M153.8 982l-2.5-0.2-2.5-0.1M217.5 1046.9l-1.2-2M434.2 1040l0.5-1.4M389.3 896.9l-0.9 2.5M417.5 886.9l-0.8 2.5M414 895l-1.1 1.9M362.5 1044.4l-0.6 2.5-0.6 2.5M551.3 890.1l2.5-0.2 2.5-0.4 2.5-0.8 2.5-0.9M781.3 928.6l2.5-0.5 2.5-0.3 2.5-0.3 2.5-0.3M128.6 1046.9l-0.8-2.5-1-2.5-0.8-2.2-0.7-2M143.8 998.6l2.5 0.2 2.5 0.5 2 0.5M158.8 1003l2.2 1.1M788.1 979.5l1.2 1.6 0.5 0.9 0.7 1.2 1 1.6 1.1 2.1 1.1 2.5 0.7 1.8 0.4 1.1 0.5 1.3 0.7 1.4 0.6 1.9 0.5 2.5 0.2 2.5-0.1 2.5-0.4 2.5-0.6 2.5-0.5 1.9-0.5 1.3-0.4 1.2-0.4 1.3-0.6 1.8-0.8 2.5-0.8 2.5-0.8 2.5-0.6 2.2-0.5 2-0.4 1.2-0.2 0.6-0.5 1.5-0.8 2.5-0.7 2.5-0.7 2.5-0.8 2.5-0.6 2.5M146.8 1041.9l-0.7-2.3-0.7-2.2-0.5-1.2-0.1-0.4-0.4-1.4-0.8-2.5-0.8-2.5-0.6-2.5-0.4-2.5-0.1-2.5 0.8-2.5 1.6-2.5 0.8-1.3 0.1 0 1.3-0.1 2.5-0.1 1.5 0M161.9 1021.6l2.1 1.8M171.7 1034.4l0.8 2.5M403.7 1039.7l-0.9 2.2M471.1 893.9l2.1 1.2 1.3 0.7" stroke-width="1.95"/><path d="M156.3 982l-2.5 0M220.1 1050.6l-0.1 0-0.8-1.3-1.7-2.4M216.3 1044.9l-0.9-1.4-0.7-1.3-0.5-1-0.9-1.8M432.8 1049.4l-0.1-2.5 0.3-2.5 0.6-2.5 0.6-1.9M726.2 1049.9l-0.8-1.6-0.6-1.2-0.4-1-0.5-1.7-0.5-2.5M749.4 1041.4l0.4 1.6M750.1 1044.3l0.2 0.9 0.2 1.7 0.4 2.5M328.2 890.4l1.2-0.6 1.9-0.6 2.5-0.7 2.5-0.4 2.5-0.3 2.5-0.1 2.5 0 2.5 0.1 2.5 0.2 2.5 0.1 2.5 0.3 2.5 0.2 2.5 0.2 2.5 0.1 2.5 0.2 2.5 0 2.5 0 2.5 0 2.5-0.1 2.5-0.1 2.5 0 2.5 0.3 2.5 0.4 1.6 0.5 0.8 0.4 1.2 1.4 1.5 2.5 0.4 2.5M321.4 896.9l1.2-2.1M324.2 893.2l1.4-1.3 1.3-0.8 1.3-0.7M362.9 1041.9l-0.4 2.5M541.3 887l2.5 1.3 2.5 1 2.5 0.6 2.5 0.2M417.3 1044.4l-0.4 2.5-0.2 2.5M669.6 1041l0.3 0.6 0.5 1.3M671.2 1044.7l0.7 2.2 0.6 2.5M698 1044.4l1 1.6 0.7 0.8 0.9 1.2 1.2 1.8M130 1051l-0.1-0.2-0.4-1.4-0.9-2.5M150.8 999.8l1.6 0.6 1.2 0.4 0.9 0.3 1.8 0.8M194.4 1044.4l0.4 1.4 0.1 0.4 0.6 1.2 0.9 2.2M779.2 972.1l1.9 1.2 2.2 1.6 1.3 0.9 0.3 0.3 1.1 1.2 2.1 2.2M785.6 1044.4l-0.4 1.5-0.1 0.6-0.8 1.3-1.3 1.9M777.6 1050l-1.7-1.4-1.2-1.2-0.6-1.2-0.9-1.8-1.3-2.5-1-2.2-0.6-1.8-0.4-1.3-0.1-0.6-0.1-1.6M769.5 1031.9l0-2.5M148.2 1049.4l-0.3-2.5-0.5-2.5-0.6-2.5M150.3 1015.4l0.5 0.2 1.3 0.4 1.9 0.8 2.3 1.1 2.5 1.4M160.2 1020.2l0.5 0.3 1.2 1.1M173.8 1041.9l0.6 2.5 0.4 1.5 0.1 0.6 0.3 1.2 0.5 2M379.6 1049.4l0.1-2.5 0-2.5-0.3-2.5M402.1 1044.4l-0.5 2.5-0.2 2.5" stroke-width="2.10"/><path d="M723.4 1041.9l-0.3-2.5M749.8 1043l0.3 1.3M322.6 894.8l1.6-1.6M417.9 1041.9l-0.6 2.5M670.4 1042.9l0.8 1.8M696.6 1041.9l1.4 2.5M156.3 1001.9l2.5 1.1M193.6 1041.9l0.8 2.5M769.7 1034.4l-0.2-2.5M158.8 1019.3l1.4 0.9M172.5 1036.9l0.7 2.5 0.6 2.5M379.4 1041.9l-0.4-2.5M402.8 1041.9l-0.7 2.5" stroke-width="2.25"/></g><rect x="168.0" y="906.7" width="601.3" height="124.4" rx="22" fill="#0D0D0C"/><defs><path id="num28" d="M505-601v-434q0-130 90-195q89-66 230-66h0q185 0 282 60h0l-58 44q-65-32-224-32h0q-112 0-180 45q-68 44-68 144h0v434q0 44 15 76q14 31 37 49q22 18 60 28q37 9 72 12q34 3 84 3h0q198 0 198-88h0q0-51-40-74q-40-23-103-23h0q-144 0-268 56h0v-72q125-51 269-51h0q92 0 153 40q61 39 61 124h0q0 80-75 120q-76 40-195 40h0q-59 0-107-6q-48-7-92-23q-45-17-75-43q-30-27-48-69q-18-43-18-99h0zM361-601v-434q0-131 64-224q63-94 166-137q103-44 234-44h0q254 0 394 114h0l-57 44q-119-86-337-86h0q-171 0-281 87q-111 86-111 246h0v434q0 84 32 146q31 62 89 98q58 35 130 52q72 16 161 16h0q148 0 245-61q97-61 97-171h0q0-112-81-172q-81-61-197-61h0q-147 0-277 53h0v-76q135-45 278-45h0q146 0 248 81q101 80 101 220h0q0 141-118 223q-118 81-296 81h0q-102 0-188-22q-86-23-153-68q-67-45-105-120q-38-75-38-174h0zM217-601v-434q0-130 48-235q48-106 131-173q83-68 193-104q110-37 236-37h0q154 0 286 44q132 44 221 124h0l-56 45q-80-68-197-104q-118-37-254-37h0q-111 0-208 32q-97 31-170 90q-74 59-116 151q-42 91-42 204h0v434q0 113 44 202q43 88 120 143q76 55 176 83q99 28 216 28h0q207 0 347-102q139-103 139-274h0q0-116-59-202q-60-86-153-127q-93-41-205-41h0q-147 0-282 47h0v-73q141-43 284-43h0q133 0 245 56q111 56 177 157q65 101 65 226h0q0 133-75 237q-76 103-202 157q-127 54-281 54h0q-131 0-243-34q-113-34-199-98q-87-65-136-166q-50-102-50-230h0zM73-601v-434q0-158 60-289q59-132 161-219q102-88 239-136q137-49 292-49h0q187 0 349 59q161 58 270 163h0l-58 43q-99-92-245-142q-147-51-316-51h0q-141 0-264 42q-123 41-216 118q-93 76-146 195q-54 119-54 266h0v434q0 114 36 212q36 97 100 168q64 71 152 121q87 50 192 75q104 24 220 24h0q129 0 245-37q115-38 200-105q85-67 135-165q50-98 50-213h0q0-114-48-212q-48-98-126-162q-79-65-179-101q-100-36-206-36h0q-152 0-284 45h0v-74q137-39 288-39h0q123 0 237 42q113 41 200 115q86 73 138 183q52 110 52 239h0q0 130-55 242q-56 111-151 188q-95 76-223 119q-129 43-273 43h0q-161 0-300-45q-140-45-245-129q-106-84-166-212q-61-129-61-286h0z"/><path id="link64" d="M389-723h0q72 0 133 23q61 23 106 69q45 45 70 114q25 69 25 162h0q0 91-24 161q-24 69-69 115q-45 46-106 70q-61 24-135 24h0q-75 0-137-24q-62-24-107-70q-45-47-69-116q-25-70-25-160h0q0-85 24-153q24-68 69-116q44-48 106-73q62-26 139-26zM389-711h0q-47 0-82 22q-35 21-58 65q-24 44-36 110q-12 66-12 156h0q0 90 12 158q12 68 36 113q23 44 58 67q35 22 82 22h0q46 0 81-22q34-22 57-66q23-45 35-112q11-68 11-160h0q0-91-11-157q-12-67-35-110q-23-43-57-64q-35-22-81-22z"/><path id="link176" d="M598-20l58 10v10h-251v-10l53-10v-339q0-53-18-80q-18-27-52-27h0q-23 0-46 18q-24 17-45 45q-22 27-39 56q-17 29-27 53h0v274l53 10v10h-247v-10l54-10v-448h-58v-11l198-36v164l8 7q25-51 57-89q31-39 70-60q39-22 86-22h0q41 0 69 13q28 12 45 36q16 23 24 56q8 32 8 71h0v319z"/><path id="link138" d="M313-515h0q83 0 137 33q54 33 81 88q27 55 27 124h0h-379v-10l249-13q0-67-12-114q-12-47-37-71q-26-25-67-25h0q-40 0-69 26q-30 26-45 79q-16 52-16 134h0q0 45 12 87q11 41 34 75q22 33 55 53q33 19 77 19h0q27 0 54-8q27-8 51-23q24-15 44-36q20-22 33-51h0l11 10q-23 47-52 77q-30 30-64 47q-34 16-69 23q-35 6-69 6h0q-62 0-110-21q-48-21-81-57q-34-37-51-83q-18-47-18-97h0q0-63 21-113q20-50 57-85q36-36 86-55q50-19 110-19z"/><path id="link100" d="M426 0h-94l-267-686l-58-12v-10h287v10l-72 11l223 574h11l94-251q18-44 27-86q9-43 9-78h0q0-64-31-107q-31-44-95-63h0v-10h293v10l-60 12l-267 686z"/><path id="link182" d="M307-515h0q65 0 115 19q50 19 84 55q34 36 52 86q17 49 17 109h0q0 55-17 103q-18 47-52 83q-34 35-83 55q-50 20-116 20h0q-66 0-116-20q-51-20-84-55q-34-36-51-83q-17-48-17-103h0q0-60 19-109q18-50 53-86q34-36 84-55q50-19 112-19zM308-503h0q-43 0-71 34q-28 34-41 92q-14 58-14 131h0q0 51 7 97q7 45 23 79q15 34 39 54q24 19 56 19h0q32 0 56-19q23-19 39-53q16-35 23-80q7-45 7-97h0q0-54-7-101q-7-47-22-82q-15-35-38-54q-24-20-57-20z"/><path id="link154" d="M155-590h0q-29 0-51-8q-23-9-36-24q-13-16-13-36h0q0-20 13-35q13-16 36-24q22-9 51-9h0q30 0 53 9q22 8 35 24q13 15 13 35h0q0 20-13 36q-13 15-35 24q-23 8-53 8zM284 0h-248v-10l54-10v-448h-59v-11l199-36v495l54 10v10z"/><path id="link129" d="M297 15h0q-75 0-133-33q-59-33-92-91q-33-59-33-134h0q0-63 21-113q21-50 60-85q39-36 94-55q55-19 123-19h0q40 0 78 9q37 8 67 25q30 16 48 41q17 24 17 56h0q0 22-13 38q-13 15-35 23q-22 7-50 7h0q-42 0-71-17q-29-17-29-50h0q0-22 15-39q15-17 42-24h0q45-13 45-24h0q0-7-12-15q-12-8-33-13q-22-5-51-5h0q-40 0-72 19q-32 18-55 51q-23 32-35 74q-13 42-13 90h0q0 55 13 99q13 44 37 76q24 31 59 48q34 16 76 16h0q37 0 72-13q35-14 64-40q29-27 47-65h0l11 10q-25 48-55 78q-30 30-64 47q-34 16-70 22q-36 6-73 6z"/><path id="link74" d="M46-708h361q87 0 146 22q59 21 89 63q29 41 29 102h0q0 100-80 154q-80 54-226 54h0q-33 0-64-2q-31-2-56-5h0v-22q34 13 96 13h0q86 0 134-48q48-49 48-138h0q0-58-19-97q-19-40-55-60q-37-20-90-20h0q-20 0-42 1q-22 0-39 2q-18 1-27 3h0v664l58 12v10h-263v-10l58-12v-664l-58-12v-10z"/><path id="link169" d="M230-745v725l54 10v10h-248v-10l54-10v-678h-59v-11l199-36z"/><path id="link116" d="M319-515h0q60 0 104 13q43 13 71 40q28 27 41 68q13 41 13 96h0v264q0 12 6 19q5 7 15 7h0q10 0 25-6q14-6 29-16h0v10q-13 10-30 18q-18 8-37 13q-20 4-39 4h0q-50 0-79-26q-30-27-30-87h0q0-16 0-23q0-8 0-12q0-5 0-11h0l-8-6q-19 39-44 70q-26 30-57 52q-31 21-64 32q-33 11-66 11h0q-37 0-67-13q-30-13-48-38q-18-25-18-61h0q0-84 96-129q95-46 276-46h0q0-85-12-134q-12-49-41-70q-30-21-85-21h0q-33 0-59 7q-26 6-41 14q-15 8-15 15h0q0 5 11 11q11 6 38 16h0q53 19 53 57h0q0 32-29 50q-29 17-71 17h0q-41 0-69-17q-29-18-29-52h0q0-25 21-49q21-24 58-44q36-20 83-31q47-12 98-12zM408-192v-68q-84 0-138 22q-54 22-80 57q-26 34-26 74h0q0 24 9 40q9 15 24 23q15 7 35 7h0q22 0 47-9q24-9 48-28q24-19 46-48q21-29 35-70h0z"/><path id="link205" d="M196 15h0q-63 0-90-36q-27-36-27-108h0v-351h-68v-10l69-10l124-164h15v155l103 19v10h-103v397q0 35 11 51q10 15 28 15h0q16 0 31-10q15-11 30-27h0l3 14q-11 10-25 20q-15 10-31 18q-16 8-33 13q-18 4-37 4z"/><path id="link147" d="M293 0h-262v-10l59-10v-460h-59v-10l59-10q-2-36 0-73q1-37 7-64h0q10-37 33-60q23-24 62-36q38-12 91-12h0q38 0 70 7q32 7 57 20q24 13 38 33q13 19 13 44h0q0 22-13 38q-13 15-35 23q-22 7-50 7h0q-42 0-71-17q-29-17-29-50h0q0-18 9-31q9-13 21-22q12-9 21-17q8-8 8-16h0q0-5-8-7q-8-2-29-2h0q-40 0-57 20q-17 20-17 59h0q0 17 3 43q2 26 7 55q4 29 9 58h0l109 4v13h-109v463l63 10v10z"/><path id="link195" d="M286 0h-249v-10l54-13v-445h-58v-11l198-36v157l8 8q14-33 28-59q13-27 27-44h0q24-32 53-47q28-15 63-15h0q24 0 46 10q22 9 36 29q14 19 14 49h0q0 23-12 42q-12 19-33 30q-21 11-51 11h0q-26 0-47-9q-21-10-32-26q-12-17-12-38h0q0-8 2-14q1-7 3-13q1-6 1-11h0q0-7-5-7h0q-9 0-21 17q-13 17-30 52h0q-9 20-19 46q-10 26-19 55h0v269l55 13v10z"/><path id="link175" d="M284 0h-247v-10l54-13v-437h-58v-11l198-35v155l8 7q22-49 52-87q30-39 68-61q38-23 84-23h0q37 0 65 11q27 11 45 33q18 21 27 53q9 31 9 72h0v323l53 13v10h-246v-10l53-13v-336q0-53-18-80q-18-27-51-27h0q-23 0-44 18q-22 17-42 44q-20 27-36 56q-16 29-27 54h0v271l53 13v10zM1005 0h-251v-10l53-13v-336q0-53-18-80q-18-27-52-27h0q-22 0-44 18q-22 17-42 44q-20 27-36 56q-16 29-26 54h0v-57l8 7q21-49 51-87q30-39 69-61q38-23 84-23h0q41 0 69 13q28 12 45 36q16 23 24 56q8 32 8 71h0v316l58 13v10z"/><path id="link270" d="M76 86h0l-5-12q14-6 27-14q13-8 24-17q10-10 16-19h0l-10-9h-11q-23 0-40-9q-17-9-26-24q-10-15-10-34h0q0-20 10-35q10-15 28-23q17-9 39-9h0q22 0 40 9q17 8 27 23q10 15 10 36h0q0 21-9 42q-9 21-25 40q-16 18-37 32q-22 14-48 23z"/><path id="link87" d="M496 0h-263v-10l58-12v-671h-78q-25 0-46 13q-21 12-35 40q-15 27-25 71h0l-30 134h-18l-30-273h671l-31 273h-17l-30-131q-9-46-24-73q-16-28-36-41q-21-13-47-13h0h-78v671l59 12v10z"/><path id="link219" d="M431-272l72-188l142 346h13l64-181q6-16 9-37q2-22 2-46h0q0-19-4-38q-4-20-15-36q-11-17-28-27q-18-11-45-11h0v-10h227v10l-62 10l-178 480h-86l-111-272zM339 0h-86l-198-480l-56-9v-11h269v11l-61 9l149 366h13l64-181q6-16 9-37q3-22 3-46h0q0-19-4-38q-5-20-15-36q-11-17-29-27q-18-11-45-11h0v-10h227v10l-62 10l-178 480z"/><path id="link192" d="M289 200h-253v-10l54-12v-642h-59v-11l199-40v159l8 8q11-28 28-57q16-30 39-54q23-25 53-40q30-16 67-16h0q61 0 106 33q45 33 70 90q25 57 25 130h0q0 93-29 155q-30 61-80 92q-51 30-112 30h0q-47 0-83-16q-37-16-59-39q-23-23-33-45h0v262l59 13v10zM350-19h0q41 0 71-29q29-30 46-81q16-51 16-116h0q0-74-13-123q-14-49-38-73q-25-25-59-25h0q-26 0-47 13q-21 13-38 38q-18 24-32 57q-14 32-26 72h0v114q0 28 9 55q8 27 24 50q15 22 37 35q22 13 50 13z"/><path id="link199" d="M264 15h0q-46 0-87-8q-41-9-72-24q-32-16-50-38q-18-23-18-52h0q0-22 13-36q13-14 34-21q20-8 41-8h0q23 0 43 7q19 7 31 20q12 13 12 33h0q0 14-6 26q-6 11-19 22h0q-16 12-21 20q-6 7-6 16h0q0 7 12 15q12 7 34 12q22 5 52 5h0q41 0 73-10q32-10 51-30q18-21 18-53h0q0-26-15-47q-16-21-52-40q-36-19-99-40h0q-71-25-112-50q-42-25-59-52q-18-28-18-60h0q0-63 63-100q62-37 170-37h0q58 0 107 15q49 15 79 42q30 26 30 63h0q0 20-12 34q-12 13-31 20q-20 7-41 7h0q-16 0-32-4q-16-4-29-11q-13-8-21-19q-8-12-8-26h0q0-29 30-50h0q16-12 22-19q6-7 6-14h0q0-5-6-10q-7-5-19-8q-13-4-30-6q-17-3-37-3h0q-41 0-74 9q-33 9-52 27q-20 17-20 44h0q0 26 20 48q20 21 57 40q36 19 87 37h0q75 28 119 52q43 23 62 48q19 25 19 56h0q0 40-19 69q-20 29-53 49q-33 20-76 30q-43 10-91 10z"/><path id="link14" d="M665-138l10 7q-33 51-78 83q-45 32-97 48q-52 15-107 15h0q-74 0-136-24q-63-25-109-72q-46-48-71-116q-26-68-26-154h0q0-85 26-153q25-69 72-118q46-49 112-75q66-26 148-26h0q56 0 107 11q51 11 92 30q41 18 69 41h0l-54 268h-19l-26-145q-12-65-37-107q-25-43-65-64q-40-21-96-21h0q-42 0-76 25q-34 24-58 68q-24 43-37 100q-13 57-13 123h0q0 70 17 132q17 62 52 109q34 47 88 74q53 26 125 26h0q55 0 104-22q48-22 83-63h0z"/><path id="link218" d="M339 0h-86l-198-480l-56-9v-11h269v11l-61 9l149 366h13l64-181q6-16 9-37q3-22 3-46h0q0-19-4-38q-5-20-15-36q-11-17-29-27q-18-11-45-11h0v-10h227v10l-62 10l-178 480z"/><path id="link33" d="M538-275l-116-21v-10h262v213q-28 29-63 50q-35 20-73 33q-39 13-77 19q-39 6-74 6h0q-60 0-112-16q-53-16-96-47q-43-32-73-77q-31-46-48-104q-17-59-17-131h0q0-83 25-149q25-67 71-115q46-48 111-73q65-26 147-26h0q43 0 83 6q39 6 74 18q35 11 65 26q30 15 54 32h0l-54 257h-18l-26-123q-12-57-31-95q-20-39-46-63q-26-24-59-34q-33-11-71-11h0q-41 0-74 25q-33 24-56 66q-24 42-37 98q-13 55-13 118h0q0 53 10 110q9 56 28 109q18 52 48 94q29 41 69 66q40 24 91 24h0q21 0 46-5q24-5 50-16h0v-254z"/><path id="text755" d="M575 162l-168 68q-124-209-186-445q-62-236-62-477h0q0-161 28-319q27-159 82-310q55-151 138-289h0l168 68q-55 87-96 188q-42 100-70 208q-28 108-41 222q-14 113-14 228h0q0 230 56 454q55 223 165 404h0z"/><path id="text182" d="M788 0h-239l-538-1400h252l409 1101l393-1101h247l-524 1400z"/><path id="text109" d="M832 30h0q-158 0-292-55q-135-56-234-155q-100-99-155-232q-56-133-56-288h0q0-156 56-289q55-133 155-232q99-99 234-154q134-55 292-55h0q157 0 291 56q134 56 234 156q100 100 156 233q55 132 55 285h0q0 155-55 288q-56 133-156 232q-100 99-234 155q-134 55-291 55zM832-182h0q106 0 198-36q91-37 159-105q68-69 107-164q38-96 38-213h0q0-157-66-273q-67-117-181-181q-114-64-255-64h0q-106 0-197 37q-92 36-160 104q-69 68-107 164q-39 95-39 213h0q0 157 67 274q67 116 181 180q113 64 255 64z"/><path id="text1" d="M267 0h-246l544-1400h243l558 1400h-253l-129-334h-593l-124 334zM682-1137l-233 610h475l-242-610z"/><path id="text64" d="M877 30h0q-167 0-309-51q-142-51-248-146q-107-96-166-230q-59-134-59-301h0q0-166 57-300q57-135 160-231q102-97 241-149q138-52 302-52h0q76 0 154 12q78 12 154 40q75 27 143 74h0l-98 176q-76-48-164-72q-89-24-183-24h0q-122 0-221 37q-99 36-169 105q-70 68-107 165q-38 97-38 218h0q0 170 72 289q72 119 199 181q126 61 291 61h0q81 0 146-15q65-16 105-36h0v-338h-318v-186h519v654q-55 37-137 64q-83 27-170 41q-88 14-156 14z"/><path id="text100" d="M387 0h-205v-1400h217l571 929l-87 1l550-930h213v1400h-219l3-1102l43 15l-476 785h-164l-485-785l36-15l3 1102z"/><path id="text364" d="M535 30h0q-133 0-219-53q-87-54-130-142q-43-88-43-192h0v-633h220v592q0 102 61 164q60 61 167 61h0q70 0 125-31q55-32 88-89q32-57 32-132h0v-565h220v990h-198v-117q-58 70-137 109q-80 38-186 38z"/><path id="text297" d="M373 0h-220v-1440h220v1440z"/><path id="text359" d="M569 30h0q-145 0-232-84q-87-84-87-257h0v-968h220v289h275v182h-275v449q0 104 40 147q39 42 111 42h0q35 0 66-8q31-8 56-21h0l39 178q-43 22-98 37q-56 14-115 14zM279-808h-246v-182h246v182z"/><path id="text273" d="M373 0h-220v-990h220v990zM263-1167h0q-59 0-102-38q-43-38-43-100h0q0-61 43-99q43-39 102-39h0q59 0 102 39q43 38 43 99h0q0 62-43 100q-43 38-102 38z"/><path id="text749" d="M659-467h-540v-191h540v191z"/><path id="text140" d="M406 0h-224v-1400h507q149 0 264 52q114 51 179 148q65 96 65 231h0q0 139-60 235q-60 95-174 145q-115 49-279 49h0h-278v540zM406-1204v472h281q136 0 211-57q75-58 75-175h0q0-116-77-178q-77-62-207-62h0h-283z"/><path id="text346" d="M373 0h-220v-990h220v137q56-93 136-130q80-38 172-38h0q30 0 57 3q27 3 52 9h0l-29 227q-30-9-61-14q-31-5-62-5h0q-115 0-190 71q-75 70-75 191h0v539z"/><path id="text312" d="M604 30h0q-155 0-276-71q-122-72-191-191q-69-120-69-263h0q0-106 40-200q39-95 112-168q72-73 170-115q98-42 215-42h0q155 0 277 72q121 71 190 191q69 119 69 262h0q0 105-39 200q-40 95-112 168q-72 73-170 115q-98 42-216 42zM604-165h0q92 0 164-40q71-41 112-115q41-74 41-175h0q0-101-41-175q-41-75-112-115q-72-40-164-40h0q-92 0-163 40q-72 40-112 115q-41 74-41 175h0q0 101 41 175q41 74 113 115q71 40 162 40z"/><path id="text385" d="M651 0h-252l-370-990h241l274 801h-33l269-801h234l-363 990z"/><path id="text237" d="M564 30h0q-145 0-257-68q-112-69-175-187q-64-119-64-270h0q0-109 36-204q36-96 103-168q66-72 158-112q91-41 202-41h0q135 0 234 54q99 54 165 150h0l-46 49v-673h220v1440h-198v-238l32 50q-54 94-154 156q-101 62-256 62zM604-165h0q92 0 164-40q71-41 112-115q41-74 41-175h0q0-101-41-175q-41-75-112-115q-72-40-164-40h0q-92 0-163 40q-71 40-112 115q-41 74-41 175h0q0 101 41 175q41 74 113 115q71 40 162 40z"/><path id="text242" d="M605 30h0q-160 0-281-65q-121-66-188-184q-68-118-68-274h0q0-114 39-210q39-97 110-168q71-71 167-110q95-39 208-39h0q123 0 219 44q96 43 160 121q63 78 90 183q26 104 8 226h0h-790q-2 89 39 156q41 66 118 103q76 37 180 37h0q84 0 163-25q78-26 142-76h0l85 158q-48 39-116 67q-68 27-142 42q-74 14-143 14zM292-608h0h561q-3-112-71-176q-69-64-195-64h0q-122 0-202 64q-81 64-93 176z"/><path id="text777" d="M561 30h0q-133 0-235-52q-102-52-160-143q-58-91-58-207h0q0-86 40-162q39-76 112-136q73-61 176-101h0q-62-62-98-113q-37-52-52-101q-15-49-15-107h0q0-93 52-170q51-77 137-122q86-46 191-46h0q109 0 195 42q86 42 136 117q49 75 49 172h0q0 111-78 201q-79 89-230 161h0l298 306q57-73 106-166q48-94 90-221h0l178 72q-27 79-67 159q-40 80-88 154q-48 74-99 134h0l280 299h-258l-152-159q-96 90-214 140q-118 49-236 49zM575-156h0q86 0 166-34q80-35 148-104h0l-337-350q-113 39-174 109q-61 70-61 157h0q0 101 70 162q69 60 188 60zM610-850h0q113-41 171-101q57-61 57-134h0q0-77-51-125q-52-48-133-48h0q-80 0-133 47q-54 47-54 121h0q0 59 33 113q32 54 110 127z"/><path id="text143" d="M406 0h-224v-1400h529q146 0 253 51q106 50 165 143q58 93 58 221h0q0 104-44 184q-45 80-125 132q-80 51-185 69h0l422 600h-271l-387-565h-191v565zM406-1210v459h268q136 0 212-58q75-58 75-166h0q0-111-67-173q-68-62-204-62h0h-284z"/><path id="text264" d="M543 450h0q-111 0-200-19q-89-20-151-57q-63-37-96-89q-33-52-33-116h0q0-51 28-96q27-45 82-77q54-33 133-49h0q-59-30-87-68q-29-38-29-87h0q0-42 25-79q24-38 70-67q45-30 107-49q62-19 137-22h0l48 96q-62-1-105 10q-44 10-67 29q-24 18-24 44h0q0 34 39 50q39 15 110 21h0l170 13q125 10 214 41q88 31 136 87q47 56 47 142h0q0 73-39 136q-40 62-113 108q-74 46-176 72q-102 26-226 26zM565 298h0q149 0 235-44q85-45 85-116h0q0-54-57-84q-57-30-174-38h0l-182-14q-64 5-110 24q-47 19-71 49q-24 30-24 68h0q0 46 36 81q36 35 103 55q67 19 159 19zM558-314h0q-124 0-222-47q-99-47-156-127q-57-80-57-179h0q0-99 58-179q57-80 156-127q98-47 221-47h0q123 0 221 47q98 47 156 127q57 80 57 179h0q0 98-57 178q-57 80-155 128q-98 47-222 47zM558-479h0q68 0 121-23q53-24 83-66q30-43 30-99h0q0-84-65-136q-66-53-169-53h0q-69 0-121 24q-53 24-83 67q-30 42-30 98h0q0 83 66 136q65 52 168 52zM1159-808l-447-8l-82-153l531-21l-2 182z"/><path id="text305" d="M373 0h-220v-990h220v126q62-83 144-119q82-37 170-37h0q136 0 225 54q89 54 133 139q43 85 43 175h0v652h-220v-584q0-106-63-170q-64-64-177-64h0q-74 0-131 33q-58 33-91 92q-33 58-33 136h0v557z"/><path id="text202" d="M428 30h0q-103 0-181-38q-78-39-121-109q-44-71-44-167h0q0-81 41-146q41-66 128-109q86-43 222-57q136-15 327 4h0l4 152q-136-19-234-16q-98 3-160 25q-63 21-92 57q-30 35-30 81h0q0 72 52 111q51 39 141 39h0q77 0 138-28q61-28 97-79q35-51 35-120h0v-263q0-66-28-114q-28-49-85-76q-57-27-142-27h0q-78 0-154 24q-76 23-145 73h0l-62-162q93-63 194-89q101-26 194-26h0q138 0 237 44q98 43 151 131q53 87 53 220h0v635h-198v-117q-50 71-139 109q-89 38-199 38z"/><path id="text183" d="M704 0h-236l-422-1400h235l305 1089l320-1089h233l318 1088l305-1088h228l-420 1400h-237l-313-1064l-316 1064z"/><path id="text294" d="M373 0h-220v-1440h220v852l390-402h260l-350 379l401 611h-263l-298-468l-140 142v326z"/><path id="text352" d="M487 29h0q-123 0-230-35q-107-35-180-94h0l83-161q69 54 156 85q86 31 170 31h0q97 0 151-34q54-34 54-95h0q0-58-46-85q-47-28-177-58h0q-187-39-271-110q-85-72-85-199h0q0-89 50-157q49-69 136-108q87-39 201-39h0q111 0 209 32q98 31 170 88h0l-78 162q-37-33-86-57q-49-24-103-37q-55-14-109-14h0q-84 0-136 33q-53 32-53 89h0q0 59 50 87q50 28 172 56h0q192 42 275 112q83 70 83 194h0q0 95-51 166q-51 70-142 109q-92 39-213 39z"/><path id="text756" d="M284 230h0l-168-68q55-88 97-188q41-100 69-208q28-108 42-222q13-114 13-228h0q0-231-55-454q-56-223-166-404h0l168-68q125 208 187 444q61 236 61 478h0q0 161-27 320q-28 158-83 309q-55 151-138 289z"/></defs><g fill="#F3F1EC"><use href="#num28" transform="translate(192.00 969.57) scale(0.02832)"/><use href="#link64" transform="translate(259.34 948.25) scale(0.02700)"/><use href="#link176" transform="translate(280.24 948.25) scale(0.02700)"/><use href="#link138" transform="translate(298.57 948.25) scale(0.02700)"/><use href="#link100" transform="translate(324.49 948.25) scale(0.02700)"/><use href="#link182" transform="translate(345.01 948.25) scale(0.02700)"/><use href="#link154" transform="translate(361.62 948.25) scale(0.02700)"/><use href="#link129" transform="translate(370.26 948.25) scale(0.02700)"/><use href="#link138" transform="translate(386.46 948.25) scale(0.02700)"/><use href="#link74" transform="translate(412.38 948.25) scale(0.02700)"/><use href="#link169" transform="translate(431.44 948.25) scale(0.02700)"/><use href="#link116" transform="translate(439.86 948.25) scale(0.02700)"/><use href="#link205" transform="translate(457.12 948.25) scale(0.02700)"/><use href="#link147" transform="translate(466.54 948.25) scale(0.02700)"/><use href="#link182" transform="translate(476.91 948.25) scale(0.02700)"/><use href="#link195" transform="translate(493.51 948.25) scale(0.02700)"/><use href="#link175" transform="translate(507.39 948.25) scale(0.02700)"/><use href="#link270" transform="translate(535.15 948.25) scale(0.02700)"/><use href="#link87" transform="translate(551.08 948.25) scale(0.02700)"/><use href="#link219" transform="translate(570.73 948.25) scale(0.02700)"/><use href="#link182" transform="translate(594.65 948.25) scale(0.02700)"/><use href="#link64" transform="translate(620.90 948.25) scale(0.02700)"/><use href="#link192" transform="translate(641.80 948.25) scale(0.02700)"/><use href="#link192" transform="translate(659.75 948.25) scale(0.02700)"/><use href="#link182" transform="translate(677.71 948.25) scale(0.02700)"/><use href="#link199" transform="translate(694.31 948.25) scale(0.02700)"/><use href="#link154" transform="translate(708.97 948.25) scale(0.02700)"/><use href="#link205" transform="translate(717.61 948.25) scale(0.02700)"/><use href="#link138" transform="translate(727.03 948.25) scale(0.02700)"/><rect x="259.3" y="952.8" width="484.0" height="1.2"/><use href="#link14" transform="translate(259.34 979.58) scale(0.02700)"/><use href="#link182" transform="translate(279.00 979.58) scale(0.02700)"/><use href="#link176" transform="translate(295.60 979.58) scale(0.02700)"/><use href="#link218" transform="translate(313.93 979.58) scale(0.02700)"/><use href="#link138" transform="translate(330.08 979.58) scale(0.02700)"/><use href="#link195" transform="translate(346.36 979.58) scale(0.02700)"/><use href="#link199" transform="translate(360.24 979.58) scale(0.02700)"/><use href="#link116" transform="translate(374.90 979.58) scale(0.02700)"/><use href="#link205" transform="translate(392.15 979.58) scale(0.02700)"/><use href="#link154" transform="translate(401.58 979.58) scale(0.02700)"/><use href="#link182" transform="translate(410.22 979.58) scale(0.02700)"/><use href="#link176" transform="translate(426.82 979.58) scale(0.02700)"/><use href="#link116" transform="translate(445.15 979.58) scale(0.02700)"/><use href="#link169" transform="translate(462.41 979.58) scale(0.02700)"/><use href="#link33" transform="translate(480.47 979.58) scale(0.02700)"/><use href="#link182" transform="translate(500.69 979.58) scale(0.02700)"/><use href="#link116" transform="translate(517.30 979.58) scale(0.02700)"/><use href="#link169" transform="translate(534.55 979.58) scale(0.02700)"/><use href="#link199" transform="translate(542.98 979.58) scale(0.02700)"/><rect x="259.3" y="984.1" width="298.3" height="1.2"/><use href="#text755" transform="translate(259.34 1006.40) scale(0.00775)"/><use href="#text182" transform="translate(264.70 1006.40) scale(0.00775)"/><use href="#text109" transform="translate(274.95 1006.40) scale(0.00775)"/><use href="#text1" transform="translate(287.84 1006.40) scale(0.00775)"/><use href="#text64" transform="translate(298.59 1006.40) scale(0.00775)"/><use href="#text100" transform="translate(314.02 1006.40) scale(0.00775)"/><use href="#text364" transform="translate(328.19 1006.40) scale(0.00775)"/><use href="#text297" transform="translate(337.56 1006.40) scale(0.00775)"/><use href="#text359" transform="translate(341.64 1006.40) scale(0.00775)"/><use href="#text273" transform="translate(348.30 1006.40) scale(0.00775)"/><use href="#text749" transform="translate(352.37 1006.40) scale(0.00775)"/><use href="#text140" transform="translate(358.40 1006.40) scale(0.00775)"/><use href="#text346" transform="translate(368.22 1006.40) scale(0.00775)"/><use href="#text312" transform="translate(374.58 1006.40) scale(0.00775)"/><use href="#text385" transform="translate(383.95 1006.40) scale(0.00775)"/><use href="#text273" transform="translate(392.04 1006.40) scale(0.00775)"/><use href="#text237" transform="translate(396.11 1006.40) scale(0.00775)"/><use href="#text242" transform="translate(406.13 1006.40) scale(0.00775)"/><use href="#text346" transform="translate(415.01 1006.40) scale(0.00775)"/><use href="#text777" transform="translate(425.17 1006.40) scale(0.00775)"/><use href="#text143" transform="translate(440.57 1006.40) scale(0.00775)"/><use href="#text242" transform="translate(450.87 1006.40) scale(0.00775)"/><use href="#text264" transform="translate(459.75 1006.40) scale(0.00775)"/><use href="#text273" transform="translate(469.02 1006.40) scale(0.00775)"/><use href="#text312" transform="translate(473.10 1006.40) scale(0.00775)"/><use href="#text305" transform="translate(482.47 1006.40) scale(0.00775)"/><use href="#text202" transform="translate(492.01 1006.40) scale(0.00775)"/><use href="#text297" transform="translate(500.57 1006.40) scale(0.00775)"/><use href="#text183" transform="translate(508.44 1006.40) scale(0.00775)"/><use href="#text312" transform="translate(524.23 1006.40) scale(0.00775)"/><use href="#text346" transform="translate(533.60 1006.40) scale(0.00775)"/><use href="#text294" transform="translate(539.96 1006.40) scale(0.00775)"/><use href="#text242" transform="translate(548.61 1006.40) scale(0.00775)"/><use href="#text346" transform="translate(557.48 1006.40) scale(0.00775)"/><use href="#text352" transform="translate(563.85 1006.40) scale(0.00775)"/><use href="#text756" transform="translate(571.50 1006.40) scale(0.00775)"/></g></g></g></svg>
