<svg xmlns="http://www.w3.org/2000/svg" viewBox="0 0 900 352" width="900" height="352" role="img" aria-labelledby="t d"><title id="t">Contact</title><desc id="d">A night sea: a moon with rings setting on the horizon, stars, and the address human-in-loop.dev written as a barcode with its reflection in the water. Links to human-in-loop.dev/contact/.</desc><style>.tw{animation:tw 4.3s ease-in-out infinite alternate}.tw.b{animation-duration:3.1s;animation-delay:-1.2s}.tw.c{animation-duration:5.7s;animation-delay:-2.9s}@keyframes tw{from{opacity:.25}to{opacity:1}}.sh{animation:sh 3.4s ease-in-out infinite alternate}@keyframes sh{from{transform:translateX(-2.5px)}to{transform:translateX(2.5px)}}@media (prefers-reduced-motion:reduce){.tw,.sh{animation:none}}</style><defs><clipPath id="panel"><path d="M0 0A0 0 0 0 1 0 0H900A0 0 0 0 1 900 0V334A18 18 0 0 1 882 352H18A18 18 0 0 1 0 334Z"/></clipPath></defs><g clip-path="url(#panel)"><rect width="900" height="352" fill="#0D0D0C"/><g transform="translate(0 22)"><defs><clipPath id="sky"><rect width="900" height="196"/></clipPath><path id="bars" d="M443.6 166L439.8 166L439.8 128.2L443.6 128.2L443.6 166ZM447.4 166L445.5 166L445.5 128.2L447.4 128.2L447.4 166ZM453.2 166L451.3 166L451.3 128.2L453.2 128.2L453.2 166ZM462.8 166L460.9 166L460.9 128.2L462.8 128.2L462.8 166ZM470.5 166L466.6 166L466.6 128.2L470.5 128.2L470.5 166ZM480.1 166L478.2 166L478.2 128.2L480.1 128.2L480.1 166ZM483.9 166L482 166L482 128.2L483.9 128.2L483.9 166ZM495.4 166L487.8 166L487.8 128.2L495.4 128.2L495.4 166ZM501.2 166L499.3 166L499.3 128.2L501.2 128.2L501.2 166ZM510.8 166L503.1 166L503.1 128.2L510.8 128.2L510.8 166ZM518.5 166L512.7 166L512.7 128.2L518.5 128.2L518.5 166ZM522.3 166L520.4 166L520.4 128.2L522.3 128.2L522.3 166ZM526.2 166L524.2 166L524.2 128.2L526.2 128.2L526.2 166ZM531.9 166L530 166L530 128.2L531.9 128.2L531.9 166ZM537.7 166L533.8 166L533.8 128.2L537.7 128.2L537.7 166ZM549.2 166L545.4 166L545.4 128.2L549.2 128.2L549.2 166ZM558.8 166L556.9 166L556.9 128.2L558.8 128.2L558.8 166ZM562.6 166L560.7 166L560.7 128.2L562.6 128.2L562.6 166ZM568.4 166L566.5 166L566.5 128.2L568.4 128.2L568.4 166ZM576.1 166L572.2 166L572.2 128.2L576.1 128.2L576.1 166ZM583.8 166L578 166L578 128.2L583.8 128.2L583.8 166ZM589.5 166L587.6 166L587.6 128.2L589.5 128.2L589.5 166ZM601.0 166L597.2 166L597.2 128.2L601.0 128.2L601.0 166ZM604.9 166L603.0 166L603.0 128.2L604.9 128.2L604.9 166ZM612.6 166L608.7 166L608.7 128.2L612.6 128.2L612.6 166ZM622.2 166L620.2 166L620.2 128.2L622.2 128.2L622.2 166ZM626 166L624.1 166L624.1 128.2L626 128.2L626 166ZM631.8 166L629.8 166L629.8 128.2L631.8 128.2L631.8 166ZM639.4 166L635.6 166L635.6 128.2L639.4 128.2L639.4 166ZM647.1 166L641.4 166L641.4 128.2L647.1 128.2L647.1 166ZM654.8 166L651.0 166L651.0 128.2L654.8 128.2L654.8 166ZM660.6 166L658.6 166L658.6 128.2L660.6 128.2L660.6 166ZM664.4 166L662.5 166L662.5 128.2L664.4 128.2L664.4 166ZM674 166L672.1 166L672.1 128.2L674 128.2L674 166ZM687.4 166L679.8 166L679.8 128.2L687.4 128.2L687.4 166ZM691.3 166L689.4 166L689.4 128.2L691.3 128.2L691.3 166ZM695.1 166L693.2 166L693.2 128.2L695.1 128.2L695.1 166ZM708.6 166L700.9 166L700.9 128.2L708.6 128.2L708.6 166ZM712.4 166L710.5 166L710.5 128.2L712.4 128.2L712.4 166ZM716.2 166L714.3 166L714.3 128.2L716.2 128.2L716.2 166ZM720.1 166L718.2 166L718.2 128.2L720.1 128.2L720.1 166ZM731.6 166L723.9 166L723.9 128.2L731.6 128.2L731.6 166ZM737.4 166L735.4 166L735.4 128.2L737.4 128.2L737.4 166ZM745.0 166L741.2 166L741.2 128.2L745.0 128.2L745.0 166ZM754.6 166L748.9 166L748.9 128.2L754.6 128.2L754.6 166ZM758.5 166L756.6 166L756.6 128.2L758.5 128.2L758.5 166ZM768.1 166L766.2 166L766.2 128.2L768.1 128.2L768.1 166ZM775.8 166L771.9 166L771.9 128.2L775.8 128.2L775.8 166ZM779.6 166L777.7 166L777.7 128.2L779.6 128.2L779.6 166ZM785.4 166L781.5 166L781.5 128.2L785.4 128.2L785.4 166ZM791.1 166L789.2 166L789.2 128.2L791.1 128.2L791.1 166ZM806.5 166L798.8 166L798.8 128.2L806.5 128.2L806.5 166ZM810.3 166L808.4 166L808.4 128.2L810.3 128.2L810.3 166ZM816.1 166L814.2 166L814.2 128.2L816.1 128.2L816.1 166ZM821.8 166L819.9 166L819.9 128.2L821.8 128.2L821.8 166ZM831.4 166L829.5 166L829.5 128.2L831.4 128.2L831.4 166ZM839.1 166L835.3 166L835.3 128.2L839.1 128.2L839.1 166ZM844.9 166L841.0 166L841.0 128.2L844.9 128.2L844.9 166ZM856.4 166L850.6 166L850.6 128.2L856.4 128.2L856.4 166ZM860.2 166L858.3 166L858.3 128.2L860.2 128.2L860.2 166ZM866 166L862.2 166L862.2 128.2L866 128.2L866 166Z"/><clipPath id="rs0"><rect x="0" y="220.0" width="900" height="3.1"/></clipPath><clipPath id="rs1"><rect x="0" y="224.7" width="900" height="3.0"/></clipPath><clipPath id="rs2"><rect x="0" y="229.4" width="900" height="2.9"/></clipPath><clipPath id="rs3"><rect x="0" y="234.2" width="900" height="2.8"/></clipPath><clipPath id="rs4"><rect x="0" y="238.9" width="900" height="2.6"/></clipPath><clipPath id="rs5"><rect x="0" y="243.6" width="900" height="2.5"/></clipPath><clipPath id="rs6"><rect x="0" y="248.3" width="900" height="2.4"/></clipPath><clipPath id="rs7"><rect x="0" y="253.0" width="900" height="2.3"/></clipPath></defs><g fill="#F3F1EC"><g class="tw a"><circle cx="394.5" cy="24.8" r="0.61"/><circle cx="623.1" cy="20.6" r="0.81"/><circle cx="746.2" cy="24.0" r="0.73"/><circle cx="65.5" cy="34.2" r="0.60"/><circle cx="624.6" cy="49.6" r="0.60"/><circle cx="737.5" cy="49.9" r="0.93"/><circle cx="907.4" cy="33.7" r="1.20"/><circle cx="533.2" cy="57.7" r="0.83"/><circle cx="736.7" cy="72.2" r="1.05"/><circle cx="252.3" cy="105.3" r="1.55"/><circle cx="460.8" cy="81.4" r="0.60"/><circle cx="486.8" cy="82.3" r="1.20"/><circle cx="550.8" cy="96.1" r="0.60"/><circle cx="188.7" cy="113.7" r="0.60"/><circle cx="326.7" cy="118.1" r="0.60"/><circle cx="424.5" cy="112.1" r="0.63"/><circle cx="464.1" cy="129.5" r="0.95"/><circle cx="595.0" cy="111.4" r="0.60"/><circle cx="671.5" cy="131.8" r="0.60"/><circle cx="717.6" cy="111.8" r="1.14"/><circle cx="820.5" cy="129.4" r="0.60"/><circle cx="904.8" cy="122.8" r="0.78"/><circle cx="566.6" cy="145.7" r="0.90"/><circle cx="639.0" cy="155.9" r="1.15"/><circle cx="686.9" cy="157.9" r="1.53"/><circle cx="131.0" cy="182.2" r="0.60"/><circle cx="184.8" cy="162.4" r="0.83"/><circle cx="612.2" cy="179.4" r="0.65"/></g><g class="tw b"><circle cx="75.8" cy="6.1" r="1.31"/><circle cx="95.9" cy="16.2" r="0.60"/><circle cx="350.2" cy="5.9" r="0.60"/><circle cx="441.1" cy="1.6" r="0.66"/><circle cx="557.3" cy="25.3" r="0.63"/><circle cx="581.0" cy="14.7" r="1.02"/><circle cx="27.5" cy="39.2" r="0.60"/><circle cx="207.2" cy="41.6" r="0.83"/><circle cx="431.4" cy="33.9" r="0.60"/><circle cx="588.4" cy="39.0" r="0.60"/><circle cx="851.4" cy="28.6" r="0.65"/><circle cx="194.6" cy="99.5" r="0.60"/><circle cx="696.1" cy="85.3" r="0.80"/><circle cx="624.1" cy="112.1" r="0.60"/><circle cx="784.7" cy="109.6" r="0.70"/><circle cx="138.4" cy="142.8" r="0.94"/><circle cx="181.0" cy="143.7" r="0.93"/><circle cx="747.0" cy="159.7" r="0.61"/><circle cx="805.7" cy="156.6" r="0.97"/><circle cx="217.6" cy="167.8" r="0.60"/><circle cx="255.0" cy="171.3" r="0.61"/><circle cx="509.0" cy="169.9" r="0.86"/><circle cx="731.1" cy="169.4" r="0.61"/><circle cx="900.5" cy="169.3" r="0.60"/></g><g class="tw c"><circle cx="32.8" cy="23.2" r="0.61"/><circle cx="904.9" cy="9.7" r="0.63"/><circle cx="265.0" cy="34.5" r="0.60"/><circle cx="359.1" cy="29.9" r="0.60"/><circle cx="522.2" cy="45.9" r="0.60"/><circle cx="799.5" cy="49.7" r="0.61"/><circle cx="481.8" cy="54.3" r="1.41"/><circle cx="583.5" cy="76.1" r="1.01"/><circle cx="692.9" cy="66.0" r="0.60"/><circle cx="705.4" cy="58.0" r="0.60"/><circle cx="292.9" cy="81.3" r="0.70"/><circle cx="370.1" cy="119.1" r="0.60"/><circle cx="837.8" cy="109.8" r="0.64"/><circle cx="387.3" cy="160.0" r="0.60"/><circle cx="874.2" cy="135.3" r="1.11"/><circle cx="662.4" cy="182.5" r="0.60"/><circle cx="721.1" cy="183.5" r="1.61"/><circle cx="852.5" cy="174.1" r="0.60"/></g></g><g fill="none" stroke="#F3F1EC" stroke-width="0.8" clip-path="url(#sky)"><circle cx="58" cy="134" r="72.0" stroke-opacity="0.90"/><circle cx="58" cy="134" r="75.6" stroke-opacity="0.88"/><circle cx="58" cy="134" r="79.2" stroke-opacity="0.85"/><circle cx="58" cy="134" r="82.8" stroke-opacity="0.83"/><circle cx="58" cy="134" r="86.4" stroke-opacity="0.80"/><circle cx="58" cy="134" r="90.0" stroke-opacity="0.78"/><circle cx="58" cy="134" r="93.6" stroke-opacity="0.75"/><circle cx="58" cy="134" r="97.2" stroke-opacity="0.72"/><circle cx="58" cy="134" r="100.8" stroke-opacity="0.70"/><circle cx="58" cy="134" r="104.4" stroke-opacity="0.68"/><circle cx="58" cy="134" r="108.0" stroke-opacity="0.65"/><circle cx="58" cy="134" r="111.6" stroke-opacity="0.63"/><circle cx="58" cy="134" r="115.2" stroke-opacity="0.60"/><circle cx="58" cy="134" r="118.8" stroke-opacity="0.57"/><circle cx="58" cy="134" r="122.4" stroke-opacity="0.55"/><circle cx="58" cy="134" r="126.0" stroke-opacity="0.53"/><circle cx="58" cy="134" r="129.6" stroke-opacity="0.50"/><circle cx="58" cy="134" r="133.2" stroke-opacity="0.48"/><circle cx="58" cy="134" r="136.8" stroke-opacity="0.45"/><circle cx="58" cy="134" r="140.4" stroke-opacity="0.42"/><circle cx="58" cy="134" r="144.0" stroke-opacity="0.40"/></g><circle cx="58" cy="134" r="60" fill="#F3F1EC" clip-path="url(#sky)"/><use href="#bars" fill="#F3F1EC"/><g fill="#F3F1EC"><g clip-path="url(#rs0)" opacity="0.95"><g class="sh" style="animation-delay:0.0s"><use href="#bars" transform="translate(1.9 386.0) scale(1 -1)"/></g></g><g clip-path="url(#rs1)" opacity="0.87"><g class="sh" style="animation-delay:-0.6s"><use href="#bars" transform="translate(-1.8 386.0) scale(1 -1)"/></g></g><g clip-path="url(#rs2)" opacity="0.79"><g class="sh" style="animation-delay:-1.2s"><use href="#bars" transform="translate(0.1 386.0) scale(1 -1)"/></g></g><g clip-path="url(#rs3)" opacity="0.71"><g class="sh" style="animation-delay:-1.8s"><use href="#bars" transform="translate(0.6 386.0) scale(1 -1)"/></g></g><g clip-path="url(#rs4)" opacity="0.63"><g class="sh" style="animation-delay:-2.4s"><use href="#bars" transform="translate(-2.1 386.0) scale(1 -1)"/></g></g><g clip-path="url(#rs5)" opacity="0.55"><g class="sh" style="animation-delay:-3.0s"><use href="#bars" transform="translate(4.7 386.0) scale(1 -1)"/></g></g><g clip-path="url(#rs6)" opacity="0.47"><g class="sh" style="animation-delay:-3.6s"><use href="#bars" transform="translate(-3.9 386.0) scale(1 -1)"/></g></g><g clip-path="url(#rs7)" opacity="0.39"><g class="sh" style="animation-delay:-4.2s"><use href="#bars" transform="translate(2.0 386.0) scale(1 -1)"/></g></g></g><path d="M0 196H900" stroke="#F3F1EC" stroke-width="1.3"/><g fill="none" stroke="#F3F1EC" stroke-linecap="round"><path d="M-10 199l6-0.1 6 0.1 6 0.1 6 0 6-0.1 6 0.1 6 0.1 6 0 6-0.1 6 0.1 6 0 6-0.2 6-0.1 6 0.1 6 0 6 0 6 0 6-0.1 6 0 6 0.1 6-0.1 6 0 6 0 6-0.1 6-0.1 6 0.1 6 0 6 0 6 0.1 6 0.1 6 0 6-0.1 6 0 6-0.1 6 0 6 0.1 6 0 6 0 6 0 6 0 6-0.1 6 0 6-0.1 6 0 6 0.2 6 0 6 0.1 6 0 6 0 6 0 6-0.1 6 0 6 0 6 0.1 6 0.1 6-0.3 6 0 6 0 6 0 6 0 6 0.1 6 0.2 6 0.1 6 0 6 0.1 6 0 6-0.2 6 0 6 0 6-0.1 6 0 6 0 6-0.1 6 0 6 0 6 0 6-0.1 6 0 6 0.1 6 0.2 6 0 6 0 6 0 6-0.1 6-0.1 6-0.1 6 0 6 0 6-0.1 6 0.1 6 0.1 6-0.1 6 0 6 0 6 0.1 6 0.1 6 0.1 6 0 6 0.1 6-0.2 6 0 6 0.1 6 0 6 0.1 6 0.1 6 0 6 0 6-0.1 6-0.1 6 0 6 0 6-0.1 6 0 6 0 6 0 6 0.1 6 0.1 6 0 6 0.1 6 0 6 0 6-0.1 6-0.1 6-0.1 6 0.1 6 0 6 0 6-0.1 6 0 6-0.1 6 0 6 0 6 0.1 6 0 6 0 6 0 6 0 6 0.1 6 0.1 6 0.1 6 0 6 0 6 0 6-0.1 6-0.1 6-0.1 6 0.1 6 0 6-0.1 6 0 6 0.2 6 0 6-0.1" stroke-width="0.45" stroke-opacity="0.71"/><path d="M-10 200.6l6-0.1 6-0.1 6 0.1 6 0.1 6-0.1 6-0.3 6-0.2 6 0 6-0.1 6-0.1 6 0 6 0 6 0 6 0.1 6-0.1 6-0.1 6 0.1 6 0.1 6 0.1 6 0 6 0 6 0.1 6 0.1 6 0 6 0.1 6 0.2 6 0.1 6-0.1 6-0.1 6-0.2 6-0.1 6 0 6-0.2 6-0.1 6 0.1 6 0 6-0.1 6 0 6 0.2 6 0.1 6 0.2 6 0.1 6 0 6-0.1 6-0.1 6-0.2 6 0 6 0 6 0 6 0 6 0.1 6 0 6 0.1 6 0 6-0.1 6-0.1 6-0.1 6-0.1 6 0 6 0.1 6 0 6-0.1 6 0.1 6 0.3 6 0 6-0.1 6 0 6 0.1 6 0 6-0.1 6-0.1 6 0 6 0 6-0.1 6 0.1 6 0.3 6 0.1 6-0.3 6-0.2 6-0.1 6 0 6 0 6 0.2 6 0.2 6 0.1 6 0.2 6 0.1 6-0.1 6-0.1 6 0 6 0 6 0.1 6 0.1 6 0 6 0 6 0 6-0.1 6 0 6 0 6-0.1 6-0.1 6-0.2 6-0.2 6 0 6 0.1 6 0.1 6-0.1 6 0 6 0 6 0 6 0 6 0 6-0.1 6 0 6 0.2 6 0.2 6 0 6 0.1 6 0.2 6 0 6-0.1 6-0.1 6-0.1 6 0 6-0.1 6-0.1 6 0.1 6 0.2 6-0.1 6-0.1 6 0.1 6 0.1 6-0.1 6-0.2 6 0.1 6 0 6 0.1 6 0.2 6 0.1 6 0 6-0.2 6-0.3 6-0.1 6 0.2 6 0.1 6 0 6 0 6 0.1 6 0 6-0.1 6-0.2 6-0.1 6 0" stroke-width="0.50" stroke-opacity="0.61"/><path d="M-10 202.1l6-0.2 6-0.2 6 0 6 0.2 6 0.1 6 0.1 6 0.1 6 0 6 0 6 0.1 6 0.1 6 0.2 6-0.1 6-0.2 6-0.1 6 0.1 6-0.1 6-0.1 6-0.2 6 0 6 0 6 0 6 0.3 6 0.3 6 0.1 6 0 6 0.1 6 0.2 6-0.1 6-0.1 6 0 6 0.1 6 0.1 6 0.1 6 0 6-0.1 6-0.4 6-0.3 6-0.1 6 0 6 0 6 0 6 0.1 6 0.3 6 0.2 6-0.1 6 0 6 0 6 0 6-0.1 6 0 6-0.1 6 0 6-0.1 6-0.1 6 0.1 6-0.1 6-0.1 6 0.1 6 0.2 6 0 6-0.1 6-0.1 6-0.1 6-0.1 6 0 6-0.2 6-0.1 6 0 6 0.3 6 0.2 6 0.2 6 0.3 6 0.2 6 0.1 6 0 6-0.1 6-0.1 6-0.1 6 0 6 0.1 6 0 6 0.1 6 0.1 6-0.1 6-0.2 6-0.1 6 0 6-0.3 6-0.4 6 0.1 6 0.3 6 0.2 6 0.1 6 0.1 6 0.2 6 0 6-0.1 6-0.2 6-0.1 6 0 6-0.1 6-0.2 6 0 6 0.2 6 0.3 6 0 6 0 6 0 6 0 6 0.2 6 0 6-0.3 6-0.3 6-0.2 6-0.1 6 0 6 0.1 6 0 6 0.1 6 0 6 0 6 0.2 6 0.2 6 0.3 6 0 6 0 6-0.2 6-0.2 6-0.1 6-0.1 6-0.2 6-0.2 6-0.2 6 0.1 6 0.1 6 0.1 6 0.2 6 0.3 6 0.2 6 0.1 6 0.1 6 0.1 6 0 6-0.2 6-0.2 6-0.2 6-0.1 6-0.1 6-0.2 6-0.1 6-0.1 6-0.1" stroke-width="0.55" stroke-opacity="0.77"/><path d="M-10 204.7l6 0.1 6 0.1 6 0.4 6 0.3 6 0.1 6 0 6 0.1 6 0.2 6-0.1 6-0.3 6-0.2 6-0.2 6 0 6 0 6-0.1 6-0.1 6-0.1 6 0 6 0.1 6 0.1 6 0.2 6 0.1 6 0.1 6-0.1 6 0 6-0.2 6-0.3 6-0.2 6 0.1 6 0.2 6 0.2 6 0.2 6 0.1 6 0 6 0.1 6 0.1 6 0.1 6 0.1 6-0.1 6-0.3 6-0.4 6-0.2 6 0 6-0.1 6-0.2 6 0.2 6 0.3 6 0.2 6 0 6 0 6 0.1 6 0 6-0.2 6-0.3 6-0.2 6-0.1 6 0.1 6 0.2 6 0.1 6 0 6-0.1 6-0.2 6 0 6 0.1 6 0.2 6 0.1 6 0.2 6 0.3 6 0.3 6 0.1 6-0.1 6-0.1 6 0 6-0.1 6-0.2 6-0.1 6 0 6 0.1 6 0.2 6 0 6 0.1 6 0.1 6-0.1 6-0.3 6-0.2 6-0.1 6-0.1 6-0.1 6-0.1 6 0.1 6 0.1 6 0 6-0.1 6 0.1 6 0.1 6 0 6-0.2 6-0.1 6 0.1 6 0 6 0 6-0.3 6 0 6 0.2 6 0.2 6 0 6 0.1 6 0.2 6-0.1 6-0.4 6-0.1 6 0.1 6 0.2 6-0.1 6-0.2 6-0.1 6-0.1 6 0.1 6 0.2 6 0.3 6 0 6-0.1 6 0.1 6 0.1 6-0.2 6-0.1 6-0.1 6 0 6 0.1 6 0.2 6 0.2 6-0.1 6-0.1 6-0.1 6-0.1 6 0 6-0.1 6-0.2 6-0.1 6 0.1 6 0.2 6 0 6 0 6 0.2 6 0.3 6 0.1 6-0.2 6-0.2 6-0.1 6 0 6-0.2 6-0.1 6 0.1" stroke-width="0.60" stroke-opacity="0.68"/><path d="M-10 209.2l6-0.2 6-0.4 6-0.1 6 0.1 6 0 6-0.1 6-0.3 6-0.1 6 0.2 6 0.3 6 0 6 0.1 6 0.2 6 0.3 6 0.1 6-0.1 6-0.1 6 0.1 6 0.1 6-0.1 6-0.3 6-0.2 6-0.2 6-0.3 6 0 6 0.2 6 0.2 6 0.2 6 0.2 6 0 6-0.1 6 0.1 6 0.1 6-0.1 6-0.2 6-0.2 6-0.1 6 0 6 0 6 0.1 6 0.2 6 0.1 6 0 6 0.1 6 0.3 6 0.3 6 0.1 6-0.1 6-0.3 6-0.4 6-0.2 6 0 6-0.1 6-0.2 6-0.2 6 0.1 6 0.1 6 0.1 6-0.1 6-0.2 6 0.1 6 0.1 6 0.2 6-0.2 6-0.3 6-0.2 6-0.1 6 0.2 6 0.3 6-0.1 6-0.2 6-0.1 6 0 6 0.1 6 0.1 6 0.1 6 0.2 6 0.3 6 0.3 6 0.3 6 0.2 6-0.1 6-0.1 6-0.2 6 0 6 0 6 0.1 6 0.2 6 0 6-0.1 6-0.1 6 0.2 6 0.3 6 0.1 6-0.3 6-0.2 6-0.1 6 0.2 6 0.2 6 0 6-0.2 6-0.4 6-0.3 6-0.1 6 0 6-0.2 6-0.4 6 0 6 0.2 6 0.3 6 0.1 6-0.1 6 0 6-0.1 6-0.1 6-0.1 6 0 6 0.1 6 0.1 6 0.1 6 0 6-0.1 6 0.1 6 0 6 0 6 0.1 6-0.1 6-0.2 6-0.3 6-0.1 6 0.1 6 0.1 6-0.1 6-0.1 6 0.2 6 0.4 6 0.2 6 0.1 6-0.1 6 0 6 0 6-0.2 6-0.3 6-0.1 6 0.2 6 0.2 6-0.1 6-0.1 6-0.2 6-0.1 6-0.1 6-0.2 6 0" stroke-width="0.65" stroke-opacity="0.52"/><path d="M-10 212.8l6-0.1 6 0 6 0.2 6-0.1 6-0.5 6-0.5 6-0.3 6 0 6 0.1 6 0 6 0 6 0.1 6 0.3 6 0.3 6 0 6-0.1 6-0.3 6-0.3 6-0.1 6 0.1 6 0.3 6 0.4 6 0.3 6 0.3 6 0 6-0.1 6-0.2 6-0.1 6 0.2 6 0.2 6-0.1 6-0.3 6 0 6 0.2 6 0.2 6 0.1 6 0 6 0 6 0.1 6 0.1 6-0.2 6-0.4 6-0.3 6 0.1 6 0.2 6-0.2 6-0.4 6-0.4 6-0.1 6 0.2 6 0.3 6 0.2 6 0.1 6-0.1 6-0.1 6 0.1 6 0.2 6 0.2 6 0 6 0.1 6-0.1 6-0.3 6-0.4 6-0.1 6 0.2 6 0.3 6 0.3 6 0.1 6 0.1 6 0 6-0.1 6 0.1 6 0.1 6 0.2 6 0.3 6 0.1 6-0.1 6-0.3 6-0.2 6-0.1 6 0 6-0.1 6 0 6 0 6-0.1 6-0.2 6-0.1 6 0 6 0.1 6 0 6 0 6-0.1 6-0.1 6 0 6 0.1 6 0 6-0.1 6 0.3 6 0.3 6 0.3 6 0.1 6 0 6-0.1 6-0.4 6-0.4 6-0.2 6 0.1 6 0.2 6 0.1 6-0.1 6 0 6 0.1 6 0 6 0 6 0 6 0.1 6 0.2 6 0 6-0.1 6-0.2 6-0.2 6-0.3 6-0.2 6 0 6 0.4 6 0.4 6 0.1 6-0.1 6-0.1 6 0 6 0.2 6 0 6 0 6 0.1 6 0.2 6 0.2 6 0.1 6-0.1 6 0 6 0.1 6 0 6-0.1 6-0.1 6-0.1 6 0 6 0 6 0.2 6 0.1 6-0.1 6-0.1 6-0.1 6 0 6 0.1" stroke-width="0.70" stroke-opacity="0.54"/><path d="M-10 216.2l6-0.2 6-0.1 6 0 6 0.1 6 0 6 0.1 6 0.2 6 0.2 6 0.2 6 0.3 6 0.2 6 0 6-0.3 6-0.2 6-0.2 6-0.1 6 0 6-0.1 6 0 6-0.2 6-0.2 6 0.1 6 0.2 6 0.2 6 0 6-0.2 6-0.2 6-0.1 6-0.1 6 0 6 0 6 0 6-0.1 6-0.1 6 0.2 6 0.3 6 0.4 6 0.4 6 0.2 6 0.2 6 0.2 6 0.3 6 0.3 6 0 6-0.3 6-0.5 6-0.5 6-0.2 6 0 6 0 6-0.2 6-0.3 6-0.1 6 0.1 6 0.4 6 0.4 6 0.3 6 0.1 6 0 6-0.1 6-0.1 6-0.2 6-0.3 6-0.3 6-0.3 6-0.3 6 0 6 0.2 6 0.3 6 0.3 6-0.1 6-0.1 6-0.2 6-0.2 6-0.1 6 0 6 0 6 0 6-0.1 6 0.1 6 0.1 6 0.3 6 0.3 6 0.3 6 0.3 6 0.3 6 0.4 6 0.3 6 0 6-0.3 6-0.5 6-0.4 6-0.2 6 0 6-0.1 6-0.2 6-0.2 6 0.1 6 0.2 6 0.3 6 0.1 6 0 6 0.1 6 0.3 6 0.1 6-0.1 6-0.5 6-0.4 6-0.3 6 0.1 6 0.1 6 0.1 6-0.2 6-0.1 6 0.1 6 0.1 6 0.2 6 0.2 6 0.3 6 0.2 6 0.2 6 0 6 0 6 0.1 6 0.1 6 0.2 6 0.2 6 0.2 6 0 6-0.1 6-0.3 6-0.1 6 0.1 6-0.1 6-0.4 6-0.7 6-0.5 6-0.2 6 0.2 6 0.2 6 0 6 0 6 0.1 6 0.4 6 0.4 6 0.2 6 0 6 0 6 0.2 6 0.3 6 0.1 6-0.4 6-0.3" stroke-width="0.75" stroke-opacity="0.73"/><path d="M-10 221.3l6 0 6-0.1 6-0.2 6-0.2 6-0.1 6 0 6 0.1 6 0.2 6 0.2 6 0.1 6 0.1 6 0.1 6 0 6 0 6 0 6-0.1 6 0 6 0.2 6 0.2 6 0 6-0.1 6-0.2 6-0.1 6 0.1 6 0.1 6 0.1 6 0 6-0.2 6-0.1 6 0 6 0.1 6 0.1 6 0.1 6 0.2 6 0.4 6 0.4 6 0.3 6 0.1 6-0.1 6-0.3 6-0.3 6-0.4 6-0.3 6-0.3 6-0.1 6 0 6 0 6 0.2 6 0 6 0 6-0.1 6-0.1 6-0.1 6-0.1 6 0.1 6 0.2 6 0.3 6 0.3 6 0.2 6 0 6 0 6 0 6-0.2 6-0.1 6 0 6-0.1 6-0.2 6-0.3 6-0.3 6-0.2 6-0.2 6-0.3 6-0.1 6 0.1 6 0.3 6 0.1 6 0 6-0.1 6 0 6 0.2 6 0.2 6 0.2 6 0 6-0.1 6-0.2 6 0 6 0.1 6 0.3 6 0.3 6 0.3 6 0 6 0 6-0.1 6 0 6 0.1 6 0.2 6-0.1 6-0.3 6-0.4 6-0.3 6 0.2 6 0.5 6 0.4 6 0.2 6 0.1 6 0 6 0 6 0.2 6 0 6 0 6 0 6 0 6 0 6-0.2 6-0.3 6-0.3 6-0.3 6-0.4 6-0.4 6-0.3 6 0 6 0.3 6 0.6 6 0.4 6 0.2 6 0 6-0.2 6 0 6 0.2 6 0.1 6 0.1 6-0.1 6-0.2 6-0.1 6 0 6 0 6 0.1 6 0.2 6 0.1 6-0.1 6-0.2 6-0.2 6-0.3 6-0.2 6-0.2 6-0.2 6-0.2 6-0.1 6 0 6 0.2 6 0.2 6 0.2 6 0.3" stroke-width="0.80" stroke-opacity="0.61"/><path d="M-10 226l6 0.2 6 0.2 6 0.2 6 0.2 6 0.1 6-0.1 6-0.2 6-0.1 6-0.1 6 0.2 6 0.1 6 0 6-0.3 6-0.4 6-0.2 6 0.1 6 0.4 6 0.5 6 0.3 6 0.2 6 0 6 0.1 6 0.3 6 0.3 6 0.2 6-0.1 6-0.4 6-0.5 6-0.4 6-0.2 6 0 6 0 6 0 6-0.1 6 0 6 0 6 0.1 6 0.2 6 0.1 6 0 6-0.1 6 0 6 0 6 0 6-0.1 6-0.3 6-0.3 6-0.1 6 0 6-0.1 6-0.2 6-0.2 6-0.1 6 0.2 6 0.4 6 0.4 6 0.2 6 0 6 0.1 6 0.1 6 0.3 6 0.3 6 0.3 6 0.2 6 0.3 6 0.2 6 0.1 6-0.2 6-0.4 6-0.4 6-0.5 6-0.4 6-0.3 6-0.4 6-0.3 6-0.2 6 0.1 6 0.3 6 0.3 6 0.2 6 0.1 6 0 6 0 6 0.3 6 0.2 6 0.1 6 0 6-0.1 6 0.1 6 0.1 6 0.4 6 0.3 6 0.3 6 0 6-0.1 6-0.2 6-0.4 6-0.5 6-0.4 6-0.4 6-0.3 6-0.1 6 0.1 6 0 6 0 6 0 6 0 6 0.1 6 0.3 6 0.3 6 0.3 6 0.3 6 0.3 6 0.4 6 0.3 6 0.1 6 0.1 6 0.1 6 0 6 0 6-0.3 6-0.4 6-0.5 6-0.5 6-0.4 6-0.2 6 0 6 0 6 0 6 0.1 6 0.4 6 0.6 6 0.6 6 0.3 6 0.1 6-0.3 6-0.2 6-0.1 6-0.1 6-0.2 6-0.3 6-0.5 6-0.6 6-0.5 6-0.2 6 0.2 6 0.3 6 0.3 6 0.3 6 0 6 0.1 6 0.1 6 0.2" stroke-width="0.85" stroke-opacity="0.65"/><path d="M-10 232.9l6-0.5 6-0.5 6-0.2 6-0.1 6 0.1 6 0.2 6 0.1 6 0 6-0.2 6-0.1 6 0 6 0.2 6 0.3 6 0.3 6 0.3 6 0.1 6-0.1 6-0.1 6-0.2 6-0.1 6-0.3 6-0.3 6-0.4 6-0.4 6-0.1 6 0.2 6 0.5 6 0.5 6 0.5 6 0.3 6 0.3 6 0.3 6 0.3 6 0.1 6-0.2 6-0.4 6-0.4 6-0.4 6-0.1 6 0 6 0.1 6 0 6 0.1 6 0 6 0.1 6 0 6 0 6 0 6 0.1 6 0.2 6 0.1 6-0.1 6-0.3 6-0.4 6-0.5 6-0.5 6-0.3 6-0.1 6 0.1 6 0.2 6 0.2 6 0.1 6 0 6-0.1 6 0.1 6 0.4 6 0.4 6 0.4 6 0.3 6 0.1 6-0.1 6-0.1 6 0 6 0.2 6 0.2 6 0.2 6 0.1 6-0.1 6-0.2 6-0.2 6 0 6 0 6 0.1 6-0.1 6-0.3 6-0.4 6-0.6 6-0.4 6-0.2 6 0.1 6 0.3 6 0.1 6 0 6-0.2 6-0.2 6 0 6 0.1 6 0.1 6 0.1 6 0.1 6 0.1 6 0.3 6 0.4 6 0.4 6 0.3 6 0.4 6 0.2 6 0.1 6-0.1 6-0.4 6-0.5 6-0.6 6-0.4 6-0.1 6 0.1 6 0.1 6 0.1 6 0.1 6 0.1 6 0.1 6 0.2 6 0.2 6 0.1 6 0.1 6 0 6 0 6-0.2 6-0.1 6-0.2 6 0 6 0.2 6 0.3 6 0.4 6 0.3 6 0.2 6 0 6 0 6 0.1 6 0 6 0 6-0.2 6-0.3 6-0.4 6-0.2 6 0 6 0.3 6 0.1 6 0 6-0.2 6-0.2 6-0.2 6 0 6 0.1" stroke-width="0.90" stroke-opacity="0.72"/><path d="M-10 238.5l6-0.1 6-0.1 6 0.1 6 0.2 6 0.3 6 0.1 6-0.2 6-0.4 6-0.4 6-0.2 6-0.1 6 0.1 6 0.1 6 0.1 6 0 6-0.1 6-0.2 6-0.2 6-0.1 6 0.1 6 0.3 6 0.5 6 0.5 6 0.4 6 0.1 6 0 6-0.2 6-0.3 6-0.4 6-0.4 6-0.4 6-0.2 6-0.1 6 0 6-0.1 6-0.3 6-0.2 6-0.2 6 0 6 0.2 6 0.4 6 0.5 6 0.4 6 0.3 6 0.2 6 0.1 6 0.1 6 0.1 6 0.1 6 0 6-0.1 6-0.2 6-0.2 6 0 6 0.1 6 0.2 6 0 6-0.2 6-0.3 6-0.4 6-0.3 6-0.3 6-0.1 6-0.1 6 0 6 0 6 0.1 6 0.1 6 0.1 6 0.1 6 0 6-0.1 6-0.1 6-0.1 6 0.1 6 0.4 6 0.3 6 0.4 6 0.2 6 0.2 6 0.2 6 0.2 6 0.2 6 0.1 6 0.1 6 0.1 6 0.1 6 0.2 6 0.2 6 0.1 6 0 6-0.1 6-0.3 6-0.3 6-0.3 6-0.3 6-0.4 6-0.4 6-0.5 6-0.4 6-0.3 6-0.2 6-0.1 6 0 6 0.1 6 0.2 6 0 6-0.1 6-0.2 6-0.2 6-0.1 6 0.1 6 0.3 6 0.3 6 0 6-0.2 6-0.3 6-0.2 6 0 6 0.3 6 0.4 6 0.4 6 0.4 6 0.2 6 0.1 6 0 6 0.1 6 0.1 6 0.1 6 0.1 6 0 6-0.1 6-0.2 6-0.3 6-0.2 6-0.1 6-0.1 6-0.1 6 0 6-0.2 6-0.2 6-0.3 6-0.1 6 0 6 0.3 6 0.3 6 0.1 6 0 6-0.2 6 0 6 0 6 0.2 6 0.1" stroke-width="0.95" stroke-opacity="0.67"/><path d="M-10 242l6 0 6 0.4 6 0.4 6 0.4 6 0.3 6 0 6 0.1 6 0.3 6 0.4 6 0.5 6 0.3 6 0.1 6-0.1 6-0.1 6-0.1 6 0.2 6 0.2 6 0.1 6 0 6-0.1 6-0.2 6-0.1 6 0 6-0.2 6-0.2 6-0.2 6-0.1 6 0 6 0.3 6 0.3 6 0.1 6-0.2 6-0.5 6-0.4 6-0.2 6 0 6 0.4 6 0.4 6 0.2 6-0.1 6-0.3 6-0.3 6-0.4 6-0.4 6-0.3 6-0.1 6-0.1 6-0.1 6 0 6 0 6-0.1 6-0.1 6 0 6 0 6 0.1 6 0.2 6 0.1 6 0.1 6 0 6-0.1 6 0 6 0.2 6 0.3 6 0.5 6 0.4 6 0.3 6 0.1 6-0.1 6-0.2 6-0.3 6-0.2 6-0.1 6 0.1 6 0.2 6 0.2 6 0 6-0.1 6-0.2 6-0.2 6-0.1 6 0.1 6 0.1 6 0 6-0.1 6-0.1 6-0.1 6 0 6 0 6 0.2 6 0.4 6 0.5 6 0.4 6 0.3 6 0.1 6 0 6-0.1 6-0.1 6 0 6 0 6 0 6-0.2 6-0.3 6-0.4 6-0.3 6-0.3 6-0.2 6-0.2 6-0.3 6-0.4 6-0.2 6 0.1 6 0.5 6 0.7 6 0.8 6 0.4 6 0.1 6 0 6-0.1 6 0 6 0.4 6 0.5 6 0.5 6 0.2 6-0.2 6-0.5 6-0.5 6-0.6 6-0.4 6-0.3 6-0.1 6 0.1 6 0 6 0 6-0.3 6-0.6 6-0.6 6-0.3 6 0.1 6 0.3 6 0.4 6 0.3 6 0.2 6 0.1 6 0.1 6 0.1 6 0.1 6 0 6-0.1 6-0.2 6-0.1 6-0.2 6-0.1 6-0.2" stroke-width="1.00" stroke-opacity="0.62"/><path d="M-10 251.4l6 0 6 0 6 0 6-0.2 6-0.2 6-0.1 6 0.1 6 0.3 6 0.3 6 0.2 6 0 6-0.2 6-0.4 6-0.3 6-0.1 6 0 6 0.3 6 0.3 6 0.3 6 0.2 6 0.2 6 0.1 6 0.1 6 0 6 0 6-0.1 6-0.3 6-0.3 6-0.2 6 0 6 0.3 6 0.4 6 0.3 6 0.2 6-0.1 6-0.3 6-0.3 6-0.3 6-0.2 6 0 6 0.1 6-0.1 6-0.4 6-0.5 6-0.6 6-0.5 6-0.3 6-0.1 6-0.1 6-0.1 6-0.1 6 0 6 0.2 6 0.4 6 0.5 6 0.6 6 0.5 6 0.3 6 0.1 6 0 6 0 6 0 6-0.1 6 0 6-0.2 6-0.2 6-0.4 6-0.3 6-0.2 6-0.2 6-0.2 6-0.1 6-0.2 6 0 6 0 6 0 6 0.1 6 0 6 0.2 6 0.2 6 0.4 6 0.4 6 0.4 6 0.2 6 0.1 6-0.1 6-0.3 6-0.4 6-0.3 6-0.1 6 0.1 6 0.3 6 0.4 6 0.2 6-0.1 6-0.4 6-0.7 6-0.6 6-0.4 6-0.1 6 0 6 0.1 6 0.1 6 0 6-0.2 6-0.3 6-0.2 6 0.1 6 0.2 6 0.3 6 0.4 6 0.2 6 0.1 6 0 6-0.1 6-0.2 6-0.1 6 0.1 6 0.2 6 0.4 6 0.4 6 0.2 6 0 6-0.3 6-0.4 6-0.3 6-0.1 6 0 6 0 6 0.1 6-0.1 6-0.1 6 0 6 0.1 6 0.1 6 0.2 6 0.2 6 0.1 6 0 6 0 6 0 6 0 6-0.2 6-0.2 6-0.3 6-0.3 6-0.1 6 0 6 0.2 6 0.2 6 0.2 6 0.3 6 0.4" stroke-width="1.05" stroke-opacity="0.85"/><path d="M-10 255.8l6-0.3 6-0.2 6-0.1 6 0.2 6 0.4 6 0.5 6 0.5 6 0.2 6-0.2 6-0.5 6-0.7 6-0.6 6-0.2 6 0.1 6 0.3 6 0.5 6 0.4 6 0.3 6 0.1 6 0.2 6 0.3 6 0.4 6 0.4 6 0.3 6 0.1 6 0.3 6 0.3 6 0.4 6 0.3 6 0.2 6 0 6-0.2 6-0.4 6-0.4 6-0.5 6-0.4 6-0.3 6-0.2 6-0.1 6-0.1 6 0 6-0.1 6-0.2 6-0.2 6-0.3 6-0.2 6 0 6 0.2 6 0.4 6 0.3 6 0.3 6 0.1 6-0.1 6-0.2 6-0.3 6-0.3 6 0 6 0 6 0.3 6 0.5 6 0.5 6 0.5 6 0.2 6 0 6-0.1 6-0.3 6-0.2 6-0.3 6-0.3 6-0.3 6-0.2 6 0 6 0 6 0.2 6 0.2 6 0.1 6-0.2 6-0.5 6-0.6 6-0.5 6-0.4 6-0.2 6 0 6 0 6 0 6 0 6 0 6 0.1 6 0.2 6 0.2 6 0.3 6 0.2 6-0.1 6-0.2 6-0.3 6-0.1 6 0 6 0.2 6 0.3 6 0.4 6 0.3 6 0.1 6 0 6-0.1 6-0.1 6 0.1 6 0.2 6 0.4 6 0.4 6 0.3 6 0.2 6-0.1 6-0.1 6-0.1 6 0 6 0.2 6 0.3 6 0.2 6 0.2 6 0 6-0.1 6-0.2 6-0.2 6-0.3 6-0.4 6-0.5 6-0.6 6-0.5 6-0.4 6-0.2 6 0.1 6 0.3 6 0.5 6 0.5 6 0.5 6 0.4 6 0.4 6 0.3 6 0.3 6 0.2 6 0.1 6 0 6-0.1 6-0.1 6-0.1 6-0.1 6-0.2 6-0.2 6-0.4 6-0.5 6-0.5 6-0.6 6-0.5" stroke-width="1.10" stroke-opacity="0.80"/><path d="M-10 263.9l6-0.3 6-0.2 6 0 6 0.1 6-0.1 6-0.2 6-0.5 6-0.5 6-0.5 6-0.3 6 0 6 0.3 6 0.7 6 0.5 6 0.3 6-0.2 6-0.4 6-0.5 6-0.5 6-0.3 6-0.1 6 0.1 6 0.1 6 0 6-0.1 6-0.1 6-0.1 6 0.2 6 0.4 6 0.5 6 0.6 6 0.5 6 0.3 6 0.1 6 0.1 6 0.1 6 0.1 6 0.4 6 0.3 6 0.4 6 0.2 6 0.1 6 0.1 6 0.1 6 0.1 6 0.1 6 0.1 6 0 6-0.1 6 0 6 0 6 0.2 6 0.1 6 0.1 6 0 6-0.4 6-0.5 6-0.7 6-0.7 6-0.6 6-0.3 6-0.2 6-0.1 6-0.2 6-0.3 6-0.3 6-0.3 6 0 6 0.2 6 0.4 6 0.5 6 0.7 6 0.6 6 0.7 6 0.6 6 0.4 6 0.3 6 0.2 6 0 6-0.1 6-0.1 6-0.2 6-0.1 6-0.2 6-0.4 6-0.4 6-0.6 6-0.6 6-0.6 6-0.4 6-0.3 6-0.3 6-0.1 6 0 6-0.1 6-0.1 6 0 6-0.1 6 0 6-0.1 6-0.1 6 0.1 6 0.3 6 0.5 6 0.6 6 0.6 6 0.5 6 0.4 6 0.4 6 0.3 6 0.3 6 0.3 6 0 6-0.2 6-0.4 6-0.5 6-0.2 6-0.1 6 0.1 6 0.1 6 0 6-0.1 6-0.3 6-0.2 6 0 6 0 6 0.3 6 0.3 6 0.2 6 0.2 6-0.1 6-0.2 6-0.3 6-0.5 6-0.5 6-0.5 6-0.5 6-0.4 6-0.2 6-0.1 6 0 6 0.2 6 0.1 6 0.2 6 0.1 6 0.2 6 0 6 0.1 6 0 6-0.1 6 0.1 6 0.1 6 0.2" stroke-width="1.15" stroke-opacity="0.50"/><path d="M-10 271.2l6 0.3 6 0.4 6 0.4 6 0.4 6 0.5 6 0.4 6 0.3 6 0.3 6 0.1 6-0.1 6-0.2 6-0.4 6-0.4 6-0.4 6-0.4 6-0.4 6-0.3 6-0.2 6-0.2 6-0.1 6-0.1 6-0.1 6-0.1 6-0.1 6 0 6 0 6 0 6 0.1 6 0 6 0 6 0 6 0.2 6 0.4 6 0.5 6 0.6 6 0.4 6 0.2 6 0.1 6 0 6 0.1 6 0.1 6 0.1 6 0.1 6 0 6-0.1 6-0.2 6-0.3 6-0.4 6-0.5 6-0.5 6-0.5 6-0.3 6-0.3 6-0.2 6-0.2 6-0.4 6-0.4 6-0.3 6-0.3 6 0 6 0.2 6 0.5 6 0.5 6 0.6 6 0.5 6 0.3 6 0.1 6 0 6-0.1 6-0.2 6-0.3 6-0.3 6-0.4 6-0.4 6-0.3 6-0.3 6-0.1 6-0.1 6 0.2 6 0.2 6 0.2 6 0.2 6 0.1 6 0 6 0 6 0.1 6 0.2 6 0.4 6 0.5 6 0.5 6 0.5 6 0.4 6 0.2 6 0.1 6 0.1 6 0.1 6 0.2 6 0.2 6 0.1 6 0.2 6 0 6-0.1 6 0 6-0.1 6 0 6 0.1 6 0.1 6 0.2 6 0.2 6 0.2 6 0.1 6 0.1 6-0.1 6-0.2 6-0.2 6-0.2 6-0.2 6-0.3 6-0.2 6-0.2 6-0.1 6 0 6-0.1 6-0.2 6-0.2 6-0.4 6-0.4 6-0.4 6-0.5 6-0.4 6-0.4 6-0.4 6-0.3 6 0 6 0.1 6 0.3 6 0.3 6 0.2 6 0.1 6-0.1 6-0.1 6-0.2 6-0.3 6-0.2 6-0.1 6 0 6 0.2 6 0.3 6 0.5 6 0.5 6 0.4 6 0.1 6 0" stroke-width="1.20" stroke-opacity="0.70"/><path d="M-10 280.1l6-0.6 6-0.4 6-0.3 6-0.3 6-0.2 6-0.2 6-0.1 6-0.1 6 0 6 0.1 6 0 6 0.1 6 0.1 6 0.2 6 0.3 6 0.4 6 0.5 6 0.6 6 0.5 6 0.3 6 0.2 6 0 6-0.2 6-0.2 6-0.3 6-0.4 6-0.4 6-0.3 6-0.3 6-0.4 6-0.5 6-0.6 6-0.6 6-0.5 6-0.4 6-0.1 6 0.2 6 0.4 6 0.6 6 0.6 6 0.5 6 0.3 6 0.2 6 0.1 6-0.1 6-0.1 6-0.2 6-0.2 6 0.1 6 0.2 6 0.3 6 0.4 6 0.3 6 0.1 6-0.1 6-0.5 6-0.6 6-0.6 6-0.4 6 0 6 0.1 6 0.2 6 0.2 6 0.1 6 0 6-0.2 6-0.2 6-0.1 6-0.1 6-0.1 6-0.1 6-0.2 6-0.2 6-0.2 6-0.1 6 0.1 6 0.1 6 0.2 6 0.2 6 0.2 6 0.2 6 0.3 6 0.3 6 0.4 6 0.2 6 0 6-0.2 6-0.3 6-0.3 6-0.3 6-0.3 6-0.3 6-0.2 6-0.2 6-0.3 6-0.4 6-0.2 6-0.1 6 0.2 6 0.4 6 0.6 6 0.7 6 0.6 6 0.5 6 0.5 6 0.4 6 0.4 6 0.6 6 0.5 6 0.5 6 0.4 6 0.1 6 0.1 6 0 6 0 6-0.1 6-0.2 6-0.3 6-0.2 6-0.3 6-0.2 6-0.2 6-0.1 6 0 6 0 6 0 6 0.1 6 0.2 6 0.2 6 0.2 6 0 6-0.1 6-0.2 6-0.4 6-0.6 6-0.5 6-0.5 6-0.4 6-0.4 6-0.2 6-0.2 6-0.1 6-0.1 6 0 6 0 6 0.1 6 0.1 6 0.1 6 0 6-0.1 6-0.1 6-0.1 6 0" stroke-width="1.25" stroke-opacity="0.75"/><path d="M-10 285.5l6-0.1 6-0.1 6-0.1 6 0.1 6 0.2 6 0.2 6 0.1 6 0.1 6 0.1 6 0.2 6 0.3 6 0.3 6 0.3 6 0.3 6 0.1 6 0.1 6 0.1 6 0 6 0.2 6 0.1 6 0 6 0 6 0 6 0 6 0 6 0.1 6 0.1 6 0.1 6 0 6-0.1 6-0.2 6-0.2 6-0.3 6-0.2 6-0.1 6 0.1 6 0.2 6 0.2 6 0.3 6 0.4 6 0.2 6 0.2 6 0 6-0.2 6-0.2 6-0.1 6-0.1 6 0 6 0 6-0.1 6-0.3 6-0.4 6-0.3 6-0.2 6-0.2 6 0.1 6 0 6 0.1 6 0 6-0.2 6-0.3 6-0.3 6-0.1 6 0.2 6 0.4 6 0.7 6 0.7 6 0.6 6 0.5 6 0.3 6 0.2 6 0 6 0 6-0.1 6 0 6-0.2 6-0.2 6-0.4 6-0.5 6-0.4 6-0.4 6-0.2 6-0.1 6-0.1 6 0.2 6 0.2 6 0.2 6 0.3 6 0.3 6 0.3 6 0.3 6 0.2 6 0.1 6 0 6-0.2 6-0.3 6-0.3 6-0.2 6-0.1 6 0 6 0 6 0 6 0 6 0 6-0.2 6-0.1 6 0 6-0.1 6-0.2 6-0.2 6-0.2 6-0.2 6-0.1 6 0 6 0.1 6 0.2 6 0.1 6 0.1 6 0 6-0.1 6 0 6 0 6 0 6 0 6 0 6-0.1 6-0.1 6-0.2 6 0 6 0.1 6 0.3 6 0.3 6 0.3 6 0.1 6-0.3 6-0.4 6-0.6 6-0.5 6-0.4 6-0.2 6 0.3 6 0.5 6 0.6 6 0.4 6 0.2 6-0.1 6-0.2 6-0.4 6-0.2 6-0.1 6 0.1 6 0.4 6 0.5" stroke-width="1.30" stroke-opacity="0.53"/><path d="M-10 293.6l6-0.1 6-0.2 6-0.2 6-0.1 6-0.1 6 0.1 6 0.2 6 0.3 6 0.3 6 0.3 6 0.3 6 0.2 6 0.1 6 0.2 6 0.2 6 0.3 6 0.3 6 0.3 6 0.2 6 0.2 6 0 6-0.1 6-0.2 6-0.2 6-0.2 6-0.3 6-0.3 6-0.3 6-0.3 6-0.2 6-0.2 6 0 6 0.1 6 0.1 6 0.3 6 0.3 6 0.2 6 0.1 6 0.1 6 0.1 6 0 6 0.1 6 0.1 6 0.2 6 0.1 6 0.2 6 0 6 0 6 0 6 0 6 0.1 6 0 6 0.1 6 0.1 6 0.1 6-0.1 6-0.3 6-0.4 6-0.6 6-0.6 6-0.6 6-0.6 6-0.5 6-0.3 6-0.1 6 0 6 0 6-0.1 6-0.2 6-0.2 6-0.3 6-0.2 6-0.2 6 0 6 0.1 6 0.1 6 0.2 6 0.2 6 0.3 6 0.2 6 0.3 6 0.4 6 0.5 6 0.3 6 0.3 6 0.2 6 0.1 6 0 6 0.1 6 0.3 6 0.3 6 0.4 6 0.4 6 0.3 6 0.1 6 0.2 6 0.2 6 0.1 6 0 6 0 6-0.1 6-0.2 6-0.2 6-0.2 6 0 6 0 6 0 6 0 6 0 6-0.1 6 0 6 0.1 6 0.2 6 0.2 6 0.2 6 0 6-0.1 6-0.3 6-0.5 6-0.4 6-0.3 6 0 6 0.2 6 0.3 6 0.4 6 0.3 6 0.2 6 0.1 6 0 6 0 6-0.1 6 0.1 6 0.1 6 0.1 6-0.1 6-0.2 6-0.4 6-0.6 6-0.5 6-0.6 6-0.5 6-0.3 6-0.3 6-0.2 6-0.1 6-0.1 6-0.1 6-0.1 6-0.4 6-0.4 6-0.4 6-0.2 6 0.1" stroke-width="1.35" stroke-opacity="0.72"/><path d="M-10 303l6-0.9 6-0.8 6-0.8 6-0.5 6-0.2 6 0.1 6 0.3 6 0.2 6 0.1 6-0.2 6-0.4 6-0.4 6-0.5 6-0.3 6-0.1 6 0 6 0.2 6 0.3 6 0.4 6 0.4 6 0.4 6 0.4 6 0.3 6 0.3 6 0.1 6 0.1 6 0 6-0.2 6-0.3 6-0.3 6-0.3 6-0.2 6-0.2 6-0.1 6 0.1 6 0.1 6 0.3 6 0.3 6 0.3 6 0.4 6 0.3 6 0.3 6 0.3 6 0.4 6 0.4 6 0.4 6 0.4 6 0.3 6 0.4 6 0.3 6 0.3 6 0.3 6 0.1 6-0.1 6-0.2 6-0.3 6-0.4 6-0.3 6-0.1 6 0.1 6 0.3 6 0.4 6 0.3 6 0.3 6 0.1 6 0 6-0.1 6-0.1 6-0.2 6-0.3 6-0.4 6-0.3 6-0.2 6 0 6 0.1 6 0.3 6 0.3 6 0.2 6 0.1 6-0.2 6-0.4 6-0.5 6-0.7 6-0.5 6-0.3 6-0.1 6 0.1 6 0.2 6 0.3 6 0.4 6 0.3 6 0.3 6 0.3 6 0.2 6 0.2 6 0.3 6 0.4 6 0.3 6 0.3 6 0.1 6 0 6-0.2 6-0.3 6-0.5 6-0.6 6-0.6 6-0.6 6-0.5 6-0.4 6-0.3 6-0.1 6-0.1 6 0.1 6 0.2 6 0.1 6 0.1 6 0 6-0.1 6-0.2 6-0.3 6-0.2 6-0.2 6-0.1 6 0.1 6 0.3 6 0.3 6 0.3 6 0.3 6 0.2 6 0.1 6 0.2 6 0.1 6 0.2 6 0.3 6 0.2 6 0.3 6 0.2 6 0.1 6 0.1 6 0 6 0.1 6 0 6 0 6 0 6-0.2 6-0.4 6-0.6 6-0.6 6-0.5 6-0.3 6-0.1 6 0.1 6 0.1" stroke-width="1.40" stroke-opacity="0.73"/><path d="M-10 308.8l6 0.2 6 0.3 6 0.4 6 0.5 6 0.5 6 0.4 6 0.2 6-0.1 6-0.3 6-0.3 6-0.3 6-0.1 6 0 6 0.3 6 0.4 6 0.4 6 0.3 6 0.3 6 0 6 0 6-0.1 6 0 6 0.2 6 0.2 6 0.4 6 0.3 6 0.3 6 0.1 6 0.1 6-0.1 6-0.2 6-0.2 6-0.3 6-0.1 6-0.1 6 0 6 0 6 0.1 6-0.1 6-0.2 6-0.5 6-0.6 6-0.8 6-0.8 6-0.6 6-0.4 6-0.1 6 0.1 6 0.2 6 0.3 6 0.2 6 0.1 6-0.1 6-0.2 6-0.1 6 0 6 0.2 6 0.5 6 0.6 6 0.7 6 0.8 6 0.6 6 0.5 6 0.3 6 0.2 6 0 6-0.1 6-0.2 6-0.1 6-0.1 6 0.1 6 0.1 6 0.2 6 0.2 6 0.3 6 0.2 6 0.1 6-0.2 6-0.3 6-0.6 6-0.7 6-0.7 6-0.8 6-0.5 6-0.5 6-0.3 6-0.3 6-0.3 6-0.2 6-0.2 6 0 6 0 6 0.2 6 0.3 6 0.4 6 0.2 6 0.1 6 0 6-0.2 6-0.1 6-0.2 6-0.1 6-0.2 6-0.1 6-0.2 6-0.2 6-0.1 6 0 6 0.2 6 0.4 6 0.5 6 0.5 6 0.5 6 0.3 6 0.3 6 0.1 6 0.2 6 0.1 6 0.3 6 0.3 6 0.3 6 0.3 6 0.1 6-0.1 6-0.2 6-0.4 6-0.5 6-0.5 6-0.4 6-0.2 6 0 6 0.2 6 0.5 6 0.5 6 0.5 6 0.5 6 0.3 6 0.3 6 0.2 6 0.2 6 0.1 6 0 6 0 6 0.1 6 0 6 0 6-0.1 6-0.2 6-0.3 6-0.5 6-0.6 6-0.6 6-0.4" stroke-width="1.45" stroke-opacity="0.83"/><path d="M-10 320.5l6-0.7 6-0.5 6-0.3 6-0.2 6 0 6 0 6 0 6 0 6-0.2 6-0.1 6-0.3 6-0.2 6-0.2 6-0.2 6-0.2 6-0.1 6-0.2 6-0.2 6-0.1 6 0 6 0.1 6 0.3 6 0.3 6 0.4 6 0.4 6 0.4 6 0.4 6 0.4 6 0.5 6 0.6 6 0.6 6 0.5 6 0.6 6 0.3 6 0.3 6 0.1 6-0.1 6-0.2 6-0.4 6-0.3 6-0.5 6-0.4 6-0.5 6-0.5 6-0.6 6-0.6 6-0.6 6-0.5 6-0.4 6-0.2 6 0 6 0.2 6 0.3 6 0.4 6 0.4 6 0.3 6 0.2 6 0.1 6 0 6 0 6 0.1 6 0.3 6 0.5 6 0.7 6 0.6 6 0.7 6 0.5 6 0.5 6 0.3 6 0.1 6-0.1 6-0.3 6-0.4 6-0.5 6-0.4 6-0.4 6-0.4 6-0.4 6-0.5 6-0.5 6-0.6 6-0.8 6-0.8 6-0.7 6-0.7 6-0.5 6-0.3 6-0.2 6 0.1 6 0.2 6 0.3 6 0.4 6 0.4 6 0.4 6 0.4 6 0.3 6 0.3 6 0.3 6 0.4 6 0.3 6 0.2 6 0.3 6 0.1 6-0.1 6-0.2 6-0.3 6-0.5 6-0.4 6-0.3 6-0.2 6-0.1 6 0.1 6 0.1 6 0.2 6 0.1 6 0 6 0 6-0.1 6-0.1 6 0 6 0.1 6 0.1 6 0.3 6 0.3 6 0.3 6 0.4 6 0.4 6 0.5 6 0.3 6 0.4 6 0.2 6 0.2 6 0.1 6 0 6-0.2 6-0.1 6-0.2 6-0.3 6-0.2 6-0.3 6-0.3 6-0.1 6-0.1 6 0.1 6 0.3 6 0.4 6 0.4 6 0.5 6 0.4 6 0.3 6 0.1 6-0.1 6-0.2" stroke-width="1.50" stroke-opacity="0.77"/><path d="M-10 327.2l6-0.1 6 0 6 0 6 0 6 0 6 0 6-0.1 6-0.2 6-0.1 6-0.2 6-0.1 6-0.1 6 0 6-0.1 6 0.1 6 0.1 6 0.3 6 0.4 6 0.5 6 0.8 6 0.8 6 0.8 6 0.8 6 0.7 6 0.4 6 0.2 6-0.1 6-0.2 6-0.3 6-0.4 6-0.1 6-0.1 6 0 6 0.2 6 0.1 6 0.2 6 0 6 0 6-0.1 6-0.4 6-0.4 6-0.6 6-0.6 6-0.6 6-0.5 6-0.3 6-0.3 6-0.1 6 0.1 6 0.2 6 0.1 6 0.1 6 0 6-0.2 6-0.3 6-0.3 6-0.4 6-0.3 6-0.2 6 0.1 6 0.3 6 0.7 6 0.8 6 1 6 0.8 6 0.6 6 0.4 6 0 6-0.2 6-0.3 6-0.4 6-0.3 6-0.3 6-0.2 6 0 6 0.1 6 0.2 6 0.2 6 0 6-0.2 6-0.3 6-0.4 6-0.4 6-0.5 6-0.4 6-0.4 6-0.2 6-0.1 6 0 6 0 6 0.1 6 0.1 6 0.1 6 0.2 6 0.1 6 0.2 6 0.3 6 0.4 6 0.3 6 0.4 6 0.4 6 0.3 6 0.2 6 0.2 6 0.2 6 0.1 6 0.2 6 0.1 6 0.2 6 0 6 0 6-0.2 6-0.1 6-0.2 6 0 6 0.2 6 0.3 6 0.5 6 0.5 6 0.5 6 0.3 6 0.2 6 0 6-0.2 6-0.3 6-0.4 6-0.4 6-0.3 6-0.3 6-0.2 6-0.3 6-0.3 6-0.4 6-0.5 6-0.5 6-0.6 6-0.5 6-0.4 6-0.2 6-0.1 6 0 6 0.1 6 0.1 6 0 6 0 6-0.1 6-0.2 6-0.1 6 0 6 0 6 0.1 6 0.1 6 0.1" stroke-width="1.55" stroke-opacity="0.81"/><path class="sh" style="animation-delay:0.00s" d="M26 199.1l6 0.1 6 0 6-0.1 6 0.1 6 0 6-0.2 6-0.1 6 0.1 6 0 6 0" stroke-width="1.20"/><path class="sh" style="animation-delay:-0.37s" d="M20 200.5l6-0.3 6-0.2 6 0 6-0.1 6-0.1 6 0 6 0 6 0 6 0.1 6-0.1 6-0.1 6 0.1" stroke-width="1.31"/><path class="sh" style="animation-delay:-0.74s" d="M20 202l6 0.1 6 0.1 6 0 6 0 6 0.1 6 0.1 6 0.2 6-0.1 6-0.2 6-0.1 6 0.1 6-0.1 6-0.1" stroke-width="1.42"/><path class="sh" style="animation-delay:-1.11s" d="M20 205.7l6 0 6 0.1 6 0.2 6-0.1 6-0.3 6-0.2 6-0.2 6 0 6 0 6-0.1 6-0.1 6-0.1 6 0" stroke-width="1.53"/><path class="sh" style="animation-delay:-1.48s" d="M14 208.6l6 0 6-0.1 6-0.3 6-0.1 6 0.2 6 0.3 6 0 6 0.1 6 0.2 6 0.3 6 0.1 6-0.1 6-0.1" stroke-width="1.64"/><path class="sh" style="animation-delay:-1.85s" d="M8 212.9l6-0.1 6-0.5 6-0.5 6-0.3 6 0 6 0.1 6 0 6 0 6 0.1 6 0.3 6 0.3 6 0 6-0.1 6-0.3 6-0.3 6-0.1 6 0.1 6 0.3 6 0.4" stroke-width="1.75"/><path class="sh" style="animation-delay:-2.22s" d="M8 215.9l6 0.1 6 0 6 0.1 6 0.2 6 0.2 6 0.2 6 0.3 6 0.2 6 0 6-0.3 6-0.2 6-0.2 6-0.1 6 0 6-0.1" stroke-width="1.86"/><path class="sh" style="animation-delay:-2.59s" d="M14 220.8l6-0.1 6 0 6 0.1 6 0.2 6 0.2 6 0.1 6 0.1 6 0.1 6 0 6 0 6 0 6-0.1 6 0 6 0.2 6 0.2 6 0" stroke-width="1.97"/><path class="sh" style="animation-delay:-2.96s" d="M2 226.4l6 0.2 6 0.2 6 0.1 6-0.1 6-0.2 6-0.1 6-0.1 6 0.2 6 0.1 6 0 6-0.3 6-0.4 6-0.2 6 0.1 6 0.4 6 0.5 6 0.3 6 0.2 6 0 6 0.1" stroke-width="2.08"/><path class="sh" style="animation-delay:-3.33s" d="M-4 232.4l6-0.5 6-0.2 6-0.1 6 0.1 6 0.2 6 0.1 6 0 6-0.2 6-0.1 6 0 6 0.2 6 0.3 6 0.3 6 0.3 6 0.1 6-0.1 6-0.1 6-0.2" stroke-width="2.19"/><path class="sh" style="animation-delay:-3.70s" d="M2 238.3l6 0.1 6 0.2 6 0.3 6 0.1 6-0.2 6-0.4 6-0.4 6-0.2 6-0.1 6 0.1 6 0.1 6 0.1 6 0 6-0.1 6-0.2 6-0.2" stroke-width="2.30"/><path class="sh" style="animation-delay:-4.07s" d="M2 242.4l6 0.4 6 0.4 6 0.3 6 0 6 0.1 6 0.3 6 0.4 6 0.5 6 0.3 6 0.1 6-0.1 6-0.1 6-0.1 6 0.2 6 0.2 6 0.1 6 0 6-0.1 6-0.2" stroke-width="2.41"/><path class="sh" style="animation-delay:-4.44s" d="M-10 251.4l6 0 6 0 6 0 6-0.2 6-0.2 6-0.1 6 0.1 6 0.3 6 0.3 6 0.2 6 0 6-0.2 6-0.4 6-0.3 6-0.1 6 0 6 0.3 6 0.3 6 0.3" stroke-width="2.52"/><path class="sh" style="animation-delay:-4.81s" d="M-10 255.8l6-0.3 6-0.2 6-0.1 6 0.2 6 0.4 6 0.5 6 0.5 6 0.2 6-0.2 6-0.5 6-0.7 6-0.6 6-0.2 6 0.1 6 0.3 6 0.5 6 0.4 6 0.3 6 0.1 6 0.2 6 0.3" stroke-width="2.63"/><path class="sh" style="animation-delay:-5.18s" d="M-10 263.9l6-0.3 6-0.2 6 0 6 0.1 6-0.1 6-0.2 6-0.5 6-0.5 6-0.5 6-0.3 6 0 6 0.3 6 0.7 6 0.5 6 0.3 6-0.2 6-0.4 6-0.5 6-0.5" stroke-width="2.74"/><path class="sh" style="animation-delay:-5.55s" d="M2 271.9l6 0.4 6 0.4 6 0.5 6 0.4 6 0.3 6 0.3 6 0.1 6-0.1 6-0.2 6-0.4 6-0.4 6-0.4 6-0.4 6-0.4 6-0.3 6-0.2 6-0.2 6-0.1 6-0.1 6-0.1 6-0.1 6-0.1" stroke-width="2.85"/><path class="sh" style="animation-delay:-5.92s" d="M2 279.1l6-0.3 6-0.3 6-0.2 6-0.2 6-0.1 6-0.1 6 0 6 0.1 6 0 6 0.1 6 0.1 6 0.2 6 0.3 6 0.4 6 0.5 6 0.6 6 0.5 6 0.3 6 0.2 6 0 6-0.2 6-0.2 6-0.3" stroke-width="2.96"/><path class="sh" style="animation-delay:-6.29s" d="M2 285.3l6-0.1 6 0.1 6 0.2 6 0.2 6 0.1 6 0.1 6 0.1 6 0.2 6 0.3 6 0.3 6 0.3 6 0.3 6 0.1 6 0.1 6 0.1 6 0 6 0.2 6 0.1 6 0 6 0 6 0" stroke-width="3.07"/><path class="sh" style="animation-delay:-6.66s" d="M-4 293.5l6-0.2 6-0.2 6-0.1 6-0.1 6 0.1 6 0.2 6 0.3 6 0.3 6 0.3 6 0.3 6 0.2 6 0.1 6 0.2 6 0.2 6 0.3 6 0.3 6 0.3 6 0.2 6 0.2 6 0" stroke-width="3.18"/><path class="sh" style="animation-delay:-7.03s" d="M-10 303l6-0.9 6-0.8 6-0.8 6-0.5 6-0.2 6 0.1 6 0.3 6 0.2 6 0.1 6-0.2 6-0.4 6-0.4 6-0.5 6-0.3 6-0.1 6 0 6 0.2 6 0.3 6 0.4 6 0.4 6 0.4 6 0.4 6 0.3 6 0.3" stroke-width="3.29"/><path class="sh" style="animation-delay:-7.40s" d="M-10 308.8l6 0.2 6 0.3 6 0.4 6 0.5 6 0.5 6 0.4 6 0.2 6-0.1 6-0.3 6-0.3 6-0.3 6-0.1 6 0 6 0.3 6 0.4 6 0.4 6 0.3 6 0.3 6 0 6 0 6-0.1 6 0" stroke-width="3.40"/><path class="sh" style="animation-delay:-7.77s" d="M-10 320.5l6-0.7 6-0.5 6-0.3 6-0.2 6 0 6 0 6 0 6 0 6-0.2 6-0.1 6-0.3 6-0.2 6-0.2 6-0.2 6-0.2 6-0.1 6-0.2 6-0.2 6-0.1 6 0 6 0.1 6 0.3 6 0.3 6 0.4 6 0.4 6 0.4" stroke-width="3.51"/><path class="sh" style="animation-delay:-8.14s" d="M-10 327.2l6-0.1 6 0 6 0 6 0 6 0 6 0 6-0.1 6-0.2 6-0.1 6-0.2 6-0.1 6-0.1 6 0 6-0.1 6 0.1 6 0.1 6 0.3 6 0.4 6 0.5 6 0.8 6 0.8 6 0.8" stroke-width="3.62"/></g><rect x="26" y="230" width="248.1" height="76" rx="22" fill="#0D0D0C"/><defs><path id="data80" d="M26-14h0h140q22 0 37-15q14-15 14-35q0-20-14-35q-15-15-37-15h0h-140q-22 0-36 15q-15 15-15 35q0 20 15 35q14 15 36 15zM346-14h0h76q22 0 37-15q14-15 14-35q0-20-14-35q-15-15-37-15h0h-76q-22 0-36 15q-15 15-15 35q0 20 15 35q14 15 36 15zM90-142h0h76q22 0 37-15q14-15 14-35q0-20-14-35q-15-15-37-15h0h-76q-22 0-36 15q-15 15-15 35q0 20 15 35q14 15 36 15zM346-142h0h76q22 0 37-15q14-15 14-35q0-20-14-35q-15-15-37-15h0h-76q-22 0-36 15q-15 15-15 35q0 20 15 35q14 15 36 15zM90-270h0h76q22 0 37-15q14-15 14-35q0-20-14-35q-15-15-37-15h0h-76q-22 0-36 15q-15 15-15 35q0 20 15 35q14 15 36 15zM346-270h0h76q22 0 37-15q14-15 14-35q0-20-14-35q-15-15-37-15h0h-76q-22 0-36 15q-15 15-15 35q0 20 15 35q14 15 36 15zM90-398h0h140q22 0 37-15q14-15 14-35q0-20-14-35q-15-15-37-15h0h-140q-22 0-36 15q-15 15-15 35q0 20 15 35q14 15 36 15zM346-398h0h76q22 0 37-15q14-15 14-35q0-20-14-35q-15-15-37-15h0h-76q-22 0-36 15q-15 15-15 35q0 20 15 35q14 15 36 15zM90-526h0h76q22 0 37-15q14-15 14-35q0-20-14-35q-15-15-37-15h0h-76q-22 0-36 15q-15 15-15 35q0 20 15 35q14 15 36 15zM282-526h0h76q22 0 37-15q14-15 14-35q0-20-14-35q-15-15-37-15h0h-76q-22 0-36 15q-15 15-15 35q0 20 15 35q14 15 36 15zM90-654h0h76q22 0 37-15q14-15 14-35q0-20-14-35q-15-15-37-15h0h-76q-22 0-36 15q-15 15-15 35q0 20 15 35q14 15 36 15zM26-782h0h140q22 0 37-15q14-15 14-35q0-20-14-35q-15-15-37-15h0h-140q-22 0-36 15q-15 15-15 35q0 20 15 35q14 15 36 15z"/><path id="data108" d="M154-14h0h140q22 0 37-15q14-15 14-35q0-20-14-35q-15-15-37-15h0h-140q-22 0-36 15q-15 15-15 35q0 20 15 35q14 15 36 15zM410-14h0h76q22 0 37-15q14-15 14-35q0-20-14-35q-15-15-37-15h0h-76q-22 0-36 15q-15 15-15 35q0 20 15 35q14 15 36 15zM90-142h0h76q22 0 37-15q14-15 14-35q0-20-14-35q-15-15-37-15h0h-76q-22 0-36 15q-15 15-15 35q0 20 15 35q14 15 36 15zM346-142h0h76q22 0 37-15q14-15 14-35q0-20-14-35q-15-15-37-15h0h-76q-22 0-36 15q-15 15-15 35q0 20 15 35q14 15 36 15zM90-270h0h76q22 0 37-15q14-15 14-35q0-20-14-35q-15-15-37-15h0h-76q-22 0-36 15q-15 15-15 35q0 20 15 35q14 15 36 15zM346-270h0h76q22 0 37-15q14-15 14-35q0-20-14-35q-15-15-37-15h0h-76q-22 0-36 15q-15 15-15 35q0 20 15 35q14 15 36 15zM90-398h0h76q22 0 37-15q14-15 14-35q0-20-14-35q-15-15-37-15h0h-76q-22 0-36 15q-15 15-15 35q0 20 15 35q14 15 36 15zM346-398h0h76q22 0 37-15q14-15 14-35q0-20-14-35q-15-15-37-15h0h-76q-22 0-36 15q-15 15-15 35q0 20 15 35q14 15 36 15zM90-526h0h76q22 0 37-15q14-15 14-35q0-20-14-35q-15-15-37-15h0h-76q-22 0-36 15q-15 15-15 35q0 20 15 35q14 15 36 15zM346-526h0h76q22 0 37-15q14-15 14-35q0-20-14-35q-15-15-37-15h0h-76q-22 0-36 15q-15 15-15 35q0 20 15 35q14 15 36 15z"/><path id="data90" d="M90-14h0h76q22 0 37-15q14-15 14-35q0-20-14-35q-15-15-37-15h0h-76q-22 0-36 15q-15 15-15 35q0 20 15 35q14 15 36 15zM410-14h0h76q22 0 37-15q14-15 14-35q0-20-14-35q-15-15-37-15h0h-76q-22 0-36 15q-15 15-15 35q0 20 15 35q14 15 36 15zM90-142h0h76q22 0 37-15q14-15 14-35q0-20-14-35q-15-15-37-15h0h-76q-22 0-36 15q-15 15-15 35q0 20 15 35q14 15 36 15zM410-142h0h76q22 0 37-15q14-15 14-35q0-20-14-35q-15-15-37-15h0h-76q-22 0-36 15q-15 15-15 35q0 20 15 35q14 15 36 15zM90-270h0h76q22 0 37-15q14-15 14-35q0-20-14-35q-15-15-37-15h0h-76q-22 0-36 15q-15 15-15 35q0 20 15 35q14 15 36 15zM271-270h0h34q17 0 29-15q11-15 11-35q0-20-11-35q-12-15-29-15h0h-34q-17 0-28 15q-12 15-12 35q0 20 12 35q11 15 28 15zM410-270h0h76q22 0 37-15q14-15 14-35q0-20-14-35q-15-15-37-15h0h-76q-22 0-36 15q-15 15-15 35q0 20 15 35q14 15 36 15zM90-398h0h140q22 0 37-15q14-15 14-35q0-20-14-35q-15-15-37-15h0h-140q-22 0-36 15q-15 15-15 35q0 20 15 35q14 15 36 15zM346-398h0h140q22 0 37-15q14-15 14-35q0-20-14-35q-15-15-37-15h0h-140q-22 0-36 15q-15 15-15 35q0 20 15 35q14 15 36 15zM90-526h0h76q22 0 37-15q14-15 14-35q0-20-14-35q-15-15-37-15h0h-76q-22 0-36 15q-15 15-15 35q0 20 15 35q14 15 36 15zM346-526h0h76q22 0 37-15q14-15 14-35q0-20-14-35q-15-15-37-15h0h-76q-22 0-36 15q-15 15-15 35q0 20 15 35q14 15 36 15z"/><path id="data60" d="M154-14h0h140q22 0 37-15q14-15 14-35q0-20-14-35q-15-15-37-15h0h-140q-22 0-36 15q-15 15-15 35q0 20 15 35q14 15 36 15zM410-14h0h76q22 0 37-15q14-15 14-35q0-20-14-35q-15-15-37-15h0h-76q-22 0-36 15q-15 15-15 35q0 20 15 35q14 15 36 15zM90-142h0h76q22 0 37-15q14-15 14-35q0-20-14-35q-15-15-37-15h0h-76q-22 0-36 15q-15 15-15 35q0 20 15 35q14 15 36 15zM346-142h0h76q22 0 37-15q14-15 14-35q0-20-14-35q-15-15-37-15h0h-76q-22 0-36 15q-15 15-15 35q0 20 15 35q14 15 36 15zM227-270h0h186q28 0 44-15q16-15 16-35q0-20-16-35q-16-15-44-15h0h-186q-28 0-44 15q-16 15-16 35q0 20 16 35q16 15 44 15zM346-398h0h76q22 0 37-15q14-15 14-35q0-20-14-35q-15-15-37-15h0h-76q-22 0-36 15q-15 15-15 35q0 20 15 35q14 15 36 15zM163-526h0h186q28 0 44-15q16-15 16-35q0-20-16-35q-16-15-44-15h0h-186q-28 0-44 15q-16 15-16 35q0 20 16 35q16 15 44 15z"/><path id="data91" d="M90-14h0h76q22 0 37-15q14-15 14-35q0-20-14-35q-15-15-37-15h0h-76q-22 0-36 15q-15 15-15 35q0 20 15 35q14 15 36 15zM346-14h0h76q22 0 37-15q14-15 14-35q0-20-14-35q-15-15-37-15h0h-76q-22 0-36 15q-15 15-15 35q0 20 15 35q14 15 36 15zM90-142h0h76q22 0 37-15q14-15 14-35q0-20-14-35q-15-15-37-15h0h-76q-22 0-36 15q-15 15-15 35q0 20 15 35q14 15 36 15zM346-142h0h76q22 0 37-15q14-15 14-35q0-20-14-35q-15-15-37-15h0h-76q-22 0-36 15q-15 15-15 35q0 20 15 35q14 15 36 15zM90-270h0h76q22 0 37-15q14-15 14-35q0-20-14-35q-15-15-37-15h0h-76q-22 0-36 15q-15 15-15 35q0 20 15 35q14 15 36 15zM346-270h0h76q22 0 37-15q14-15 14-35q0-20-14-35q-15-15-37-15h0h-76q-22 0-36 15q-15 15-15 35q0 20 15 35q14 15 36 15zM90-398h0h76q22 0 37-15q14-15 14-35q0-20-14-35q-15-15-37-15h0h-76q-22 0-36 15q-15 15-15 35q0 20 15 35q14 15 36 15zM346-398h0h76q22 0 37-15q14-15 14-35q0-20-14-35q-15-15-37-15h0h-76q-22 0-36 15q-15 15-15 35q0 20 15 35q14 15 36 15zM99-526h0h250q28 0 44-15q16-15 16-35q0-20-16-35q-16-15-44-15h0h-250q-28 0-44 15q-16 15-16 35q0 20 16 35q16 15 44 15z"/><path id="data157" d="M99-398h0h314q28 0 44-15q16-15 16-35q0-20-16-35q-16-15-44-15h0h-314q-28 0-44 15q-16 15-16 35q0 20 16 35q16 15 44 15z"/><path id="data81" d="M163-14h0h186q28 0 44-15q16-15 16-35q0-20-16-35q-16-15-44-15h0h-186q-28 0-44 15q-16 15-16 35q0 20 16 35q16 15 44 15zM218-142h0h76q22 0 37-15q14-15 14-35q0-20-14-35q-15-15-37-15h0h-76q-22 0-36 15q-15 15-15 35q0 20 15 35q14 15 36 15zM218-270h0h76q22 0 37-15q14-15 14-35q0-20-14-35q-15-15-37-15h0h-76q-22 0-36 15q-15 15-15 35q0 20 15 35q14 15 36 15zM218-398h0h76q22 0 37-15q14-15 14-35q0-20-14-35q-15-15-37-15h0h-76q-22 0-36 15q-15 15-15 35q0 20 15 35q14 15 36 15zM154-526h0h140q22 0 37-15q14-15 14-35q0-20-14-35q-15-15-37-15h0h-140q-22 0-36 15q-15 15-15 35q0 20 15 35q14 15 36 15zM218-782h0h76q22 0 37-15q14-15 14-35q0-20-14-35q-15-15-37-15h0h-76q-22 0-36 15q-15 15-15 35q0 20 15 35q14 15 36 15z"/><path id="data89" d="M163-14h0h186q28 0 44-15q16-15 16-35q0-20-16-35q-16-15-44-15h0h-186q-28 0-44 15q-16 15-16 35q0 20 16 35q16 15 44 15zM218-142h0h76q22 0 37-15q14-15 14-35q0-20-14-35q-15-15-37-15h0h-76q-22 0-36 15q-15 15-15 35q0 20 15 35q14 15 36 15zM218-270h0h76q22 0 37-15q14-15 14-35q0-20-14-35q-15-15-37-15h0h-76q-22 0-36 15q-15 15-15 35q0 20 15 35q14 15 36 15zM218-398h0h76q22 0 37-15q14-15 14-35q0-20-14-35q-15-15-37-15h0h-76q-22 0-36 15q-15 15-15 35q0 20 15 35q14 15 36 15zM218-526h0h76q22 0 37-15q14-15 14-35q0-20-14-35q-15-15-37-15h0h-76q-22 0-36 15q-15 15-15 35q0 20 15 35q14 15 36 15zM218-654h0h76q22 0 37-15q14-15 14-35q0-20-14-35q-15-15-37-15h0h-76q-22 0-36 15q-15 15-15 35q0 20 15 35q14 15 36 15zM154-782h0h140q22 0 37-15q14-15 14-35q0-20-14-35q-15-15-37-15h0h-140q-22 0-36 15q-15 15-15 35q0 20 15 35q14 15 36 15z"/><path id="data93" d="M163-14h0h186q28 0 44-15q16-15 16-35q0-20-16-35q-16-15-44-15h0h-186q-28 0-44 15q-16 15-16 35q0 20 16 35q16 15 44 15zM90-142h0h76q22 0 37-15q14-15 14-35q0-20-14-35q-15-15-37-15h0h-76q-22 0-36 15q-15 15-15 35q0 20 15 35q14 15 36 15zM346-142h0h76q22 0 37-15q14-15 14-35q0-20-14-35q-15-15-37-15h0h-76q-22 0-36 15q-15 15-15 35q0 20 15 35q14 15 36 15zM90-270h0h76q22 0 37-15q14-15 14-35q0-20-14-35q-15-15-37-15h0h-76q-22 0-36 15q-15 15-15 35q0 20 15 35q14 15 36 15zM346-270h0h76q22 0 37-15q14-15 14-35q0-20-14-35q-15-15-37-15h0h-76q-22 0-36 15q-15 15-15 35q0 20 15 35q14 15 36 15zM90-398h0h76q22 0 37-15q14-15 14-35q0-20-14-35q-15-15-37-15h0h-76q-22 0-36 15q-15 15-15 35q0 20 15 35q14 15 36 15zM346-398h0h76q22 0 37-15q14-15 14-35q0-20-14-35q-15-15-37-15h0h-76q-22 0-36 15q-15 15-15 35q0 20 15 35q14 15 36 15zM163-526h0h186q28 0 44-15q16-15 16-35q0-20-16-35q-16-15-44-15h0h-186q-28 0-44 15q-16 15-16 35q0 20 16 35q16 15 44 15z"/><path id="data101" d="M35 114h0h186q28 0 44-15q16-15 16-35q0-20-16-35q-16-15-44-15h0h-186q-28 0-44 15q-16 15-16 35q0 20 16 35q16 15 44 15zM90-14h0h76q22 0 37-15q14-15 14-35q0-20-14-35q-15-15-37-15h0h-76q-22 0-36 15q-15 15-15 35q0 20 15 35q14 15 36 15zM99-142h0h250q28 0 44-15q16-15 16-35q0-20-16-35q-16-15-44-15h0h-250q-28 0-44 15q-16 15-16 35q0 20 16 35q16 15 44 15zM90-270h0h76q22 0 37-15q14-15 14-35q0-20-14-35q-15-15-37-15h0h-76q-22 0-36 15q-15 15-15 35q0 20 15 35q14 15 36 15zM346-270h0h76q22 0 37-15q14-15 14-35q0-20-14-35q-15-15-37-15h0h-76q-22 0-36 15q-15 15-15 35q0 20 15 35q14 15 36 15zM90-398h0h76q22 0 37-15q14-15 14-35q0-20-14-35q-15-15-37-15h0h-76q-22 0-36 15q-15 15-15 35q0 20 15 35q14 15 36 15zM346-398h0h76q22 0 37-15q14-15 14-35q0-20-14-35q-15-15-37-15h0h-76q-22 0-36 15q-15 15-15 35q0 20 15 35q14 15 36 15zM26-526h0h76q22 0 37-15q14-15 14-35q0-20-14-35q-15-15-37-15h0h-76q-22 0-36 15q-15 15-15 35q0 20 15 35q14 15 36 15zM218-526h0h140q22 0 37-15q14-15 14-35q0-20-14-35q-15-15-37-15h0h-140q-22 0-36 15q-15 15-15 35q0 20 15 35q14 15 36 15z"/><path id="data142" d="M218-14h0h76q22 0 37-15q14-15 14-35q0-20-14-35q-15-15-37-15h0h-76q-22 0-36 15q-15 15-15 35q0 20 15 35q14 15 36 15zM218-142h0h76q22 0 37-15q14-15 14-35q0-20-14-35q-15-15-37-15h0h-76q-22 0-36 15q-15 15-15 35q0 20 15 35q14 15 36 15z"/><path id="data71" d="M154-14h0h140q22 0 37-15q14-15 14-35q0-20-14-35q-15-15-37-15h0h-140q-22 0-36 15q-15 15-15 35q0 20 15 35q14 15 36 15zM410-14h0h76q22 0 37-15q14-15 14-35q0-20-14-35q-15-15-37-15h0h-76q-22 0-36 15q-15 15-15 35q0 20 15 35q14 15 36 15zM90-142h0h76q22 0 37-15q14-15 14-35q0-20-14-35q-15-15-37-15h0h-76q-22 0-36 15q-15 15-15 35q0 20 15 35q14 15 36 15zM346-142h0h76q22 0 37-15q14-15 14-35q0-20-14-35q-15-15-37-15h0h-76q-22 0-36 15q-15 15-15 35q0 20 15 35q14 15 36 15zM90-270h0h76q22 0 37-15q14-15 14-35q0-20-14-35q-15-15-37-15h0h-76q-22 0-36 15q-15 15-15 35q0 20 15 35q14 15 36 15zM346-270h0h76q22 0 37-15q14-15 14-35q0-20-14-35q-15-15-37-15h0h-76q-22 0-36 15q-15 15-15 35q0 20 15 35q14 15 36 15zM90-398h0h76q22 0 37-15q14-15 14-35q0-20-14-35q-15-15-37-15h0h-76q-22 0-36 15q-15 15-15 35q0 20 15 35q14 15 36 15zM282-398h0h140q22 0 37-15q14-15 14-35q0-20-14-35q-15-15-37-15h0h-140q-22 0-36 15q-15 15-15 35q0 20 15 35q14 15 36 15zM154-526h0h76q22 0 37-15q14-15 14-35q0-20-14-35q-15-15-37-15h0h-76q-22 0-36 15q-15 15-15 35q0 20 15 35q14 15 36 15zM346-526h0h76q22 0 37-15q14-15 14-35q0-20-14-35q-15-15-37-15h0h-76q-22 0-36 15q-15 15-15 35q0 20 15 35q14 15 36 15zM346-654h0h76q22 0 37-15q14-15 14-35q0-20-14-35q-15-15-37-15h0h-76q-22 0-36 15q-15 15-15 35q0 20 15 35q14 15 36 15zM282-782h0h140q22 0 37-15q14-15 14-35q0-20-14-35q-15-15-37-15h0h-140q-22 0-36 15q-15 15-15 35q0 20 15 35q14 15 36 15z"/><path id="data73" d="M163-14h0h186q28 0 44-15q16-15 16-35q0-20-16-35q-16-15-44-15h0h-186q-28 0-44 15q-16 15-16 35q0 20 16 35q16 15 44 15zM90-142h0h76q22 0 37-15q14-15 14-35q0-20-14-35q-15-15-37-15h0h-76q-22 0-36 15q-15 15-15 35q0 20 15 35q14 15 36 15zM99-270h0h314q28 0 44-15q16-15 16-35q0-20-16-35q-16-15-44-15h0h-314q-28 0-44 15q-16 15-16 35q0 20 16 35q16 15 44 15zM90-398h0h76q22 0 37-15q14-15 14-35q0-20-14-35q-15-15-37-15h0h-76q-22 0-36 15q-15 15-15 35q0 20 15 35q14 15 36 15zM346-398h0h76q22 0 37-15q14-15 14-35q0-20-14-35q-15-15-37-15h0h-76q-22 0-36 15q-15 15-15 35q0 20 15 35q14 15 36 15zM163-526h0h186q28 0 44-15q16-15 16-35q0-20-16-35q-16-15-44-15h0h-186q-28 0-44 15q-16 15-16 35q0 20 16 35q16 15 44 15z"/><path id="data113" d="M218-14h0h76q22 0 37-15q14-15 14-35q0-20-14-35q-15-15-37-15h0h-76q-22 0-36 15q-15 15-15 35q0 20 15 35q14 15 36 15zM163-142h0h186q28 0 44-15q16-15 16-35q0-20-16-35q-16-15-44-15h0h-186q-28 0-44 15q-16 15-16 35q0 20 16 35q16 15 44 15zM90-270h0h76q22 0 37-15q14-15 14-35q0-20-14-35q-15-15-37-15h0h-76q-22 0-36 15q-15 15-15 35q0 20 15 35q14 15 36 15zM346-270h0h76q22 0 37-15q14-15 14-35q0-20-14-35q-15-15-37-15h0h-76q-22 0-36 15q-15 15-15 35q0 20 15 35q14 15 36 15zM90-398h0h76q22 0 37-15q14-15 14-35q0-20-14-35q-15-15-37-15h0h-76q-22 0-36 15q-15 15-15 35q0 20 15 35q14 15 36 15zM346-398h0h76q22 0 37-15q14-15 14-35q0-20-14-35q-15-15-37-15h0h-76q-22 0-36 15q-15 15-15 35q0 20 15 35q14 15 36 15zM90-526h0h76q22 0 37-15q14-15 14-35q0-20-14-35q-15-15-37-15h0h-76q-22 0-36 15q-15 15-15 35q0 20 15 35q14 15 36 15zM346-526h0h76q22 0 37-15q14-15 14-35q0-20-14-35q-15-15-37-15h0h-76q-22 0-36 15q-15 15-15 35q0 20 15 35q14 15 36 15z"/><path id="head14" d="M658-140l10 7q-32 51-75 84q-44 32-95 48q-52 16-109 16h0q-73 0-133-24q-61-25-105-72q-45-48-69-115q-24-68-24-155h0q0-84 25-152q24-68 70-117q45-50 109-76q63-27 142-27h0q57 0 107 11q50 11 91 31q40 20 67 46h0l-52 260h-18l-15-145q-6-65-30-106q-24-42-66-62q-43-21-107-21h0q-46 0-85 25q-39 25-66 70q-28 44-43 103q-15 59-15 127h0q0 73 18 136q17 63 52 110q35 46 88 72q53 26 124 26h0q61 0 114-26q53-26 90-74h0z"/><path id="head182" d="M305-515h0q62 0 111 19q48 19 81 55q33 35 50 85q17 49 17 110h0q0 57-17 105q-17 47-50 83q-33 35-81 54q-48 19-111 19h0q-64 0-112-19q-49-19-82-54q-33-36-49-83q-17-48-17-105h0q0-61 18-110q18-50 52-85q33-36 81-55q48-19 109-19zM305-502h0q-49 0-81 33q-33 33-49 91q-17 58-17 132h0q0 53 9 98q8 45 27 79q18 34 46 53q28 18 65 18h0q36 0 64-18q27-19 46-52q19-34 28-79q9-46 9-99h0q0-56-9-102q-9-47-27-81q-18-35-46-54q-28-19-65-19z"/><path id="head176" d="M584-20l61 10v10h-228v-10l57-10v-334q0-60-21-90q-21-30-61-30h0q-27 0-53 17q-27 17-51 44q-25 27-45 58q-20 31-33 59h0v276l57 10v10h-222v-10l55-10v-450h-61v-11l171-34v164l8 7q28-52 62-90q33-39 74-60q40-21 86-21h0q40 0 67 13q27 12 44 35q17 23 25 55q8 32 8 73h0v319z"/><path id="head205" d="M185 15h0q-53 0-76-31q-24-32-24-97h0v-367h-71v-10l72-10l95-164h14v157l107 17v10h-107v402q0 35 10 50q10 15 27 15h0q18 0 35-12q16-13 33-32h0l4 12q-10 11-23 22q-14 10-29 19q-16 9-32 14q-17 5-35 5z"/><path id="head116" d="M315-515h0q58 0 100 14q41 13 68 41q27 28 39 71q12 42 12 100h0v254q0 15 7 22q6 7 17 7h0q12 0 28-7q15-7 30-18h0v11q-12 11-28 19q-17 8-35 12q-18 4-35 4h0q-44 0-69-23q-25-24-25-77h0q0-20 0-29q0-10 0-15q0-5 0-11h0l-8-6q-19 38-45 68q-27 30-59 51q-33 20-67 31q-34 11-68 11h0q-37 0-67-12q-30-13-48-37q-18-25-18-61h0q0-85 97-129q97-45 283-45h0q0-85-13-134q-13-50-45-72q-32-22-88-22h0q-37 0-65 7q-29 6-44 15q-16 9-16 16h0q0 5 10 11q9 5 34 15h0q46 18 46 51h0q0 30-26 46q-26 15-63 15h0q-36 0-61-16q-26-16-26-46h0q0-24 21-47q20-24 55-43q34-19 79-30q44-12 93-12zM424-190v-67q-95 0-157 21q-62 20-92 55q-30 35-30 78h0q0 26 11 43q10 16 28 24q18 8 41 8h0q25 0 54-9q28-10 56-30q28-20 52-50q23-31 37-73h0z"/><path id="head129" d="M299 15h0q-74 0-131-33q-58-33-90-92q-33-59-33-135h0q0-61 21-110q20-50 58-86q37-36 90-55q52-19 117-19h0q39 0 76 9q37 8 67 25q30 16 47 40q17 23 17 53h0q0 21-11 35q-12 13-32 20q-20 7-44 7h0q-36 0-62-15q-27-15-27-45h0q0-20 14-35q13-15 38-22h0q38-13 38-23h0q0-8-13-16q-13-9-37-14q-24-6-58-6h0q-42 0-76 19q-35 18-60 51q-25 32-38 75q-14 43-14 93h0q0 55 14 100q14 44 39 76q25 31 61 48q36 17 80 17h0q41 0 78-14q37-14 67-41q30-27 49-67h0l10 10q-23 45-51 75q-29 29-62 46q-33 16-69 23q-36 6-73 6z"/></defs><g fill="#F3F1EC"><use href="#data80" transform="translate(576.40 184.00) scale(0.01123)"/><use href="#data108" transform="translate(585.61 184.00) scale(0.01123)"/><use href="#data90" transform="translate(594.80 184.00) scale(0.01123)"/><use href="#data60" transform="translate(604.00 184.00) scale(0.01123)"/><use href="#data91" transform="translate(613.20 184.00) scale(0.01123)"/><use href="#data157" transform="translate(622.40 184.00) scale(0.01123)"/><use href="#data81" transform="translate(631.61 184.00) scale(0.01123)"/><use href="#data91" transform="translate(640.80 184.00) scale(0.01123)"/><use href="#data157" transform="translate(650.00 184.00) scale(0.01123)"/><use href="#data89" transform="translate(659.20 184.00) scale(0.01123)"/><use href="#data93" transform="translate(668.40 184.00) scale(0.01123)"/><use href="#data93" transform="translate(677.61 184.00) scale(0.01123)"/><use href="#data101" transform="translate(686.80 184.00) scale(0.01123)"/><use href="#data142" transform="translate(696.00 184.00) scale(0.01123)"/><use href="#data71" transform="translate(705.20 184.00) scale(0.01123)"/><use href="#data73" transform="translate(714.40 184.00) scale(0.01123)"/><use href="#data113" transform="translate(723.61 184.00) scale(0.01123)"/><use href="#head14" transform="translate(54.00 284.00) scale(0.05000)"/><use href="#head182" transform="translate(89.80 284.00) scale(0.05000)"/><use href="#head176" transform="translate(119.70 284.00) scale(0.05000)"/><use href="#head205" transform="translate(152.70 284.00) scale(0.05000)"/><use href="#head116" transform="translate(168.80 284.00) scale(0.05000)"/><use href="#head129" transform="translate(200.00 284.00) scale(0.05000)"/><use href="#head205" transform="translate(229.45 284.00) scale(0.05000)"/></g></g><path d="M0 0L0 15.6L3 15.5L6 16.8L9 15.6L12 14.3L15 14.4L18 16.0L21 17.3L24 16.3L27 15.0L30 14.4L33 14.0L36 12.2L39 12.6L42 12.9L45 13.0L48 15.7L51 16.8L54 16.8L57 15.1L60 15.5L63 14.9L66 14.9L69 12.9L72 11.3L75 11.7L78 13.3L81 14.0L84 15.0L87 17.1L90 15.9L93 15.5L96 17.2L99 18.0L102 17.3L105 16.1L108 15.4L111 14.5L114 14.4L117 15.4L120 15.4L123 12.9L126 14.8L129 16.3L132 16.2L135 14.7L138 16.1L141 16.4L144 16.0L147 16.5L150 16.3L153 15.5L156 14.7L159 16.3L162 16.3L165 13.8L168 12.7L171 12.3L174 12.5L177 11.7L180 11.3L183 12.8L186 14.7L189 16.6L192 17.3L195 14.0L198 12.8L201 13.1L204 11.7L207 10.2L210 11.5L213 12.1L216 11.4L219 10.8L222 12.5L225 14.6L228 14.6L231 13.6L234 13.6L237 13.1L240 13.3L243 12.0L246 14.1L249 16.7L252 15.2L255 14.9L258 16.0L261 14.4L264 14.2L267 13.7L270 11.5L273 10.2L276 12.0L279 10.9L282 10.5L285 10.8L288 12.2L291 14.2L294 13.8L297 12.7L300 15.0L303 13.7L306 13.1L309 11.9L312 13.8L315 13.5L318 10.8L321 12.0L324 11.6L327 12.2L330 15.4L333 16.5L336 15.7L339 16.3L342 16.8L345 15.2L348 16.4L351 16.3L354 13.9L357 12.6L360 12.2L363 10.5L366 10.5L369 12.8L372 12.8L375 13.7L378 13.0L381 12.5L384 11.1L387 11.8L390 11.2L393 11.4L396 14.3L399 13.5L402 10.5L405 12.8L408 11.3L411 10.6L414 11.2L417 10.6L420 10.8L423 11.7L426 12.6L429 10.3L432 12.4L435 13.6L438 13.4L441 13.5L444 13.9L447 14.0L450 15.0L453 13.7L456 16.4L459 17.1L462 17.4L465 18.1L468 16.9L471 16.4L474 14.9L477 13.4L480 14.3L483 13.9L486 11.5L489 11.8L492 11.4L495 9.3L498 10.6L501 11.0L504 11.9L507 12.6L510 11.4L513 12.4L516 11.2L519 10.2L522 12.6L525 12.4L528 14.1L531 15.1L534 14.8L537 17.6L540 17.2L543 15.6L546 13.4L549 14.4L552 13.1L555 11.5L558 13.1L561 12.3L564 12.0L567 11.2L570 11.5L573 11.8L576 11.4L579 10.8L582 10.6L585 11.6L588 12.8L591 12.7L594 14.0L597 12.0L600 13.6L603 15.6L606 16.4L609 15.8L612 15.8L615 15.9L618 17.0L621 15.6L624 12.1L627 12.3L630 9.8L633 12.9L636 12.5L639 11.7L642 15.2L645 14.4L648 13.7L651 14.7L654 14.6L657 15.9L660 14.0L663 12.6L666 13.6L669 13.9L672 14.8L675 18.0L678 16.0L681 15.0L684 14.3L687 11.3L690 10.0L693 9.6L696 9.7L699 13.7L702 13.1L705 13.1L708 13.5L711 12.5L714 13.2L717 13.7L720 13.8L723 17.2L726 15.3L729 15.9L732 18.1L735 17.5L738 15.5L741 15.5L744 14.3L747 13.7L750 16.4L753 16.7L756 14.8L759 14.8L762 12.7L765 13.1L768 12.5L771 10.9L774 13.0L777 13.4L780 13.9L783 14.3L786 16.6L789 18.0L792 14.7L795 15.2L798 15.9L801 15.3L804 16.0L807 15.9L810 14.7L813 15.4L816 17.5L819 16.2L822 15.4L825 14.1L828 14.0L831 16.2L834 16.2L837 15.2L840 12.2L843 12.6L846 13.0L849 10.9L852 10.3L855 11.0L858 12.9L861 13.4L864 16.1L867 16.0L870 17.0L873 16.9L876 14.1L879 16.8L882 16.0L885 14.1L888 15.2L891 17.6L894 15.6L897 14.6L900 15.4L900 0Z" fill="#F3F1EC"/></g></svg>
